<svg t="1726939846116" class="icon" viewBox="0 0 1024 1024" version="1.1" xmlns="http://www.w3.org/2000/svg" p-id="36908" width="256" height="256"><path d="M321.1264 615.424a64 62.532267 0 1 0 128 0 64 62.532267 0 1 0-128 0Z" p-id="36909" fill="#7030AB"></path><path d="M577.706667 615.424a63.965867 62.532267 0 1 0 127.931733 0 63.965867 62.532267 0 1 0-127.931733 0Z" p-id="36910" fill="#7030AB"></path><path d="M896.068267 445.576533c-2.2528 0-4.5056 0.068267-6.724267 0.136534-22.3232-103.458133-99.771733-187.050667-200.9088-220.0576a175.8208 175.8208 0 0 0-28.433067-27.0336L742.434133 118.101333c8.772267 4.471467 18.705067 6.9632 29.252267 6.9632 35.328 0 63.965867-27.9552 63.965867-62.532266C835.652267 27.9552 807.048533 0 771.6864 0s-64 27.9552-64 62.498133c0 12.868267 3.959467 24.8832 10.786133 34.781867l-85.845333 83.8656c-34.030933-18.295467-75.6736-29.0816-120.661333-29.0816-44.4416 0-85.640533 10.478933-119.432534 28.3648L305.937067 95.812267c6.212267-9.693867 9.8304-21.0944 9.8304-33.314134C315.767467 27.9552 287.095467 0 251.767467 0S187.767467 27.9552 187.767467 62.498133c0 34.577067 28.637867 62.532267 64 62.532267 11.195733 0 21.742933-2.833067 30.890666-7.816533l82.432 80.520533c-11.1616 8.430933-21.0944 17.749333-29.525333 27.886933-101.137067 33.041067-178.551467 116.599467-200.9088 220.0576a212.104533 212.104533 0 0 0-6.656-0.136533c-70.656 0-127.965867 55.978667-127.965867 124.996267 0 69.051733 57.309867 125.0304 127.965867 125.0304h0.068267v265.864533c0 34.542933 28.637867 62.5664 63.965866 62.5664h639.863467c35.328 0 64-28.023467 64-62.532267v-265.864533h0.170667c70.690133 0 127.965867-55.978667 127.965866-125.0304 0-69.051733-57.275733-124.996267-127.965866-124.996267z m-287.3344 481.621334h-193.4336v-62.327467h193.4336v62.327467z m179.0976-221.9008a129.365333 129.365333 0 0 1-84.855467 31.402666H321.092267a129.2288 129.2288 0 0 1-84.821334-31.402666 123.562667 123.562667 0 0 1-43.144533-93.627734c0-24.541867 7.236267-47.4112 19.729067-66.696533a128.580267 128.580267 0 0 1 108.2368-58.333867h381.883733c45.602133 0 85.6064 23.278933 108.270933 58.333867 12.4928 19.285333 19.729067 42.120533 19.729067 66.696533a123.562667 123.562667 0 0 1-43.144533 93.627734z" p-id="36911" fill="#7030AB"></path></svg>