<?xml version="1.0" encoding="iso-8859-1"?>
<!-- Uploaded to: SVG Repo, www.svgrepo.com, Generator: SVG Repo Mixer Tools -->
<svg version="1.1" id="Layer_1" xmlns="http://www.w3.org/2000/svg" xmlns:xlink="http://www.w3.org/1999/xlink" 
	 viewBox="0 0 512 512" xml:space="preserve">
<g transform="translate(1 1)">
	<g>
		<path style="fill:#FFDD09;" d="M127,502.467H41.667V485.4c0-9.387,7.68-17.067,17.067-17.067h51.2
			c9.387,0,17.067,7.68,17.067,17.067V502.467z"/>
		<path style="fill:#FFDD09;" d="M297.667,502.467h-85.333V485.4c0-9.387,7.68-17.067,17.067-17.067h51.2
			c9.387,0,17.067,7.68,17.067,17.067V502.467z"/>
		<path style="fill:#FFDD09;" d="M383,502.467h85.333V485.4c0-9.387-7.68-17.067-17.067-17.067h-51.2
			c-9.387,0-17.067,7.68-17.067,17.067V502.467z"/>
	</g>
	<path style="fill:#FD9808;" d="M383,75.8h-85.333V58.733c0-9.387,7.68-17.067,17.067-17.067h51.2
		c9.387,0,17.067,7.68,17.067,17.067V75.8z"/>
	<path style="fill:#FFDD09;" d="M357.4,75.8H152.6V58.733c0-9.387,7.68-17.067,17.067-17.067h170.667
		c9.387,0,17.067,7.68,17.067,17.067V75.8z"/>
	<path style="fill:#FD9808;" d="M391.533,365.933h-102.4c-23.893,0-42.667-18.773-42.667-42.667v-204.8
		c0-23.893,18.773-42.667,42.667-42.667h102.4c23.893,0,42.667,18.773,42.667,42.667v204.8
		C434.2,347.16,415.427,365.933,391.533,365.933"/>
	<path style="fill:#FFFFFF;" d="M220.867,365.933h-102.4c-23.893,0-42.667-18.773-42.667-42.667v-204.8
		c0-23.893,18.773-42.667,42.667-42.667h102.4c23.893,0,42.667,18.773,42.667,42.667v204.8
		C263.533,347.16,244.76,365.933,220.867,365.933"/>
	<path style="fill:#FFDD09;" d="M365.933,365.933H144.067c-23.893,0-42.667-18.773-42.667-42.667v-204.8
		c0-23.893,18.773-42.667,42.667-42.667h221.867c23.893,0,42.667,18.773,42.667,42.667v204.8
		C408.6,347.16,389.827,365.933,365.933,365.933"/>
	<g>
		<path style="fill:#1CD759;" d="M178.2,280.6h-76.8V161.133h76.8c9.387,0,17.067,7.68,17.067,17.067v85.333
			C195.267,272.92,187.587,280.6,178.2,280.6"/>
		<path style="fill:#1CD759;" d="M383,195.267c0-18.773-15.36-34.133-34.133-34.133c-18.773,0-34.133,15.36-34.133,34.133
			s15.36,34.133,34.133,34.133C367.64,229.4,383,214.04,383,195.267"/>
	</g>
	
		<rect x="58.727" y="408.587" transform="matrix(-0.5998 0.8001 -0.8001 -0.5998 530.0879 569.1234)" width="127.995" height="17.066"/>
	<path d="M127,511H41.667c-5.12,0-8.533-3.413-8.533-8.533V485.4c0-14.507,11.093-25.6,25.6-25.6h51.2
		c14.507,0,25.6,11.093,25.6,25.6v17.067C135.533,507.587,132.12,511,127,511z M50.2,493.933h68.267V485.4
		c0-5.12-3.413-8.533-8.533-8.533h-51.2c-5.12,0-8.533,3.413-8.533,8.533V493.933z"/>
	<path d="M297.667,511h-85.333c-5.12,0-8.533-3.413-8.533-8.533V485.4c0-14.507,11.093-25.6,25.6-25.6h51.2
		c14.507,0,25.6,11.093,25.6,25.6v17.067C306.2,507.587,302.787,511,297.667,511z M220.867,493.933h68.267V485.4
		c0-5.12-3.413-8.533-8.533-8.533h-51.2c-5.12,0-8.533,3.413-8.533,8.533V493.933z"/>
	<rect x="378.733" y="353.133" transform="matrix(-0.8 0.6 -0.6 -0.8 947.36 518.48)" width="17.067" height="128"/>
	<path d="M468.333,511H383c-5.12,0-8.533-3.413-8.533-8.533V485.4c0-14.507,11.093-25.6,25.6-25.6h51.2
		c14.507,0,25.6,11.093,25.6,25.6v17.067C476.867,507.587,473.453,511,468.333,511z M391.533,493.933H459.8V485.4
		c0-5.12-3.413-8.533-8.533-8.533h-51.2c-5.12,0-8.533,3.413-8.533,8.533V493.933z"/>
	<rect x="246.467" y="365.933" width="17.067" height="102.4"/>
	<path d="M391.533,374.467H118.467c-28.16,0-51.2-23.04-51.2-51.2v-204.8c0-28.16,23.04-51.2,51.2-51.2h273.067
		c28.16,0,51.2,23.04,51.2,51.2v204.8C442.733,351.427,419.693,374.467,391.533,374.467z M118.467,84.333
		c-18.773,0-34.133,15.36-34.133,34.133v204.8c0,18.773,15.36,34.133,34.133,34.133h273.067c18.773,0,34.133-15.36,34.133-34.133
		v-204.8c0-18.773-15.36-34.133-34.133-34.133H118.467z"/>
	<path d="M383,84.333H127c-5.12,0-8.533-3.413-8.533-8.533V58.733c0-14.507,11.093-25.6,25.6-25.6h221.867
		c14.507,0,25.6,11.093,25.6,25.6V75.8C391.533,80.92,388.12,84.333,383,84.333z M135.533,67.267h238.933v-8.533
		c0-5.12-3.413-8.533-8.533-8.533H144.067c-5.12,0-8.533,3.413-8.533,8.533V67.267z"/>
	<path d="M178.2,50.2c-5.12,0-8.533-3.413-8.533-8.533V7.533c0-5.12,3.413-8.533,8.533-8.533c5.12,0,8.533,3.413,8.533,8.533v34.133
		C186.733,46.787,183.32,50.2,178.2,50.2z"/>
	<path d="M212.333,50.2c-5.12,0-8.533-3.413-8.533-8.533V24.6c0-5.12,3.413-8.533,8.533-8.533c5.12,0,8.533,3.413,8.533,8.533
		v17.067C220.867,46.787,217.453,50.2,212.333,50.2z"/>
	<path d="M178.2,289.133H75.8c-5.12,0-8.533-3.413-8.533-8.533V161.133c0-5.12,3.413-8.533,8.533-8.533h102.4
		c14.507,0,25.6,11.093,25.6,25.6v85.333C203.8,278.04,192.707,289.133,178.2,289.133z M84.333,272.067H178.2
		c5.12,0,8.533-3.413,8.533-8.533V178.2c0-5.12-3.413-8.533-8.533-8.533H84.333V272.067z"/>
	<path d="M144.067,127H75.8c-5.12,0-8.533-3.413-8.533-8.533s3.413-8.533,8.533-8.533h68.267c5.12,0,8.533,3.413,8.533,8.533
		S149.187,127,144.067,127z"/>
	<path d="M255,127h-59.733c-5.12,0-8.533-3.413-8.533-8.533s3.413-8.533,8.533-8.533H255c5.12,0,8.533,3.413,8.533,8.533
		S260.12,127,255,127z"/>
	<path d="M331.8,127h-25.6c-5.12,0-8.533-3.413-8.533-8.533s3.413-8.533,8.533-8.533h25.6c5.12,0,8.533,3.413,8.533,8.533
		S336.92,127,331.8,127z"/>
	<path d="M434.2,127h-34.133c-5.12,0-8.533-3.413-8.533-8.533s3.413-8.533,8.533-8.533H434.2c5.12,0,8.533,3.413,8.533,8.533
		S439.32,127,434.2,127z"/>
	<path d="M374.467,118.467c0-5.12-3.413-8.533-8.533-8.533s-8.533,3.413-8.533,8.533s3.413,8.533,8.533,8.533
		S374.467,123.587,374.467,118.467"/>
	<path d="M434.2,331.8h-42.667c-5.12,0-8.533-3.413-8.533-8.533c0-5.12,3.413-8.533,8.533-8.533H434.2
		c5.12,0,8.533,3.413,8.533,8.533C442.733,328.387,439.32,331.8,434.2,331.8z"/>
	<path d="M340.333,331.8H280.6c-5.12,0-8.533-3.413-8.533-8.533c0-5.12,3.413-8.533,8.533-8.533h59.733
		c5.12,0,8.533,3.413,8.533,8.533C348.867,328.387,345.453,331.8,340.333,331.8z"/>
	<path d="M237.933,331.8h-42.667c-5.12,0-8.533-3.413-8.533-8.533c0-5.12,3.413-8.533,8.533-8.533h42.667
		c5.12,0,8.533,3.413,8.533,8.533C246.467,328.387,243.053,331.8,237.933,331.8z"/>
	<path d="M127,331.8H75.8c-5.12,0-8.533-3.413-8.533-8.533c0-5.12,3.413-8.533,8.533-8.533H127c5.12,0,8.533,3.413,8.533,8.533
		C135.533,328.387,132.12,331.8,127,331.8z"/>
	<path d="M152.6,323.267c0,5.12,3.413,8.533,8.533,8.533c5.12,0,8.533-3.413,8.533-8.533c0-5.12-3.413-8.533-8.533-8.533
		C156.013,314.733,152.6,318.147,152.6,323.267"/>
	<path d="M314.733,203.8h-51.2c-5.12,0-8.533-3.413-8.533-8.533c0-5.12,3.413-8.533,8.533-8.533h51.2
		c5.12,0,8.533,3.413,8.533,8.533C323.267,200.387,319.853,203.8,314.733,203.8z"/>
	<path d="M434.2,203.8H383c-5.12,0-8.533-3.413-8.533-8.533c0-5.12,3.413-8.533,8.533-8.533h51.2c5.12,0,8.533,3.413,8.533,8.533
		C442.733,200.387,439.32,203.8,434.2,203.8z"/>
	<path d="M348.867,237.933c-23.893,0-42.667-18.773-42.667-42.667s18.773-42.667,42.667-42.667
		c23.893,0,42.667,18.773,42.667,42.667S372.76,237.933,348.867,237.933z M348.867,169.667c-14.507,0-25.6,11.093-25.6,25.6
		s11.093,25.6,25.6,25.6c14.507,0,25.6-11.093,25.6-25.6S363.373,169.667,348.867,169.667z"/>
</g>
</svg>