<?xml version="1.0" standalone="no"?><!DOCTYPE svg PUBLIC "-//W3C//DTD SVG 1.1//EN" "http://www.w3.org/Graphics/SVG/1.1/DTD/svg11.dtd"><svg t="1723891960483" class="icon" viewBox="0 0 1024 1024" version="1.1" xmlns="http://www.w3.org/2000/svg" p-id="258519" xmlns:xlink="http://www.w3.org/1999/xlink" width="256" height="256"><path d="M891.733333 115.2H132.266667C81.066667 115.2 42.666667 157.866667 42.666667 204.8v460.8c0 51.2 38.4 89.6 89.6 89.6h349.866666v93.866667H243.2c-17.066667 0-29.866667 12.8-29.866667 29.866666 0 17.066667 12.8 29.866667 29.866667 29.866667h541.866667c17.066667 0 29.866667-12.8 29.866666-29.866667 0-17.066667-12.8-29.866667-29.866666-29.866666h-238.933334v-93.866667H896c25.6 0 46.933333-8.533333 64-25.6 17.066667-17.066667 25.6-38.4 25.6-64V204.8c0-25.6-8.533333-46.933333-25.6-64-21.333333-17.066667-46.933333-25.6-68.266667-25.6z m29.866667 550.4c0 8.533333-4.266667 17.066667-8.533333 21.333333-4.266667 4.266667-12.8 8.533333-21.333334 8.533334H132.266667c-17.066667 0-29.866667-12.8-29.866667-29.866667V204.8c0-8.533333 4.266667-17.066667 8.533333-21.333333 4.266667-4.266667 12.8-8.533333 21.333334-8.533334h759.466666c8.533333 0 17.066667 4.266667 21.333334 8.533334 4.266667 4.266667 8.533333 12.8 8.533333 21.333333v460.8z m0 0" fill="#7030AB" p-id="258520"></path><path d="M371.2 204.8c-17.066667 0-29.866667 4.266667-46.933333 8.533333-4.266667 4.266667-8.533333 17.066667 0 21.333334l46.933333 46.933333-17.066667 17.066667-46.933333-46.933334c-4.266667 0-8.533333-4.266667-12.8-4.266666-4.266667 0-8.533333 4.266667-12.8 8.533333-17.066667 38.4-12.8 81.066667 21.333333 115.2 21.333333 21.333333 42.666667 29.866667 68.266667 29.866667 12.8 0 21.333333 0 29.866667-4.266667l153.6 153.6c-12.8 34.133333-4.266667 72.533333 21.333333 102.4 21.333333 21.333333 42.666667 29.866667 68.266667 29.866667 17.066667 0 29.866667-4.266667 42.666666-8.533334 8.533333-4.266667 12.8-17.066667 4.266667-21.333333L644.266667 597.333333l17.066666-17.066666 46.933334 46.933333c4.266667 4.266667 4.266667 4.266667 8.533333 4.266667s8.533333-4.266667 12.8-8.533334c17.066667-34.133333 12.8-81.066667-17.066667-110.933333-21.333333-21.333333-42.666667-29.866667-68.266666-29.866667-12.8 0-21.333333 0-34.133334 4.266667l-153.6-153.6c12.8-34.133333 4.266667-72.533333-21.333333-102.4-17.066667-17.066667-42.666667-25.6-64-25.6z m-21.333333 123.733333c8.533333 0 12.8-4.266667 21.333333-8.533333l17.066667-17.066667c12.8-12.8 12.8-29.866667 0-38.4l-34.133334-29.866666h12.8c17.066667 0 34.133333 8.533333 46.933334 21.333333 21.333333 21.333333 25.6 46.933333 17.066666 72.533333-4.266667 8.533333 0 21.333333 8.533334 29.866667l153.6 153.6c4.266667 4.266667 12.8 8.533333 21.333333 8.533333h8.533333c8.533333-8.533333 17.066667-8.533333 25.6-8.533333 17.066667 0 34.133333 8.533333 46.933334 21.333333 17.066667 17.066667 25.6 38.4 21.333333 59.733334l-34.133333-34.133334c-4.266667-4.266667-12.8-8.533333-21.333334-8.533333s-12.8 4.266667-21.333333 8.533333l-17.066667 17.066667c-4.266667 4.266667-8.533333 12.8-8.533333 21.333333s4.266667 12.8 8.533333 21.333334l29.866667 29.866666H640c-17.066667 0-34.133333-8.533333-46.933333-21.333333-21.333333-21.333333-25.6-46.933333-17.066667-72.533333 4.266667-8.533333 0-21.333333-8.533333-29.866667L422.4 375.466667c-8.533333-8.533333-12.8-8.533333-21.333333-8.533334h-8.533334c-8.533333 4.266667-17.066667 4.266667-25.6 4.266667-17.066667 0-34.133333-8.533333-46.933333-21.333333-17.066667-17.066667-25.6-38.4-21.333333-59.733334l29.866666 29.866667c8.533333 8.533333 17.066667 8.533333 21.333334 8.533333z m0 0" fill="#7030AB" p-id="258521"></path><path d="M413.866667 469.333333c-8.533333 0-12.8 4.266667-21.333334 8.533334l-98.133333 98.133333c-12.8 12.8-12.8 29.866667 0 38.4l38.4 38.4c4.266667 4.266667 12.8 8.533333 21.333333 8.533333s12.8-4.266667 21.333334-8.533333L469.333333 554.666667c12.8-12.8 12.8-29.866667 0-38.4l-38.4-38.4c-4.266667-8.533333-8.533333-8.533333-17.066666-8.533334z m-59.733334 166.4l-38.4-38.4 98.133334-98.133333 38.4 38.4-98.133334 98.133333z m337.066667-396.8l17.066667 17.066667-46.933334 46.933333-21.333333-17.066666 51.2-46.933334m0-34.133333c-4.266667 0-8.533333 0-8.533333 4.266667l-68.266667 68.266666c-4.266667 4.266667-4.266667 12.8 0 21.333334l8.533333 8.533333L554.666667 375.466667c-4.266667 4.266667-4.266667 12.8 0 21.333333 4.266667 4.266667 8.533333 4.266667 8.533333 4.266667 4.266667 0 8.533333 0 8.533333-4.266667L640 324.266667l8.533333 8.533333c4.266667 4.266667 8.533333 4.266667 8.533334 4.266667 4.266667 0 8.533333 0 8.533333-4.266667l68.266667-68.266667c4.266667-4.266667 4.266667-12.8 0-21.333333l-38.4-38.4h-4.266667z m0 0" fill="#7030AB" p-id="258522"></path></svg>