<svg t="1726839302406" class="icon" viewBox="0 0 1024 1024" version="1.1" xmlns="http://www.w3.org/2000/svg" p-id="30123" width="256" height="256"><path d="M935.105103 154.143672l-41.966606-0.683654c-0.988905 0-95.111001-1.994066-192.240453-41.214316C601.290459 71.993198 537.029686 25.772042 536.437246 25.331325L511.058057 7.09483l-25.180506 18.236495c-0.597859 0.440718-64.85231 46.661874-164.460798 86.914377-97.116808 39.213928-191.250645 41.2098-192.137498 41.2098l-42.167097 0.68817V579.272644c0 213.388574 275.769975 439.073889 424.053369 439.073889 148.370995 0 424.147292-225.684413 424.147291-439.073889l-0.207715-425.128972z m-423.94048 779.024261c-98.236664 0-338.421407-188.906172-338.421406-353.895289V235.651132c41.956672-4.522774 110.105332-15.898344 180.937132-44.475445 72.437528-29.315845 127.594955-61.220002 157.468922-80.216916 29.976921 18.992398 85.031394 50.894749 157.565554 80.216916 70.756841 28.580714 138.900083 39.952671 180.860368 44.475445v343.620609h0.004515c0 164.99002-240.196483 353.896192-338.415085 353.896192z" p-id="30124" fill="#7030AB"></path><path d="M665.381447 539.159219c-14.527423 0-27.804039 5.331057-37.996535 14.13728l-141.417953-80.80755a96.928058 96.928058 0 0 0 4.840668-30.314684c0-8.490135-1.109019-16.945048-3.307188-25.153412l98.701766-49.345916c10.466139 10.095864 24.694632 16.313774 40.381648 16.313774 32.138063 0 58.188263-26.0502 58.188263-58.185554s-26.0502-58.190972-58.188263-58.190972-58.190069 26.055619-58.190069 58.190972c0 2.430268 0.167978 4.824412 0.45607 7.179723l-98.706281 49.350431c-17.757847-22.611158-45.343333-37.137678-76.326319-37.137678-53.561632 0-96.984954 43.421516-96.984954 96.978632 0 41.315464 25.839776 76.586415 62.229679 90.559328l-14.151729 84.900443c-27.311844 4.790094-48.077047 28.610516-48.077047 57.294184 0 32.136257 26.057425 58.191876 58.194585 58.191876s58.189166-26.055619 58.189166-58.191876c0-21.922989-12.132376-41.005697-30.036526-50.925454l14.152633-84.91399c27.626127-0.988002 52.309922-13.524971 69.364246-32.931896l141.432402 80.812968a58.439328 58.439328 0 0 0-0.941943 10.374925c0 32.136257 26.051103 58.185554 58.190069 58.185553 32.142578 0 58.193682-26.049297 58.193682-58.185553-0.002709-32.13445-26.05291-58.185554-58.19007-58.185554z" p-id="30125" fill="#7030AB"></path></svg>