<?xml version="1.0" standalone="no"?><!DOCTYPE svg PUBLIC "-//W3C//DTD SVG 1.1//EN" "http://www.w3.org/Graphics/SVG/1.1/DTD/svg11.dtd"><svg t="1723822062884" class="icon" viewBox="0 0 1024 1024" version="1.1" xmlns="http://www.w3.org/2000/svg" p-id="118708" xmlns:xlink="http://www.w3.org/1999/xlink" width="256" height="256"><path d="M659.2 65.344a51.2 51.2 0 0 1 36.032 14.848l194.176 192.384a51.2 51.2 0 0 1 15.168 36.352v521.728a128 128 0 0 1-128 128H247.424a128 128 0 0 1-128-128V193.28a128 128 0 0 1 128-128H659.2z m-10.56 76.8H247.424a51.2 51.2 0 0 0-50.816 44.8l-0.384 6.4v637.312a51.2 51.2 0 0 0 44.8 50.752l6.4 0.448h529.152a51.2 51.2 0 0 0 50.816-44.8l0.384-6.4-0.064-511.104-179.072-177.408z" fill="#7030AB" p-id="118709"></path><path d="M302.976 441.472a110.848 110.848 0 0 1 156.8 0L512 493.76l52.224-52.288a110.848 110.848 0 1 1 2.688 159.36l27.84 1.792-0.768-11.52-29.696 7.168-14.272-13.12L512 545.984l-52.224 52.288a110.848 110.848 0 0 1-156.8-156.8z m78.4 4.48a73.6 73.6 0 0 0-73.92 73.92A73.6 73.6 0 0 0 381.44 593.792c19.776 0 38.272-7.68 52.288-21.632l52.224-52.288-52.224-52.288a73.6 73.6 0 0 0-52.288-21.632z m261.312 0c-19.776 0-38.272 7.68-52.288 21.632l-52.288 52.288c2.24 3.648 7.04 9.216 14.528 16.64 7.424 7.424 15.872 15.488 25.28 24.128l23.68 20.672c12.032 8.064 26.24 12.416 41.088 12.416a73.6 73.6 0 0 0 73.92-73.92 73.6 73.6 0 0 0-73.92-73.92z" fill="#7030AB" p-id="118710"></path><path d="M557.44 434.688a120.512 120.512 0 0 1 153.664-13.952l8.576 6.528 8.128 7.424A120.512 120.512 0 0 1 577.28 620.992l-8.704-6.144-29.952-25.6 2.112 0.128-28.864-29.76-45.312 45.44a120.512 120.512 0 0 1-153.664 13.888l-8.576-6.528-8.128-7.36a120.448 120.448 0 0 1 153.152-184.64l8.96 6.784 8.256 7.488 45.44 45.44 45.44-45.44z m-111.68 7.04a101.248 101.248 0 1 0 0 156.288l7.232-6.528 52.224-52.288 13.696 0.064 37.568 38.848 10.496 9.6 21.504-5.12-17.088-14.912-9.152-8.448c-5.888-5.568-11.392-10.88-16.448-15.936a151.488 151.488 0 0 1-13.376-14.784L529.92 524.8l1.472-11.712 52.672-52.672 6.656-5.952c14.784-11.776 32.96-18.112 52.032-18.112a83.2 83.2 0 0 1 83.456 83.52 83.2 83.2 0 0 1-83.456 83.456c-9.984 0-19.84-1.728-29.184-5.312l-9.728-4.48 1.344 19.392-2.624-0.192 4.032 1.728a101.376 101.376 0 0 0 92.224-10.24l8-5.952 7.552-6.784a101.312 101.312 0 0 0-136.064-149.76l-7.232 6.528-52.16 52.288h-13.632l-51.904-51.968-7.552-6.848z m-64.384-5.376c19.072 0 37.248 6.4 51.968 18.112l7.04 6.4 52.352 52.224v13.568l-52.672 52.672-6.72 5.888c-14.72 11.84-32.896 18.112-51.968 18.112a83.2 83.2 0 0 1-83.52-83.456A83.2 83.2 0 0 1 381.44 436.352z m0 19.2a64 64 0 0 0-64.32 64.32A64 64 0 0 0 381.44 584.192c11.776 0 23.04-3.2 32.64-8.832l6.976-4.8 5.888-5.184 45.44-45.504-45.44-45.44a64 64 0 0 0-36.992-18.304l-8.512-0.576z m261.312 0c-11.776 0-23.04 3.136-32.704 8.832l-6.912 4.736-5.888 5.248-46.336 46.336 3.84 4.16 4.736 4.864 15.936 15.424 8.896 8.32 22.72 19.84c10.496 7.04 22.848 10.88 35.712 10.88a64 64 0 0 0 64.32-64.32 64 64 0 0 0-64.32-64.32z" fill="#7030AB" p-id="118711"></path></svg>