<?xml version="1.0" standalone="no"?><!DOCTYPE svg PUBLIC "-//W3C//DTD SVG 1.1//EN" "http://www.w3.org/Graphics/SVG/1.1/DTD/svg11.dtd"><svg t="1723822257665" class="icon" viewBox="0 0 1024 1024" version="1.1" xmlns="http://www.w3.org/2000/svg" p-id="123367" xmlns:xlink="http://www.w3.org/1999/xlink" width="256" height="256"><path d="M844.208 643.392c-15.808-8.288-35.408-1.888-43.6 13.92a326.32 326.32 0 0 1-211.104 167.392C574.8 798.608 547.2 780.8 515.2 780.8c-47.2 0-85.6 38.4-85.6 85.6 0 47.2 38.4 85.6 85.6 85.6 39.104 0 71.808-26.608 82-62.496 112.704-26 207.504-99.104 260.896-202.608 8.304-15.696 2-35.296-13.888-43.488zM515.296 887.296a20.784 20.784 0 1 1 0-41.6 20.784 20.784 0 1 1 0 41.6zM377.92 808.32a328.576 328.576 0 0 1-188.208-224.704c26.896-14.4 45.504-42.496 45.504-75.2 0-47.2-38.4-85.6-85.6-85.6-47.2 0-85.6 38.4-85.6 85.6 0 38.304 25.504 70.496 60.304 81.296a393.6 393.6 0 0 0 227.792 277.904 32.384 32.384 0 0 0 42.592-16.8 32.24 32.24 0 0 0-16.8-42.496zM149.6 529.28a20.784 20.784 0 1 1 0-41.6 20.784 20.784 0 1 1 0 41.6z m18.192-145.104c4.4 2.112 9.12 3.104 13.6 3.104 12.208 0 23.904-6.992 29.408-18.704 41.504-88.992 121.696-154.8 216-179.088 3.2 6 6.896 11.792 11.6 17.088a85.632 85.632 0 0 0 59.104 28.4c1.6 0 3.2 0.112 4.688 0.112a85.696 85.696 0 0 0 85.408-80.912 85.632 85.632 0 0 0-80.8-90.08C466.8 62.88 432 88 420.704 124.288c-117.408 26.8-217.6 107.296-268.704 217.088-7.504 15.904-0.496 35.2 15.792 42.8z m313.6-236a20.832 20.832 0 0 1 20.8-19.6h1.12c11.488 0.608 20.288 10.4 19.584 21.92-0.592 11.392-10.4 21.184-21.904 19.584a20.592 20.592 0 0 1-14.4-6.896 20.896 20.896 0 0 1-5.2-15.008zM895.52 442.192c-21.2-126.192-103.2-236.4-220.208-291.296a32.512 32.512 0 0 0-43.104 15.6 32.416 32.416 0 0 0 15.6 43.104c97.312 45.6 165.6 136.896 183.712 241.6-25.408 14.896-42.704 42.096-42.704 73.6 0 47.2 38.4 85.6 85.6 85.6 47.2 0 85.6-38.4 85.6-85.6 0-39.904-27.504-73.2-64.496-82.608zM874.4 545.6a20.784 20.784 0 1 1 0-41.6 20.784 20.784 0 1 1 0 41.6z m-274.304-70.4l80.208-98.496-88.608-92.112-35.904 34.512 30.912 32.096H399.808a99.328 99.328 0 0 0-99.2 99.296c0 54.496 44.192 98.8 98.592 99.2v0.208h218.304c18.992 0 34.496 15.392 34.496 34.4a34.56 34.56 0 0 1-34.496 34.496H447.296c-11.6-22.496-34.8-38.208-61.792-38.208a69.84 69.84 0 0 0-69.808 69.712 69.856 69.856 0 0 0 69.808 69.792c26.4 0 49.104-14.896 60.992-36.496H617.6c54.704 0 99.2-44.496 99.2-99.296 0-54.512-44.192-98.8-98.592-99.2v-0.208h-218.4a34.48 34.48 0 0 1-34.512-34.4A34.56 34.56 0 0 1 399.808 416H584l-22.496 27.696 38.592 31.504zM385.392 670.192a19.968 19.968 0 0 1-19.888-20 19.888 19.888 0 1 1 39.792 0 19.84 19.84 0 0 1-19.904 20z" fill="#7030AB" p-id="123368"></path></svg>