<?xml version="1.0" standalone="no"?><!DOCTYPE svg PUBLIC "-//W3C//DTD SVG 1.1//EN" "http://www.w3.org/Graphics/SVG/1.1/DTD/svg11.dtd"><svg t="1723819034538" class="icon" viewBox="0 0 1024 1024" version="1.1" xmlns="http://www.w3.org/2000/svg" p-id="24153" xmlns:xlink="http://www.w3.org/1999/xlink" width="200" height="200"><path d="M945.152 572.16c-6.4-12.8-12.8-19.2-25.152-19.2s-18.816 0-25.152 6.4L825.6 629.312l-44.032-44.416 69.184-69.888c6.4-6.4 12.8-19.2 6.4-25.6 0-12.8-6.4-19.2-18.88-25.6a203.072 203.072 0 0 0-226.432 44.8 200.192 200.192 0 0 0-50.304 209.536l-87.936 88.96a81.856 81.856 0 0 0-25.152 63.488A97.536 97.536 0 0 0 473.6 934.4a80.32 80.32 0 0 0 62.912 25.6 95.552 95.552 0 0 0 62.912-25.6l100.608-101.568a30.912 30.912 0 0 0 0-44.48 30.272 30.272 0 0 0-44.032 0L555.264 889.6a30.272 30.272 0 0 1-44.032 0 32 32 0 0 1 0-38.4L611.84 749.952a39.168 39.168 0 0 0 6.4-38.4 137.408 137.408 0 0 1 31.488-158.784 119.936 119.936 0 0 1 106.88-38.08l-43.968 50.816c-6.4 6.4-6.4 12.8-6.4 25.6s0 12.8 6.4 19.2l88 88.896a30.144 30.144 0 0 0 44.032 0l50.304-50.752a173.376 173.376 0 0 1-37.696 107.904 124.224 124.224 0 0 1-81.792 38.4 27.904 27.904 0 0 0-25.152 38.08c6.4 19.2 18.88 32 37.76 25.6a194.88 194.88 0 0 0 113.216-57.152 217.6 217.6 0 0 0 43.84-229.12z" p-id="24154" fill="#7030AB"></path><path d="M128 512a384 384 0 0 1 732.864-160.704 32 32 0 1 0 58.112-26.816 448 448 0 1 0-661.312 556.352 32 32 0 0 0 18.176 5.696 32 32 0 0 0 18.176-58.368A384.32 384.32 0 0 1 128 512z" p-id="24155" fill="#7030AB"></path><path d="M256 512a256 256 0 0 1 437.056-181.056 32 32 0 1 0 45.248-45.248A320 320 0 1 0 332.8 777.344a32 32 0 0 0 35.84-53.056A256 256 0 0 1 256 512z" p-id="24156" fill="#7030AB"></path><path d="M441.6 619.072A128 128 0 0 1 512 384a126.528 126.528 0 0 1 59.264 14.464 32 32 0 1 0 29.696-56.704 192 192 0 0 0-194.496 330.816A32 32 0 0 0 424 677.824a32 32 0 0 0 17.6-58.752z" p-id="24157" fill="#7030AB"></path></svg>