<?xml version="1.0" standalone="no"?><!DOCTYPE svg PUBLIC "-//W3C//DTD SVG 1.1//EN" "http://www.w3.org/Graphics/SVG/1.1/DTD/svg11.dtd"><svg t="1723889061674" class="icon" viewBox="0 0 1024 1024" version="1.1" xmlns="http://www.w3.org/2000/svg" p-id="209671" xmlns:xlink="http://www.w3.org/1999/xlink" width="256" height="256"><path d="M879.381 687.988H527.286c-9.088 0-16.455 7.275-16.455 16.25v239.071c0 8.974 7.367 16.25 16.455 16.25h352.095c9.088 0 16.455-7.275 16.455-16.25V704.238c0-8.975-7.367-16.25-16.455-16.25z m-65.759 213.946H593.044c-15.228 0-27.572-12.344-27.572-27.572s12.344-27.572 27.572-27.572h220.578c15.228 0 27.572 12.345 27.572 27.572s-12.344 27.572-27.572 27.572z m0-101.177H593.044c-15.228 0-27.572-12.345-27.572-27.572 0-15.228 12.344-27.572 27.572-27.572h220.578c15.228 0 27.572 12.345 27.572 27.572 0.001 15.227-12.344 27.572-27.572 27.572z" p-id="209672" fill="#7030AB"></path><path d="M840.132 628.691H454.781a4.557 4.557 0 0 0-4.557 4.557V955a4.557 4.557 0 0 1-4.557 4.557H71.675c-2.31 0-4.268-1.725-4.533-4.02a444.512 444.512 0 0 1-2.413-29.559c-12.461-258.88 201.553-473.744 460.479-462.283 127.799 5.657 241.466 65.687 318.43 157.522 2.482 2.96 0.356 7.474-3.506 7.474z" p-id="209673" fill="#7030AB"></path><path d="M283.291 284.446a220.578 220.578 0 1 0 441.156 0 220.578 220.578 0 1 0-441.156 0z" p-id="209674" fill="#7030AB"></path></svg>