<svg width="221.350006" height="144.350006" viewBox="0 0 221.35 144.35" fill="none" xmlns="http://www.w3.org/2000/svg" xmlns:xlink="http://www.w3.org/1999/xlink">
	<desc>
			Created with Pixso.
	</desc>
	<defs/>
	<path id="path" d="M110.67 93.07C128.7 83.5 139.07 62.9 139.07 42.35L139.05 40.59C134.85 39.2 131.62 35.57 130.64 31.15L90.7 31.15C89.72 35.55 86.5 39.2 82.32 40.59L82.27 42.35C82.3 62.9 92.65 83.5 110.67 93.07ZM111.92 98.72C111.17 99.1 110.3 99.15 109.47 98.72C88.9 88.55 76.8 65.47 76.8 42.35C76.8 41.85 76.82 41.12 76.85 40.25C76.87 39.5 76.9 38.8 76.92 38.25C76.97 36.9 78.02 35.67 79.37 35.5C82.85 35.07 85.5 32.02 85.52 28.45L85.52 28.37C85.52 26.8 86.72 25.52 88.25 25.52L133.12 25.52C134.64 25.52 135.85 26.8 135.85 28.37C135.85 32 138.5 35.07 142 35.5C143.3 35.67 144.32 36.77 144.45 38.12C144.5 38.72 144.5 39.45 144.52 40.25C144.57 41.12 144.57 41.85 144.57 42.35C144.57 65.47 132.5 88.52 111.92 98.72Z" fill="#7030AB" fill-opacity="1.000000" fill-rule="nonzero"/>
	<path id="path" d="M105.8 72.57L94.05 62.05C93.62 61.67 93.57 61.02 93.97 60.57L96.27 58C96.65 57.57 97.32 57.52 97.75 57.92L105.5 64.85L123.35 46.05C123.8 45.57 124.52 45.57 125 46L127.32 48.2C127.8 48.65 127.8 49.37 127.37 49.85L105.8 72.57Z" fill="#7030AB" fill-opacity="1.000000" fill-rule="nonzero"/>
	<path id="path" d="M27.17 0L194.17 0C198.02 0 201.2 3.1 201.2 6.92L201.2 117.5C201.2 121.3 198.02 124.42 194.17 124.42L27.17 124.42C23.32 124.42 20.15 121.32 20.15 117.5L20.15 6.89C20.17 3.1 23.35 0 27.17 0ZM6.92 144.35C3.07 144.35 0 141.3 0 137.32C0 133.52 3.07 130.39 6.92 130.39L214.42 130.39C218.17 130.39 221.35 133.52 221.35 137.32C221.35 141.27 218.17 144.35 214.42 144.35L6.92 144.35ZM187.25 13.92L34.09 13.92L34.09 110.47L187.25 110.47L187.25 13.92Z" fill="#7030AB" fill-opacity="1.000000" fill-rule="nonzero"/>
</svg>
