<?xml version="1.0" standalone="no"?><!DOCTYPE svg PUBLIC "-//W3C//DTD SVG 1.1//EN" "http://www.w3.org/Graphics/SVG/1.1/DTD/svg11.dtd"><svg t="1723888851123" class="icon" viewBox="0 0 1029 1024" version="1.1" xmlns="http://www.w3.org/2000/svg" p-id="205024" xmlns:xlink="http://www.w3.org/1999/xlink" width="257.25" height="256"><path d="M939.0648 497.932608V159.253499c0-98.73717-198.005184-159.253499-450.687402-159.253499h-37.689995C197.474339 2.654225 0 61.047175 0 159.253499v681.074132c0 98.73717 197.474339 159.253499 453.341628 159.253499h35.03577c29.196475 0 71.664075 0 106.168999-3.18507a312.667703 312.667703 0 0 0 125.810264 27.073095 309.482633 309.482633 0 0 0 220.831519-526.067392zM81.219285 159.253499s3.18507-5.839295 14.86366-14.332815a268.076724 268.076724 0 0 1 81.219284-31.8507 1050.54225 1050.54225 0 0 1 293.557284-35.035769 1156.711249 1156.711249 0 0 1 290.903058 35.035769 273.916019 273.916019 0 0 1 81.219285 31.8507c8.49352 5.839295 14.332815 11.67859 14.332815 14.332815v5.839295a44.59098 44.59098 0 0 1-11.67859 9.024365 265.422499 265.422499 0 0 1-81.219285 31.8507 240.472784 240.472784 0 0 1-46.71436 11.67859 1332.420943 1332.420943 0 0 1-206.498703 23.35718H429.984448a1332.420943 1332.420943 0 0 1-205.967859-23.35718c-17.517885-3.18507-32.381545-9.024365-46.71436-11.67859a299.396579 299.396579 0 0 1-81.219284-31.8507c-5.839295-5.839295-9.024365-9.024365-11.67859-9.024365l-3.18507-2.654225z m-8.49352 96.61379a944.904095 944.904095 0 0 0 371.591498 63.701399h40.34422a888.634526 888.634526 0 0 0 371.591498-63.701399v183.141524A307.359253 307.359253 0 0 0 517.573872 477.760498h-46.714359a1184.846034 1184.846034 0 0 1-293.557284-35.03577 299.396579 299.396579 0 0 1-81.219284-31.8507 87.05858 87.05858 0 0 0-23.35718-11.67859z m337.086573 441.132193a1120.61379 1120.61379 0 0 1-232.510109-31.319855 268.076724 268.076724 0 0 1-81.219284-31.8507 100.86055 100.86055 0 0 1-14.86366-11.67859V496.870918a884.918611 884.918611 0 0 0 371.591498 64.232244 310.013478 310.013478 0 0 0-42.998445 135.89632z m61.047175 224.547434a1184.846034 1184.846034 0 0 1-293.557284-35.03577 268.076724 268.076724 0 0 1-81.219284-31.8507 100.86055 100.86055 0 0 1-14.86366-11.67859l3.18507-5.839295v-122.094349a849.351996 849.351996 0 0 0 331.247278 63.701399 314.260238 314.260238 0 0 0 73.25661 142.797305z m247.373768 38.751684a245.781234 245.781234 0 1 1 245.781234-245.781233 245.781234 245.781234 0 0 1-245.781234 245.781233z" fill="#7030AB" p-id="205025"></path><path d="M719.825816 857.314671a34.504925 34.504925 0 0 1-34.504924-34.504925v-219.238984a35.03577 35.03577 0 0 1 34.504924-34.504925 35.03577 35.03577 0 0 1 34.504925 34.504925v219.238984a35.03577 35.03577 0 0 1-34.504925 34.504925zM587.114567 804.230171a34.504925 34.504925 0 0 1-34.504925-34.504925v-113.069984a35.03577 35.03577 0 0 1 34.504925-34.504925 35.03577 35.03577 0 0 1 34.504925 34.504925v113.069984a35.03577 35.03577 0 0 1-34.504925 34.504925zM852.537066 804.230171a34.504925 34.504925 0 0 1-34.504925-34.504925v-113.069984a35.03577 35.03577 0 0 1 34.504925-34.504925 35.03577 35.03577 0 0 1 34.504925 34.504925v113.069984a35.03577 35.03577 0 0 1-34.504925 34.504925z" fill="#7030AB" p-id="205026"></path></svg>