<?xml version="1.0" standalone="no"?><!DOCTYPE svg PUBLIC "-//W3C//DTD SVG 1.1//EN" "http://www.w3.org/Graphics/SVG/1.1/DTD/svg11.dtd"><svg t="1723887281278" class="icon" viewBox="0 0 1024 1024" version="1.1" xmlns="http://www.w3.org/2000/svg" p-id="192254" xmlns:xlink="http://www.w3.org/1999/xlink" width="256" height="256"><path d="M920.448 627.882667H803.413333v-87.808c0-32.298667-26.24-58.496-58.496-58.496H536.746667V393.770667h91.136c32.298667 0 58.496-26.197333 58.496-58.496V101.12c0-32.256-26.24-58.453333-58.496-58.453333H393.770667c-32.298667 0-58.496 26.197333-58.496 58.453333v234.112c0 32.298667 26.197333 58.496 58.496 58.496h89.514666v87.765333h-206.506666c-32.341333 0-58.538667 26.24-58.538667 58.538667v87.765333H101.12C68.906667 627.84 42.666667 654.08 42.666667 686.378667v234.069333c0 32.298667 26.24 58.538667 58.496 58.538667h234.112c32.298667 0 58.496-26.24 58.496-58.538667v-234.069333c0-32.298667-26.197333-58.538667-58.496-58.538667H276.736l-0.042667-96.597333h467.754667l0.426667 96.597333h-58.496c-32.298667 0-58.496 26.24-58.496 58.538667v234.069333c0 32.298667 26.197333 58.538667 58.496 58.538667h234.069333c32.298667 0 58.538667-26.24 58.538667-58.538667v-234.069333c0-32.298667-26.24-58.496-58.538667-58.496" fill="#7030AB" p-id="192255"></path></svg>