<svg t="1726577698352" class="icon" viewBox="0 0 1024 1024" version="1.1" xmlns="http://www.w3.org/2000/svg" p-id="17148" width="256" height="256"><path d="M0 181.333333h1024v661.333334H0z" p-id="17149" data-spm-anchor-id="a313x.search_index.0.i47.58fc3a81DsQIAj" class="selected" fill="#7030AB"></path><path d="M174.933333 347.733333v309.333334c0 14.933333-12.8 25.6-25.6 25.6H104.533333c-12.8 0-23.466667-10.666667-23.466666-23.466667V347.733333c0-12.8 10.666667-23.466667 23.466666-23.466666H149.333333c12.8 0 25.6 10.666667 25.6 23.466666zM398.933333 347.733333v23.466667c0 12.8-10.666667 23.466667-23.466666 23.466667h-6.4c-12.8 0-23.466667 10.666667-23.466667 23.466666v238.933334c0 12.8-10.666667 23.466667-23.466667 23.466666H277.333333c-12.8 0-23.466667-10.666667-23.466666-23.466666V420.266667c0-12.8-10.666667-23.466667-23.466667-23.466667h-6.4c-12.8 0-23.466667-10.666667-23.466667-23.466667v-23.466666c0-12.8 10.666667-23.466667 23.466667-23.466667h155.733333c8.533333-2.133333 19.2 8.533333 19.2 21.333333zM618.666667 433.066667h-87.466667V405.333333c0-12.8-2.133333-21.333333-4.266667-23.466666s-6.4-4.266667-10.666666-4.266667c-6.4 0-10.666667 2.133333-12.8 6.4-2.133333 4.266667-4.266667 10.666667-4.266667 21.333333 0 12.8 2.133333 21.333333 4.266667 27.733334 2.133333 6.4 12.8 12.8 25.6 21.333333 40.533333 25.6 68.266667 44.8 78.933333 59.733333 10.666667 14.933333 17.066667 40.533333 17.066667 76.8 0 25.6-2.133333 44.8-8.533334 55.466667-6.4 12.8-17.066667 21.333333-34.133333 29.866667-17.066667 8.533333-36.266667 12.8-59.733333 12.8-25.6 0-46.933333-4.266667-64-14.933334-17.066667-8.533333-29.866667-21.333333-34.133334-36.266666-6.4-14.933333-8.533333-36.266667-8.533333-61.866667v-21.333333h61.866667c12.8 0 23.466667 10.666667 23.466666 23.466666v19.2c0 12.8 2.133333 21.333333 4.266667 25.6s6.4 6.4 12.8 6.4 10.666667-2.133333 12.8-6.4c2.133333-4.266667 4.266667-12.8 4.266667-21.333333 0-21.333333-2.133333-34.133333-8.533334-40.533333-6.4-6.4-21.333333-17.066667-42.666666-32-23.466667-14.933333-38.4-25.6-46.933334-34.133334-8.533333-6.4-12.8-17.066667-19.2-29.866666s-6.4-27.733333-6.4-46.933334c0-27.733333 4.266667-46.933333 10.666667-59.733333 6.4-12.8 19.2-23.466667 34.133333-29.866667s34.133333-10.666667 57.6-10.666666 44.8 4.266667 61.866667 12.8c17.066667 8.533333 27.733333 17.066667 34.133333 29.866666 6.4 12.8 8.533333 32 8.533334 59.733334v12.8zM942.933333 347.733333v309.333334c0 12.8-10.666667 23.466667-23.466666 23.466666h-32c-12.8 0-23.466667-10.666667-23.466667-23.466666V439.466667L832 661.333333c-2.133333 12.8-12.8 21.333333-23.466667 21.333334h-14.933333c-12.8 0-21.333333-8.533333-23.466667-21.333334l-32-215.466666v213.333333c0 12.8-10.666667 23.466667-23.466666 23.466667H682.666667c-12.8 0-23.466667-10.666667-23.466667-23.466667V347.733333c0-12.8 10.666667-23.466667 23.466667-23.466666h74.666666c12.8 0 21.333333 8.533333 23.466667 21.333333 2.133333 17.066667 4.266667 36.266667 8.533333 55.466667l12.8 91.733333 19.2-147.2c2.133333-12.8 12.8-21.333333 23.466667-21.333333h74.666667c12.8 0 23.466667 10.666667 23.466666 23.466666z" fill="#FFFFFF" p-id="17150"></path></svg>