<?xml version="1.0" standalone="no"?><!DOCTYPE svg PUBLIC "-//W3C//DTD SVG 1.1//EN" "http://www.w3.org/Graphics/SVG/1.1/DTD/svg11.dtd"><svg t="1723888941912" class="icon" viewBox="0 0 1024 1024" version="1.1" xmlns="http://www.w3.org/2000/svg" p-id="207114" xmlns:xlink="http://www.w3.org/1999/xlink" width="256" height="256"><path d="M945.237333 78.762667H78.762667v544.704h339.946666l22.954667 22.357333 76.117333 74.24 74.368-74.24 22.954667-22.357333h330.133333V78.762667z m0-78.762667A78.997333 78.997333 0 0 1 1024 78.762667v544.704a78.997333 78.997333 0 0 1-78.762667 78.762666H647.168l-76.138667 74.24a77.269333 77.269333 0 0 1-54.101333 21.76c-19.626667 0-39.253333-7.232-54.122667-21.76l-76.138666-74.24H78.762667A78.997333 78.997333 0 0 1 0 623.466667V78.762667A78.997333 78.997333 0 0 1 78.762667 0h866.474666z m-507.093333 938.922667a78.762667 78.762667 0 1 1 157.546667 0 78.762667 78.762667 0 0 1-157.546667 0z m-423.381333 0a78.762667 78.762667 0 1 1 157.546666 0 78.762667 78.762667 0 0 1-157.546666 0z m334.784 34.474666H260.906667a39.402667 39.402667 0 0 1 0-78.784h88.597333a39.402667 39.402667 0 0 1 0 78.784z m512-34.474666a78.762667 78.762667 0 1 1 157.525333 0 78.762667 78.762667 0 0 1-157.525333 0z m-96.021334-640h-507.093333a39.402667 39.402667 0 0 1 0-78.762667h507.093333a39.381333 39.381333 0 0 1 0 78.762667z m0 162.474666h-507.093333a39.402667 39.402667 0 0 1 0-78.784h507.093333a39.381333 39.381333 0 0 1 0 78.784z m12.330667 512h-88.618667a39.402667 39.402667 0 0 1 0-78.784h88.618667a39.402667 39.402667 0 0 1 0 78.784z" fill="#7030AB" p-id="207115"></path></svg>