<svg height="696" node-id="1" sillyvg="true" template-height="696" template-width="935" version="1.1" viewBox="0 0 935 696" width="935" xmlns="http://www.w3.org/2000/svg" xmlns:xlink="http://www.w3.org/1999/xlink"><defs node-id="295"><linearGradient gradientUnits="objectBoundingBox" id="SVGID_1_" node-id="96" spreadMethod="pad" x1="1625.6091" x2="1707.9948" y1="-918.1061" y2="-918.1061"><stop offset="0" stop-color="#93fd93"/><stop offset="0.51" stop-color="#21c2c1"/><stop offset="1" stop-color="#84f599"/></linearGradient><linearGradient gradientUnits="objectBoundingBox" id="SVGID_2_" node-id="101" spreadMethod="pad" x1="1656.4784" x2="1703.2897" y1="-892.0875" y2="-949.4793"><stop offset="0" stop-color="#93fd93"/><stop offset="0.51" stop-color="#21c2c1"/><stop offset="1" stop-color="#84f599"/></linearGradient><linearGradient gradientUnits="objectBoundingBox" id="SVGID_3_" node-id="106" spreadMethod="pad" x1="1710.3809" x2="1774.737" y1="-956.9851" y2="-907.1899"><stop offset="0" stop-color="#93fd93"/><stop offset="0.51" stop-color="#21c2c1"/><stop offset="1" stop-color="#84f599"/></linearGradient><linearGradient gradientUnits="objectBoundingBox" id="SVGID_4_" node-id="111" spreadMethod="pad" x1="1726.5596" x2="1671.2838" y1="-931.696" y2="-861.72"><stop offset="0" stop-color="#93fd93"/><stop offset="0.51" stop-color="#21c2c1"/><stop offset="1" stop-color="#84f599"/></linearGradient><linearGradient gradientUnits="objectBoundingBox" id="SVGID_5_" node-id="116" spreadMethod="pad" x1="1671.984" x2="1710.8754" y1="-888.3323" y2="-888.3323"><stop offset="0" stop-color="#93fd93"/><stop offset="0.51" stop-color="#21c2c1"/><stop offset="1" stop-color="#84f599"/></linearGradient><linearGradient gradientUnits="objectBoundingBox" id="SVGID_6_" node-id="121" spreadMethod="pad" x1="1707.5419" x2="1749.6709" y1="-951.8732" y2="-890.9457"><stop offset="0" stop-color="#93fd93"/><stop offset="0.51" stop-color="#21c2c1"/><stop offset="1" stop-color="#84f599"/></linearGradient><linearGradient gradientUnits="objectBoundingBox" id="SVGID_7_" node-id="126" spreadMethod="pad" x1="1683.2542" x2="1743.2793" y1="-967.6188" y2="-967.6188"><stop offset="0.0006880928" stop-color="#58caea"/><stop offset="0.9992" stop-color="#4b45bd"/></linearGradient><linearGradient gradientUnits="objectBoundingBox" id="SVGID_8_" node-id="134" spreadMethod="pad" x1="192.4434" x2="289.2537" y1="582.026" y2="582.026"><stop offset="0" stop-color="#4f68ca"/><stop offset="1" stop-color="#5aceed"/></linearGradient><linearGradient gradientUnits="objectBoundingBox" id="SVGID_9_" node-id="138" spreadMethod="pad" x1="169.999" x2="301.4193" y1="361.2402" y2="361.2402"><stop offset="0" stop-color="#f87b58"/><stop offset="0.00000011920929" stop-color="#f87b58"/><stop offset="0.41" stop-color="#f89453"/><stop offset="0.71" stop-color="#f8c548"/><stop offset="1" stop-color="#f89c51"/></linearGradient><linearGradient gradientUnits="objectBoundingBox" id="SVGID_10_" node-id="145" spreadMethod="pad" x1="164.787" x2="303.6986" y1="408.1531" y2="408.1531"><stop offset="0" stop-color="#e1a1ed"/><stop offset="1" stop-color="#7658f4"/></linearGradient><linearGradient gradientUnits="objectBoundingBox" id="SVGID_11_" node-id="149" spreadMethod="pad" x1="216.5845" x2="262.8274" y1="275.9377" y2="275.9377"><stop offset="0" stop-color="#5aceed"/><stop offset="0.55" stop-color="#4f68ca"/><stop offset="1" stop-color="#5282d3"/></linearGradient><linearGradient gradientUnits="objectBoundingBox" id="SVGID_18_" node-id="189" spreadMethod="pad" x1="526.8295" x2="624.3043" y1="877.6448" y2="877.6448"><stop offset="0" stop-color="#cd94ef"/><stop offset="1" stop-color="#7d5df5"/></linearGradient><linearGradient gradientUnits="objectBoundingBox" id="SVGID_19_" node-id="194" spreadMethod="pad" x1="1162.6687" x2="1210.0947" y1="1329.8373" y2="1329.8373"><stop offset="0" stop-color="#7a5bf5"/><stop offset="1" stop-color="#8260f4"/></linearGradient><linearGradient gradientUnits="objectBoundingBox" id="SVGID_20_" node-id="198" spreadMethod="pad" x1="1208.7162" x2="1306.1909" y1="1300.4363" y2="1300.4363"><stop offset="0" stop-color="#7a5bf5"/><stop offset="0.71" stop-color="#8260f4"/></linearGradient><linearGradient gradientUnits="objectBoundingBox" id="SVGID_21_" node-id="205" spreadMethod="pad" x1="1465.3856" x2="1476.4899" y1="1247.8904" y2="1247.8904"><stop offset="0" stop-color="#58caea"/><stop offset="1" stop-color="#4c4cbf"/></linearGradient><linearGradient gradientUnits="objectBoundingBox" id="SVGID_22_" node-id="219" spreadMethod="pad" x1="1480.5219" x2="1486.6023" y1="1260.1307" y2="1260.1307"><stop offset="0" stop-color="#58caea"/><stop offset="1" stop-color="#4c4cbf"/></linearGradient><linearGradient gradientUnits="objectBoundingBox" id="SVGID_23_" node-id="223" spreadMethod="pad" x1="685.6432" x2="725.9604" y1="846.3814" y2="846.3814"><stop offset="0" stop-color="#4c4fc0"/><stop offset="1" stop-color="#58caea"/></linearGradient><linearGradient gradientUnits="objectBoundingBox" id="SVGID_24_" node-id="227" spreadMethod="pad" x1="696.2399" x2="699.5172" y1="841.6005" y2="841.6005"><stop offset="0" stop-color="#4d54c2"/><stop offset="1" stop-color="#4c4cbf"/></linearGradient><linearGradient gradientUnits="objectBoundingBox" id="SVGID_25_" node-id="231" spreadMethod="pad" x1="714.6634" x2="717.496" y1="841.6454" y2="841.6454"><stop offset="0" stop-color="#4d54c2"/><stop offset="1" stop-color="#4c4cbf"/></linearGradient><linearGradient gradientUnits="objectBoundingBox" id="SVGID_27_" node-id="251" spreadMethod="pad" x1="1246.2596" x2="1290.719" y1="1066.2048" y2="1066.2048"><stop offset="0" stop-color="#4b46bd"/><stop offset="1" stop-color="#5cd4ee"/></linearGradient><linearGradient gradientUnits="objectBoundingBox" id="SVGID_28_" node-id="262" spreadMethod="pad" x1="1247.8246" x2="1293.2562" y1="1071.6229" y2="1071.6229"><stop offset="0" stop-color="#7d5df5"/><stop offset="1" stop-color="#cd94ef"/></linearGradient><linearGradient gradientUnits="objectBoundingBox" id="SVGID_29_" node-id="274" spreadMethod="pad" x1="544.0267" x2="568.8185" y1="665.6865" y2="634.7535"><stop offset="0" stop-color="#4b46bd"/><stop offset="1" stop-color="#5cd4ee"/></linearGradient><linearGradient gradientUnits="objectBoundingBox" id="SVGID_30_" node-id="278" spreadMethod="pad" x1="476.567" x2="501.3587" y1="665.4494" y2="634.5164"><stop offset="0" stop-color="#4b46bd"/><stop offset="1" stop-color="#5cd4ee"/></linearGradient><linearGradient gradientUnits="objectBoundingBox" id="SVGID_31_" node-id="282" spreadMethod="pad" x1="1091.6259" x2="1114.8467" y1="963.2016" y2="934.2283"><stop offset="0" stop-color="#4b46bd"/><stop offset="1" stop-color="#5cd4ee"/></linearGradient><linearGradient gradientUnits="objectBoundingBox" id="SVGID_32_" node-id="286" spreadMethod="pad" x1="551.2473" x2="572.8083" y1="666.7832" y2="639.8812"><stop offset="0" stop-color="#7d5df5"/><stop offset="1" stop-color="#cd94ef"/></linearGradient><linearGradient gradientUnits="objectBoundingBox" id="SVGID_33_" node-id="290" spreadMethod="pad" x1="482.9966" x2="506.981" y1="665.7244" y2="635.7991"><stop offset="0" stop-color="#7d5df5"/><stop offset="1" stop-color="#cd94ef"/></linearGradient><clipPath id="SVGID_13_" node-id="160"><path d="M 242.70 190.50 L 257.50 190.50 L 257.50 214.70 L 242.70 214.70 Z" fill="#000000" fill-rule="nonzero" node-id="474" stroke="none" target-height="24.199997" target-width="14.800003" target-x="242.7" target-y="190.5"/></clipPath><clipPath id="SVGID_15_" node-id="171"><path d="M 249.70 235.30 L 290.90 235.30 L 290.90 306.80 L 249.70 306.80 Z" fill="#000000" fill-rule="nonzero" node-id="478" stroke="none" target-height="71.499985" target-width="41.199997" target-x="249.7" target-y="235.3"/></clipPath><clipPath id="SVGID_17_" node-id="181"><path d="M 188.90 345.20 L 222.50 345.20 L 222.50 600.80 L 188.90 600.80 Z" fill="#000000" fill-rule="nonzero" node-id="482" stroke="none" target-height="255.59998" target-width="33.600006" target-x="188.9" target-y="345.2"/></clipPath></defs><g node-id="867"><g node-id="869"><path d="M 14.30 307.90 L 9.40 288.70 L 7.40 279.20 L 3.30 254.80 L 0.80 230.70 L -0.00 209.80 L 0.10 199.10 L 0.60 188.20 L 1.60 177.10 L 3.10 166.10 L 5.10 155.10 L 7.80 144.20 L 10.20 136.10 L 13.00 128.20 L 16.20 120.40 L 19.80 112.70 L 23.90 105.30 L 28.40 98.10 L 33.50 91.20 L 39.10 84.50 L 43.90 79.40 L 49.00 74.60 L 54.50 69.90 L 60.50 65.50 L 66.90 61.20 L 73.40 57.40 L 80.40 53.80 L 87.90 50.50 L 95.90 47.50 L 104.60 44.70 L 113.00 42.40 L 122.10 40.40 L 131.80 38.80 L 142.20 37.50 L 153.40 36.60 L 173.30 35.60 L 207.20 34.90 L 223.10 35.10 L 250.30 36.40 L 274.60 38.80 L 300.10 42.80 L 326.20 48.40 L 360.80 56.80 L 372.20 59.10 L 384.10 61.10 L 400.80 62.90 L 410.20 63.50 L 429.80 63.50 L 441.20 62.90 L 465.30 60.60 L 479.40 58.60 L 509.40 53.40 L 527.10 49.70 L 558.60 42.60 L 585.30 36.20 L 631.80 24.10 L 684.90 9.70 L 707.80 4.30 L 724.10 1.50 L 732.00 0.60 L 747.20 -0.00 L 754.70 0.30 L 762.40 1.10 L 770.40 2.30 L 778.20 4.00 L 796.00 9.00 L 815.30 16.00 L 826.60 20.50 L 835.30 24.40 L 843.40 28.50 L 850.90 32.90 L 857.90 37.50 L 864.40 42.30 L 870.80 47.50 L 876.70 52.90 L 882.20 58.50 L 887.20 64.20 L 891.90 70.10 L 897.30 77.80 L 902.10 85.70 L 906.30 93.70 L 910.00 101.80 L 913.20 110.20 L 916.00 118.60 L 918.30 127.00 L 920.10 135.40 L 922.40 152.40 L 923.20 168.80 L 922.90 179.70 L 922.00 190.00 L 920.60 199.80 L 918.60 209.50 L 916.20 218.40 L 913.40 226.40 L 909.70 235.50 L 901.30 253.00 L 894.50 265.70 L 887.60 277.70 L 867.70 311.20 L 862.40 321.10 L 859.20 327.70 L 856.70 333.90 L 854.70 339.60 L 853.60 344.10 L 852.60 352.30 L 852.80 356.10 L 853.50 359.90 L 854.80 364.40 L 856.80 369.80 L 860.60 377.80 L 871.10 396.70 L 898.20 440.80 L 911.80 464.20 L 917.90 475.80 L 925.10 491.20 L 930.60 505.90 L 932.60 513.00 L 934.00 519.60 L 934.60 524.50 L 935.00 535.60 L 934.40 544.20 L 933.30 553.10 L 931.60 561.90 L 929.40 570.30 L 926.80 578.30 L 924.00 585.20 L 921.90 589.60 L 919.80 593.20 L 915.80 598.00 L 914.10 599.40 L 910.90 600.70 L 892.10 602.90 L 879.70 603.90 L 860.70 604.90 L 815.00 605.80 L 789.20 605.90 L 734.80 605.20 L 677.60 603.60 L 620.00 601.50 L 513.50 596.60 L 404.70 590.30 L 169.40 579.90 L 43.50 562.70 L 45.60 519.50 L 47.30 462.80 L 47.40 433.40 L 46.50 416.50 L 45.40 408.00 L 43.30 395.30 L 40.70 382.90 L 37.50 370.70 L 34.20 359.40 L 30.60 348.50 L 23.70 329.80 L 14.30 307.90 Z" fill="#f8f8ff" fill-rule="nonzero" group-id="1,3" node-id="488" stroke="none" target-height="605.9" target-width="935" target-x="-0" target-y="-0"/><path d="M 44.00 554.80 L 42.90 561.40 L 42.10 572.20 L 42.10 579.10 L 43.10 588.80 L 45.20 599.50 L 46.90 605.00 L 49.10 610.50 L 51.70 615.90 L 54.90 621.30 L 58.80 626.60 L 61.90 630.40 L 69.60 637.60 L 74.10 641.10 L 78.80 644.20 L 84.10 647.10 L 90.00 649.90 L 96.50 652.50 L 103.00 654.60 L 110.20 656.50 L 118.20 658.10 L 127.10 659.40 L 135.70 660.30 L 145.20 660.80 L 155.60 660.80 L 167.10 660.50 L 212.00 657.70 L 299.40 649.70 L 319.70 648.80 L 329.30 648.90 L 338.90 649.50 L 348.60 650.50 L 359.20 652.20 L 370.00 654.40 L 382.50 657.40 L 395.50 661.00 L 434.30 672.70 L 455.60 678.80 L 469.70 682.50 L 495.80 688.50 L 508.60 691.00 L 520.90 692.90 L 532.80 694.40 L 544.70 695.40 L 556.40 695.80 L 568.00 695.80 L 579.50 695.20 L 591.10 694.10 L 602.80 692.40 L 614.30 690.10 L 626.20 687.20 L 673.60 673.10 L 691.50 668.80 L 707.40 666.10 L 715.30 665.30 L 732.10 664.30 L 751.70 664.10 L 807.00 664.30 L 815.80 664.00 L 824.00 663.10 L 831.80 661.80 L 839.10 660.00 L 846.40 657.70 L 853.30 655.00 L 859.80 651.90 L 865.90 648.60 L 877.50 640.80 L 887.70 632.10 L 893.90 625.80 L 899.60 619.40 L 904.80 612.90 L 909.60 606.10 L 917.70 593.00 L 922.80 583.30 L 926.70 574.70 L 932.20 560.10 L 934.50 551.30 L 935.00 546.90 L 935.20 540.70 L 934.30 526.40 L 932.00 511.00 L 930.30 503.50 L 928.40 497.00 L 925.10 489.40 L 921.90 484.90 L 920.40 483.70 L 918.80 483.00 L 917.30 482.70 L 794.10 481.60 L 664.90 480.90 L 520.10 480.80 L 447.60 481.00 L 314.40 482.30 L 258.40 483.50 L 212.50 485.10 L 179.10 487.10 L 170.20 488.00 L 160.60 489.70 L 146.70 494.40 L 139.40 497.40 L 128.60 502.40 L 107.00 513.90 L 59.60 542.10 L 51.90 546.30 L 45.70 549.20" fill="#f5f5fc" fill-rule="nonzero" group-id="1,3" node-id="490" stroke="none" target-height="215" target-width="893.10004" target-x="42.1" target-y="480.8"/></g><g node-id="870"><path d="M 62.00 455.20 L 155.00 417.20 L 156.60 36.80 L 142.40 38.30 L 127.50 40.60 L 110.00 44.30 L 100.80 46.80 L 85.80 52.10 L 74.80 57.30 L 69.60 60.40 L 65.10 63.70 L 61.00 67.20 L 62.00 455.20 Z" fill="#e9edfb" fill-rule="nonzero" group-id="1,4" node-id="494" stroke="none" target-height="418.40002" target-width="95.600006" target-x="61" target-y="36.8"/><path d="M 61.00 67.20 L 63.30 454.70 L 47.00 461.50 L 47.60 448.70 L 47.50 437.10 L 46.90 423.90 L 45.30 405.60 L 43.50 394.50 L 39.00 376.90 L 35.40 365.00 L 10.40 289.20 L 4.10 267.40 L 2.60 260.60 L 1.00 250.20 L 0.40 236.10 L 0.30 226.80 L 0.90 203.90 L 1.60 191.20 L 4.20 165.20 L 6.10 152.30 L 8.50 140.20 L 10.40 132.20 L 14.80 118.50 L 16.80 113.60 L 21.20 105.70 L 23.50 102.60 L 31.60 93.30 L 38.50 86.10 L 45.10 79.70 L 55.10 71.30 L 61.00 67.20 Z" fill="#e9edfb" fill-rule="nonzero" group-id="1,4" node-id="496" stroke="none" target-height="394.3" target-width="63" target-x="0.3" target-y="67.2"/><g node-id="881"><path d="M 127.70 163.50 L 127.80 165.90 L 127.30 168.30 L 126.30 170.60 L 124.70 172.80 L 122.70 174.70 L 120.20 176.60 L 117.40 178.10 L 114.30 179.20 L 110.80 180.10 L 107.20 180.50 L 103.90 180.40 L 100.80 180.00 L 97.80 179.10 L 95.20 177.90 L 93.10 176.40 L 91.30 174.50 L 90.00 172.50 L 89.30 170.10 L 89.20 167.70 L 89.70 165.30 L 90.70 163.00 L 92.30 160.80 L 94.30 158.80 L 96.80 157.00 L 99.60 155.50 L 102.70 154.30 L 106.20 153.50 L 109.80 153.10 L 113.10 153.20 L 116.20 153.60 L 119.20 154.50 L 121.80 155.70 L 123.90 157.20 L 125.70 159.10 L 127.00 161.10 L 127.70 163.50 Z" fill="#ffffff" fill-rule="nonzero" group-id="1,4,15" node-id="500" stroke="none" target-height="27.399994" target-width="38.600006" target-x="89.2" target-y="153.1"/></g><g node-id="882"><path d="M 146.30 160.00 L 146.30 162.00 L 146.00 163.90 L 145.10 165.80 L 142.20 169.20 L 137.90 171.90 L 132.50 173.50 L 126.90 173.80 L 121.90 172.70 L 118.00 170.50 L 116.50 169.00 L 115.50 167.30 L 114.90 165.40 L 114.90 163.40 L 115.20 161.50 L 116.10 159.60 L 117.40 157.80 L 121.10 154.70 L 123.30 153.50 L 128.70 151.90 L 134.30 151.60 L 139.30 152.70 L 143.20 154.90 L 144.70 156.40 L 145.70 158.10 L 146.30 160.00 Z" fill="#ffffff" fill-rule="nonzero" group-id="1,4,16" node-id="505" stroke="none" target-height="22.199997" target-width="31.400002" target-x="114.9" target-y="151.6"/></g><g node-id="883"><path d="M 39.60 210.50 L 39.70 212.90 L 39.20 215.30 L 38.20 217.60 L 36.60 219.80 L 34.60 221.80 L 32.10 223.60 L 29.30 225.10 L 26.20 226.30 L 22.70 227.10 L 19.10 227.50 L 15.80 227.40 L 12.70 227.00 L 9.70 226.10 L 7.10 224.90 L 5.00 223.40 L 3.20 221.60 L 1.90 219.50 L 1.20 217.20 L 1.10 214.70 L 1.60 212.40 L 2.60 210.00 L 4.20 207.90 L 6.20 205.90 L 8.70 204.00 L 11.50 202.50 L 14.60 201.40 L 18.10 200.50 L 21.70 200.10 L 25.00 200.20 L 28.10 200.60 L 31.10 201.50 L 33.70 202.70 L 35.80 204.20 L 37.60 206.10 L 38.90 208.10 L 39.60 210.50 Z" fill="#ffffff" fill-rule="nonzero" group-id="1,4,17" node-id="510" stroke="none" target-height="27.399994" target-width="38.600002" target-x="1.1" target-y="200.1"/></g><g node-id="884"><path d="M 55.30 201.00 L 55.30 203.00 L 55.00 204.90 L 54.10 206.80 L 51.20 210.20 L 46.90 212.90 L 41.50 214.50 L 35.90 214.80 L 30.90 213.70 L 27.00 211.50 L 25.50 210.00 L 24.50 208.30 L 23.90 206.40 L 23.90 204.40 L 24.20 202.50 L 25.10 200.60 L 28.00 197.20 L 32.30 194.50 L 37.70 192.90 L 43.30 192.60 L 48.30 193.70 L 52.20 195.90 L 53.70 197.40 L 54.70 199.10 L 55.30 201.00 Z" fill="#ffffff" fill-rule="nonzero" group-id="1,4,18" node-id="515" stroke="none" target-height="22.199997" target-width="31.4" target-x="23.9" target-y="192.6"/></g><path d="M 68.90 61.00 L 79.50 55.50 L 84.20 446.00 L 74.40 450.10 L 68.90 61.00 Z" fill="#ffffff" fill-rule="nonzero" group-id="1,4" node-id="518" stroke="none" target-height="394.6" target-width="15.299995" target-x="68.9" target-y="55.5"/><path d="M 33.10 357.20 L 28.80 344.50 L 155.70 296.60 L 156.10 307.30 L 33.10 357.20 Z" fill="#ffffff" fill-rule="nonzero" group-id="1,4" node-id="520" stroke="none" target-height="60.600006" target-width="127.3" target-x="28.8" target-y="296.6"/><path d="M 2.20 258.50 L 0.10 245.60 L 156.60 185.80 L 156.10 196.30 L 2.20 258.50 Z" fill="#ffffff" fill-rule="nonzero" group-id="1,4" node-id="522" stroke="none" target-height="72.7" target-width="156.5" target-x="0.1" target-y="185.8"/></g><g node-id="871"><path d="M 425.40 400.10 L 427.70 396.60 L 429.60 393.00 L 430.90 389.20 L 432.40 381.70 L 434.50 374.30 L 436.30 370.70 L 438.40 367.30 L 442.60 362.60 L 443.90 360.40 L 446.70 353.20 L 449.10 342.20 L 450.70 330.10 L 452.30 299.20 L 453.10 294.10 L 454.40 289.10 L 456.00 284.60 L 458.20 279.60 L 462.10 273.20 L 464.50 270.00 L 467.20 267.20 L 470.30 264.70 L 473.80 262.50 L 479.20 260.40 L 489.00 258.30 L 495.80 257.60 L 502.80 257.20 L 509.70 257.20 L 518.50 258.10 L 526.00 260.00 L 528.90 261.30 L 531.20 262.80 L 535.20 266.50 L 538.60 270.20 L 541.20 273.90 L 543.60 277.80 L 546.80 285.10 L 548.40 290.50 L 549.20 295.30 L 549.70 299.70 L 549.80 307.50 L 551.20 325.30 L 552.80 335.40 L 554.30 340.00 L 555.60 342.90 L 557.30 345.80 L 566.00 357.20 L 569.10 361.90 L 571.80 366.60 L 574.50 373.10 L 575.90 379.70 L 576.00 383.00 L 575.40 388.70 L 575.60 391.10 L 577.30 397.40 L 580.40 405.40 L 582.50 411.90 L 582.80 416.70 L 582.40 418.90 L 581.40 421.10 L 579.80 423.20 L 577.80 424.90 L 574.90 426.60 L 570.80 428.20 L 558.00 432.10 L 545.00 435.50 L 536.30 437.30 L 527.50 438.70 L 518.50 439.80 L 509.50 440.40 L 500.30 440.50 L 490.80 440.00 L 474.90 438.50 L 458.50 435.90 L 450.60 434.10 L 443.50 431.90 L 438.90 430.00 L 434.90 428.00 L 431.50 425.80 L 429.10 423.80 L 425.60 419.60 L 424.40 417.20 L 423.20 413.20 L 422.70 409.90 L 422.80 406.80 L 423.30 404.20 L 425.40 400.10 Z" fill="#e9edfa" fill-rule="nonzero" group-id="1,5" node-id="526" stroke="none" target-height="183.29999" target-width="160.09998" target-x="422.7" target-y="257.2"/><path d="M 431.80 398.00 L 433.90 395.10 L 435.40 393.60 L 437.20 392.40 L 440.00 391.20 L 442.20 390.70 L 445.70 390.70 L 449.70 391.10 L 455.80 392.50 L 462.70 394.60 L 478.80 400.60 L 485.00 402.30 L 490.80 403.40 L 496.80 404.10 L 507.60 404.30 L 517.70 403.20 L 528.40 400.70 L 533.60 399.00 L 545.30 394.30 L 548.60 393.60 L 557.80 392.10 L 564.90 392.20 L 568.10 392.90 L 570.00 393.70 L 571.60 394.90 L 573.00 396.30 L 573.90 398.10 L 574.50 400.30 L 574.70 403.20 L 574.30 406.10 L 573.40 408.80 L 572.00 411.40 L 568.10 416.10 L 565.50 418.20 L 561.40 421.10 L 556.80 423.60 L 552.10 425.80 L 547.40 427.60 L 538.70 430.00 L 532.20 431.00 L 501.00 432.50 L 487.00 432.50 L 473.60 431.60 L 467.40 430.70 L 462.20 429.50 L 455.60 427.40 L 446.20 423.40 L 440.50 420.20 L 437.00 417.70 L 433.30 414.20 L 431.70 411.80 L 430.10 408.00 L 429.70 405.70 L 429.70 403.20 L 430.70 399.80 L 431.80 398.00 Z" fill="#bac5f4" fill-rule="nonzero" group-id="1,5" node-id="528" stroke="none" target-height="41.799988" target-width="145" target-x="429.7" target-y="390.7"/><path d="M 434.40 527.20 L 438.00 527.00 L 439.40 526.40 L 440.70 525.50 L 441.70 524.20 L 442.40 522.80 L 442.60 521.10 L 442.40 511.90 L 441.90 510.50 L 439.30 508.90 L 438.80 508.10 L 438.60 507.10 L 438.80 506.10 L 439.70 505.00 L 445.20 502.50 L 452.10 500.10 L 462.50 497.40 L 477.50 495.20 L 501.20 493.10 L 502.50 491.80 L 502.70 490.70 L 502.20 489.30 L 500.80 488.30 L 471.10 492.00 L 452.80 495.10 L 447.30 496.80 L 441.90 499.00 L 436.80 501.80 L 434.50 504.10 L 433.00 508.40 L 432.30 509.20 L 428.60 511.30 L 427.90 514.50 L 428.00 521.40 L 428.90 524.20 L 431.20 526.30 L 434.40 527.20 Z" fill="#a2b7ed" fill-rule="nonzero" group-id="1,5" node-id="530" stroke="none" target-height="38.900024" target-width="74.80002" target-x="427.9" target-y="488.3"/><path d="M 576.10 527.20 L 572.90 527.00 L 571.30 526.40 L 569.90 525.30 L 568.80 524.00 L 568.20 522.40 L 567.90 520.30 L 568.20 511.10 L 569.00 509.90 L 571.20 508.80 L 571.70 508.00 L 571.90 507.00 L 571.70 506.00 L 570.80 504.90 L 565.30 502.40 L 558.50 500.00 L 548.20 497.30 L 533.30 495.10 L 509.90 493.00 L 508.60 491.70 L 508.40 490.60 L 508.90 489.20 L 510.30 488.20 L 539.70 491.90 L 557.80 495.00 L 563.30 496.70 L 568.60 498.90 L 573.60 501.70 L 575.90 504.00 L 576.60 505.50 L 577.40 508.30 L 578.10 509.10 L 581.70 511.30 L 582.40 514.40 L 582.30 521.40 L 581.40 524.20 L 579.20 526.30 L 576.10 527.20 Z" fill="#a2b7ed" fill-rule="nonzero" group-id="1,5" node-id="532" stroke="none" target-height="39" target-width="74.00003" target-x="508.4" target-y="488.2"/><path d="M 501.50 444.10 L 501.30 519.80 L 500.80 521.10 L 500.20 521.50 L 498.40 521.70 L 497.40 522.70 L 497.60 536.30 L 498.40 539.10 L 500.50 541.20 L 503.40 542.00 L 507.40 542.10 L 509.00 541.90 L 510.40 541.40 L 511.70 540.40 L 512.70 539.20 L 513.30 537.80 L 513.50 536.20 L 512.90 522.70 L 511.90 521.80 L 509.90 521.20 L 509.40 519.90 L 509.60 442.30 L 509.50 441.60 L 508.50 440.60 L 502.50 440.60 L 501.50 441.60 L 501.50 444.10 Z" fill="#a2b7ed" fill-rule="nonzero" group-id="1,5" node-id="534" stroke="none" target-height="101.49997" target-width="16.100006" target-x="497.4" target-y="440.6"/><path d="M 501.60 499.00 L 476.80 509.30 L 449.00 521.70 L 437.70 527.40 L 430.80 531.80 L 426.40 535.90 L 423.60 539.00 L 421.50 542.00 L 420.50 544.10 L 420.00 546.10 L 420.20 547.60 L 422.40 548.60 L 423.70 549.80 L 424.50 551.40 L 424.70 553.10 L 424.50 566.00 L 424.20 567.40 L 423.40 568.60 L 422.30 569.30 L 420.90 569.60 L 414.00 569.60 L 412.60 569.30 L 411.40 568.60 L 410.60 567.40 L 410.30 566.00 L 410.10 553.20 L 410.60 550.70 L 412.30 548.70 L 414.80 547.70 L 417.30 540.30 L 419.60 536.20 L 424.50 531.50 L 430.60 526.70 L 440.80 520.50 L 447.60 517.00 L 456.70 512.80 L 488.70 499.50 L 501.50 494.60 L 501.60 499.00 Z" fill="#bac5f4" fill-rule="nonzero" group-id="1,5" node-id="536" stroke="none" target-height="74.99997" target-width="91.5" target-x="410.1" target-y="494.6"/><path d="M 509.30 498.10 L 509.60 499.20 L 510.50 500.00 L 529.40 508.30 L 557.20 521.30 L 568.90 527.50 L 576.10 532.20 L 580.20 536.30 L 582.90 539.40 L 584.90 542.40 L 585.90 544.50 L 586.30 546.50 L 586.10 548.00 L 582.80 548.70 L 581.80 549.80 L 581.70 550.60 L 581.90 564.30 L 582.70 567.20 L 584.90 569.30 L 586.20 569.90 L 589.50 570.10 L 591.10 569.90 L 592.40 569.30 L 594.50 567.20 L 595.40 564.30 L 595.50 550.00 L 594.60 548.90 L 592.40 548.50 L 591.10 547.70 L 588.80 541.10 L 586.60 536.70 L 581.90 532.00 L 576.10 527.20 L 566.40 521.00 L 560.00 517.50 L 551.40 513.30 L 534.20 505.60 L 512.00 496.30 L 511.20 496.10 L 509.80 496.70 L 509.30 498.10 Z" fill="#bac5f4" fill-rule="nonzero" group-id="1,5" node-id="538" stroke="none" target-height="73.99997" target-width="86.20001" target-x="509.3" target-y="496.1"/></g><g node-id="872"><path d="M 174.00 556.20 L 175.00 382.20 L 198.00 382.20 L 198.00 557.20 Z" fill="#ffffff" fill-rule="nonzero" group-id="1,6" node-id="542" stroke="none" target-height="175" target-width="24" target-x="174" target-y="382.2"/><path d="M 705.00 379.10 L 706.00 558.20 L 726.00 558.20 L 726.40 379.90 Z" fill="#ffffff" fill-rule="nonzero" group-id="1,6" node-id="544" stroke="none" target-height="179.1" target-width="21.400024" target-x="705" target-y="379.1"/><path d="M 104.00 361.20 L 104.00 382.20 L 792.00 380.20 L 792.00 362.20 Z" fill="#ffffff" fill-rule="nonzero" group-id="1,6" node-id="546" stroke="none" target-height="21" target-width="688" target-x="104" target-y="361.2"/><path d="M 104.00 361.20 L 153.00 346.20 L 736.00 347.20 L 792.00 362.20 Z" fill="#bac5f4" fill-rule="nonzero" group-id="1,6" node-id="548" stroke="none" target-height="16" target-width="688" target-x="104" target-y="346.2"/><path d="M 416.50 355.40 L 428.00 348.40 L 481.10 348.10 L 473.10 354.90 Z" fill="#f8f8ff" fill-rule="nonzero" group-id="1,6" node-id="550" stroke="none" target-height="7.299988" target-width="64.600006" target-x="416.5" target-y="348.1"/></g><g node-id="873"><path d="M 152.00 309.10 L 147.50 309.30 L 144.20 309.90 L 142.90 310.60 L 142.20 311.50 L 142.00 312.60 L 142.30 323.50 L 143.00 333.30 L 144.80 351.00 L 145.60 354.80 L 146.50 355.50 L 148.60 356.20 L 154.20 357.10 L 164.70 357.70 L 174.20 356.60 L 178.10 356.00 L 179.90 355.40 L 182.80 344.30 L 185.00 334.10 L 187.50 318.70 L 187.80 314.80 L 187.60 310.60 L 187.20 309.60 L 186.50 308.90 L 183.50 307.70 L 180.60 307.30 L 172.80 307.20 L 160.80 308.10 L 152.50 309.20" fill="#e9edfc" fill-rule="nonzero" group-id="1,7" node-id="554" stroke="none" target-height="50.5" target-width="45.800003" target-x="142" target-y="307.2"/><path d="M 141.50 318.10 L 159.70 319.30 L 167.30 319.50 L 171.70 319.30 L 172.70 318.70 L 173.80 316.10 L 173.80 310.30 L 187.20 309.70 L 186.80 316.70 L 186.60 317.90 L 185.00 320.30 L 184.00 322.50 L 178.30 356.00 L 170.50 357.10 L 168.50 357.20 L 168.30 356.80 L 168.80 349.90 L 172.10 327.90 L 172.00 325.60 L 171.70 323.40 L 171.30 322.60 L 170.70 322.40 L 152.20 322.30 L 145.60 321.60 L 143.00 320.60 L 141.50 318.10" fill="#bac4f6" fill-rule="nonzero" group-id="1,7" node-id="556" stroke="none" target-height="47.5" target-width="45.699997" target-x="141.5" target-y="309.7"/><path d="M 152.20 310.00 L 147.90 307.30 L 142.30 304.60 L 125.90 302.20 L 121.90 300.80 L 120.40 300.00 L 119.60 299.30 L 119.00 297.80 L 119.60 295.00 L 120.40 294.00 L 124.00 291.90 L 128.50 290.60 L 133.60 291.70 L 139.90 294.10 L 146.90 297.90 L 150.30 300.30 L 153.30 303.10 L 158.80 310.00 L 152.20 310.00 Z" fill="#bac4f6" fill-rule="nonzero" group-id="1,7" node-id="558" stroke="none" target-height="19.399994" target-width="39.800003" target-x="119" target-y="290.6"/><path d="M 126.10 296.90 L 134.70 297.50 L 136.80 298.00 L 141.20 299.80 L 145.40 302.00 L 156.70 309.90" fill="#bac4f6" fill-rule="nonzero" group-id="1,7" node-id="560" stroke="none" target-height="13" target-width="30.599998" target-x="126.1" target-y="296.9"/><path d="M 126.10 296.90 L 134.70 297.50 L 136.80 298.00 L 141.20 299.80 L 145.40 302.00 L 156.70 309.90" fill="none" group-id="1,7" node-id="562" stroke="#ffffff" stroke-linecap="round" stroke-width="0.75" target-height="13" target-width="30.599998" target-x="126.1" target-y="296.9"/><path d="M 160.10 309.70 L 151.20 298.30 L 147.90 294.50 L 137.20 283.80 L 132.40 277.90 L 131.10 274.90 L 131.50 273.20 L 134.00 270.70 L 136.20 270.10 L 140.20 270.70 L 144.70 272.80 L 147.30 275.10 L 151.90 280.10 L 157.20 287.40 L 159.70 291.70 L 161.90 296.40 L 164.10 303.00 L 164.70 306.50 L 167.00 310.00 L 160.10 309.70 Z" fill="#bac4f6" fill-rule="nonzero" group-id="1,7" node-id="564" stroke="none" target-height="39.899994" target-width="35.899994" target-x="131.1" target-y="270.1"/><path d="M 139.50 277.20 L 146.40 282.30 L 149.00 285.20 L 155.50 295.40 L 160.00 307.90" fill="none" group-id="1,7" node-id="566" stroke="#ffffff" stroke-linecap="round" stroke-width="0.75" target-height="30.699982" target-width="20.5" target-x="139.5" target-y="277.2"/><path d="M 164.50 310.20 L 152.40 283.60 L 150.10 280.00 L 141.80 269.80 L 139.70 264.80 L 139.00 260.60 L 139.20 259.20 L 139.90 257.90 L 142.50 255.70 L 144.20 254.90 L 146.00 254.50 L 147.80 254.40 L 149.40 254.90 L 150.80 255.80 L 155.30 260.00 L 157.50 262.60 L 158.60 265.60 L 162.70 280.00 L 164.70 288.60 L 166.10 296.20 L 166.40 301.40 L 168.00 310.30 L 164.50 310.20 Z" fill="#e9edfc" fill-rule="nonzero" group-id="1,7" node-id="568" stroke="none" target-height="55.899994" target-width="29" target-x="139" target-y="254.4"/><path d="M 146.40 263.20 L 152.10 271.50 L 154.10 275.20 L 163.90 308.80" fill="none" group-id="1,7" node-id="570" stroke="#ffffff" stroke-linecap="round" stroke-width="0.75" target-height="45.599976" target-width="17.5" target-x="146.4" target-y="263.2"/><path d="M 158.90 310.10 L 153.80 304.70 L 147.20 298.80 L 129.60 290.20 L 125.50 287.30 L 124.10 286.00 L 123.40 285.00 L 123.20 283.40 L 124.80 281.00 L 126.00 280.30 L 130.80 279.60 L 136.30 280.10 L 139.30 281.60 L 148.00 287.90 L 154.60 294.20 L 159.30 300.30 L 164.10 310.20 L 158.90 310.10 Z" fill="#e9edfc" fill-rule="nonzero" group-id="1,7" node-id="572" stroke="none" target-height="30.600006" target-width="40.90001" target-x="123.2" target-y="279.6"/><path d="M 131.50 285.40 L 139.70 288.70 L 143.20 290.60 L 147.50 294.00 L 151.60 297.70 L 160.20 310.30" fill="none" group-id="1,7" node-id="574" stroke="#ffffff" stroke-linecap="round" stroke-width="0.75" target-height="24.899994" target-width="28.699997" target-x="131.5" target-y="285.4"/><path d="M 182.40 310.30 L 187.00 307.70 L 193.20 305.20 L 210.80 302.90 L 215.20 301.60 L 216.80 300.80 L 217.70 300.10 L 218.30 298.80 L 217.60 296.20 L 216.80 295.20 L 212.80 293.10 L 208.00 291.90 L 205.00 292.40 L 195.60 295.30 L 188.00 298.90 L 184.40 301.20 L 181.10 303.90 L 175.10 310.40 L 182.40 310.30 Z" fill="#bac4f6" fill-rule="nonzero" group-id="1,7" node-id="576" stroke="none" target-height="18.5" target-width="43.199997" target-x="175.1" target-y="291.9"/><path d="M 210.60 297.90 L 201.20 298.50 L 199.00 299.00 L 194.30 300.70 L 189.70 302.80 L 178.80 310.10" fill="#bac4f6" fill-rule="nonzero" group-id="1,7" node-id="578" stroke="none" target-height="12.200012" target-width="31.800003" target-x="178.8" target-y="297.9"/><path d="M 210.60 297.90 L 201.20 298.50 L 199.00 299.00 L 194.30 300.70 L 189.70 302.80 L 178.80 310.10" fill="none" group-id="1,7" node-id="580" stroke="#ffffff" stroke-linecap="round" stroke-width="0.75" target-height="12.200012" target-width="31.800003" target-x="178.8" target-y="297.9"/><path d="M 173.80 310.10 L 183.40 299.10 L 187.00 295.50 L 198.60 285.30 L 203.80 279.70 L 205.20 276.80 L 204.80 275.20 L 202.10 272.90 L 199.80 272.20 L 198.10 272.30 L 195.50 272.70 L 193.00 273.60 L 190.60 274.80 L 187.90 277.00 L 180.10 285.00 L 174.40 292.90 L 170.70 300.50 L 169.00 307.00 L 166.50 310.40 L 173.80 310.10 Z" fill="#bac4f6" fill-rule="nonzero" group-id="1,7" node-id="582" stroke="none" target-height="38.19998" target-width="38.699997" target-x="166.5" target-y="272.2"/><path d="M 196.10 279.00 L 188.60 283.90 L 185.80 286.60 L 178.70 296.40 L 173.80 308.30" fill="none" group-id="1,7" node-id="584" stroke="#ffffff" stroke-linecap="round" stroke-width="0.75" target-height="29.299988" target-width="22.300003" target-x="173.8" target-y="279"/><path d="M 169.10 310.60 L 183.20 283.60 L 193.70 272.00 L 195.90 267.30 L 196.70 263.20 L 196.40 261.90 L 195.70 260.70 L 192.90 258.60 L 191.00 257.90 L 187.10 257.40 L 185.40 257.80 L 182.10 259.80 L 176.60 265.20 L 173.30 274.00 L 168.80 290.10 L 167.30 297.30 L 166.90 302.30 L 165.20 310.80 L 169.10 310.60 Z" fill="#e9edfc" fill-rule="nonzero" group-id="1,7" node-id="586" stroke="none" target-height="53.399994" target-width="31.5" target-x="165.2" target-y="257.4"/><path d="M 168.00 310.30 L 169.00 295.40 L 170.40 285.10 L 173.90 271.80 L 176.20 265.30 L 176.30 263.80 L 175.70 259.90 L 174.80 257.80 L 172.80 254.50 L 171.60 253.50 L 170.00 253.00 L 168.20 252.80 L 164.30 253.40 L 161.10 254.90 L 158.90 257.60 L 157.30 261.90 L 161.60 282.00 L 163.10 291.00 L 164.10 310.50 L 168.00 310.30 Z" fill="#bac4f6" fill-rule="nonzero" group-id="1,7" node-id="588" stroke="none" target-height="57.699997" target-width="19" target-x="157.3" target-y="252.8"/><path d="M 188.60 265.70 L 182.40 273.60 L 180.30 277.20 L 178.70 281.40 L 176.30 289.60 L 169.10 309.80" fill="none" group-id="1,7" node-id="590" stroke="#ffffff" stroke-linecap="round" stroke-width="0.75" target-height="44.099976" target-width="19.5" target-x="169.1" target-y="265.7"/><path d="M 175.20 310.50 L 180.70 305.40 L 187.80 299.80 L 204.50 292.70 L 209.20 290.30 L 212.80 287.50 L 213.60 286.60 L 213.80 285.10 L 213.00 283.70 L 212.10 282.80 L 210.80 282.20 L 205.60 281.50 L 199.70 282.00 L 196.50 283.50 L 187.00 289.40 L 179.90 295.40 L 174.80 301.20 L 169.60 310.60 L 175.20 310.50 Z" fill="#e9edfc" fill-rule="nonzero" group-id="1,7" node-id="592" stroke="none" target-height="29.100006" target-width="44.199997" target-x="169.6" target-y="281.5"/><path d="M 204.70 286.80 L 195.80 289.90 L 192.10 291.70 L 187.50 294.90 L 183.10 298.40 L 173.60 309.00" fill="none" group-id="1,7" node-id="594" stroke="#ffffff" stroke-linecap="round" stroke-width="0.75" target-height="22.200012" target-width="31.09999" target-x="173.6" target-y="286.8"/><path d="M 166.00 258.40 L 167.00 276.70 L 166.50 284.00 L 166.20 309.30" fill="none" group-id="1,7" node-id="596" stroke="#ffffff" stroke-linecap="round" stroke-width="0.75" target-height="50.899994" target-width="1" target-x="166" target-y="258.4"/></g><g node-id="874"><path d="M 330.10 250.50 L 440.00 250.50 L 440.00 336.80 L 330.10 336.80 Z" fill="#ffffff" fill-rule="nonzero" group-id="1,8" node-id="600" stroke="none" target-height="86.29999" target-width="109.899994" target-x="330.1" target-y="250.5"/><path d="M 389.30 294.30 L 389.10 296.00 L 388.40 297.60 L 387.40 299.00 L 386.00 300.00 L 384.40 300.70 L 382.70 300.90 L 381.00 300.70 L 379.40 300.00 L 378.00 299.00 L 377.00 297.60 L 376.30 296.00 L 376.10 294.30 L 376.30 292.60 L 377.00 291.00 L 378.00 289.60 L 379.40 288.60 L 381.00 287.90 L 382.70 287.70 L 384.40 287.90 L 386.00 288.60 L 387.40 289.60 L 388.40 291.00 L 389.10 292.60 L 389.30 294.30 Z" fill="#f5f5fc" fill-rule="nonzero" group-id="1,8" node-id="602" stroke="none" target-height="13.199982" target-width="13.199982" target-x="376.1" target-y="287.7"/><path d="M 375.80 334.70 L 376.90 340.20 L 376.30 343.00 L 375.40 344.00 L 366.10 348.30 L 352.80 353.70 L 352.50 354.90 L 353.40 356.20 L 354.80 356.70 L 359.10 356.90 L 405.80 356.70 L 407.50 356.30 L 408.10 355.70 L 408.60 354.50 L 408.00 353.50 L 399.40 349.30 L 389.70 343.90 L 389.10 343.00 L 388.40 340.80 L 388.00 337.50 L 388.60 335.90 L 389.50 335.30 L 385.60 335.20 L 375.90 335.70" fill="#ffffff" fill-rule="nonzero" group-id="1,8" node-id="604" stroke="none" target-height="22.199982" target-width="56.100006" target-x="352.5" target-y="334.7"/></g><g node-id="875"><path d="M 292.50 241.60 L 578.30 241.20 L 577.80 193.40 L 276.30 195.70 L 276.10 241.60 Z" fill="#e9edfa" fill-rule="nonzero" group-id="1,9" node-id="608" stroke="none" target-height="48.200012" target-width="302.19998" target-x="276.1" target-y="193.4"/><path d="M 435.50 202.00 L 435.50 234.90 L 570.00 234.40 L 570.00 202.40 Z" fill="#bac5f4" fill-rule="nonzero" group-id="1,9" node-id="610" stroke="none" target-height="32.899994" target-width="134.5" target-x="435.5" target-y="202"/><path d="M 291.70 202.00 L 291.70 234.90 L 426.20 234.40 L 426.20 202.40 Z" fill="#bac5f4" fill-rule="nonzero" group-id="1,9" node-id="612" stroke="none" target-height="32.899994" target-width="134.5" target-x="291.7" target-y="202"/><path d="M 291.70 209.90 L 298.80 209.90 L 298.80 235.00 L 291.70 234.90 Z" fill="#ffffff" fill-rule="nonzero" group-id="1,9" node-id="614" stroke="none" target-height="25.100006" target-width="7.0999756" target-x="291.7" target-y="209.9"/><path d="M 298.90 214.30 L 303.60 214.30 L 303.80 234.90 L 298.80 235.00 Z" fill="#f5f5fc" fill-rule="nonzero" group-id="1,9" node-id="616" stroke="none" target-height="20.699997" target-width="5" target-x="298.8" target-y="214.3"/><path d="M 417.50 209.70 L 421.60 209.70 L 421.60 234.80 L 417.50 234.70 Z" fill="#ffffff" fill-rule="nonzero" group-id="1,9" node-id="618" stroke="none" target-height="25.100006" target-width="4.100006" target-x="417.5" target-y="209.7"/><path d="M 421.70 214.10 L 426.40 214.10 L 426.60 234.70 L 421.60 234.80 Z" fill="#f5f5fc" fill-rule="nonzero" group-id="1,9" node-id="620" stroke="none" target-height="20.699997" target-width="5" target-x="421.6" target-y="214.1"/><path d="M 304.00 211.10 L 308.70 211.10 L 308.90 234.90 L 303.90 235.00 Z" fill="#f5f5fc" fill-rule="nonzero" group-id="1,9" node-id="622" stroke="none" target-height="23.899994" target-width="5" target-x="303.9" target-y="211.1"/><path d="M 308.60 216.80 L 311.00 214.90 L 323.30 232.70 L 320.60 234.90 Z" fill="#ffffff" fill-rule="nonzero" group-id="1,9" node-id="624" stroke="none" target-height="20" target-width="14.699982" target-x="308.6" target-y="214.9"/><path d="M 365.80 234.80 L 395.30 234.80 L 395.10 231.40 L 365.80 231.60 Z" fill="#ffffff" fill-rule="nonzero" group-id="1,9" node-id="626" stroke="none" target-height="3.4000092" target-width="29.5" target-x="365.8" target-y="231.4"/><path d="M 370.70 231.50 L 400.20 231.50 L 400.10 228.20 L 370.70 228.40 Z" fill="#e9edfa" fill-rule="nonzero" group-id="1,9" node-id="628" stroke="none" target-height="3.300003" target-width="29.5" target-x="370.7" target-y="228.2"/><path d="M 440.20 208.70 L 444.30 208.70 L 444.40 235.10 L 440.20 235.00 Z" fill="#ffffff" fill-rule="nonzero" group-id="1,9" node-id="630" stroke="none" target-height="26.40001" target-width="4.1999817" target-x="440.2" target-y="208.7"/><path d="M 444.40 214.30 L 449.10 214.30 L 449.30 234.90 L 444.40 235.00 Z" fill="#f5f5fc" fill-rule="nonzero" group-id="1,9" node-id="632" stroke="none" target-height="20.699997" target-width="4.899994" target-x="444.4" target-y="214.3"/><path d="M 561.00 209.60 L 565.10 209.60 L 565.20 234.60 L 561.00 234.60 Z" fill="#ffffff" fill-rule="nonzero" group-id="1,9" node-id="634" stroke="none" target-height="25" target-width="4.200012" target-x="561" target-y="209.6"/><path d="M 565.10 213.60 L 570.00 213.60 L 570.20 234.40 L 565.20 234.50 Z" fill="#f5f5fc" fill-rule="nonzero" group-id="1,9" node-id="636" stroke="none" target-height="20.899994" target-width="5.1000366" target-x="565.1" target-y="213.6"/><path d="M 556.30 215.70 L 561.00 215.70 L 561.20 234.60 L 556.20 234.70 Z" fill="#f5f5fc" fill-rule="nonzero" group-id="1,9" node-id="638" stroke="none" target-height="19" target-width="5" target-x="556.2" target-y="215.7"/><path d="M 435.40 211.10 L 440.20 211.10 L 440.30 235.00 L 435.40 235.10 Z" fill="#f5f5fc" fill-rule="nonzero" group-id="1,9" node-id="640" stroke="none" target-height="24" target-width="4.899994" target-x="435.4" target-y="211.1"/><path d="M 484.40 216.90 L 486.80 214.90 L 499.00 232.80 L 496.40 234.90 Z" fill="#ffffff" fill-rule="nonzero" group-id="1,9" node-id="642" stroke="none" target-height="20" target-width="14.600006" target-x="484.4" target-y="214.9"/><path d="M 464.40 234.80 L 493.90 234.80 L 493.70 231.50 L 464.40 231.70 Z" fill="#ffffff" fill-rule="nonzero" group-id="1,9" node-id="644" stroke="none" target-height="3.300003" target-width="29.5" target-x="464.4" target-y="231.5"/><path d="M 462.80 231.70 L 492.20 231.70 L 492.10 228.40 L 462.80 228.60 Z" fill="#e9edfa" fill-rule="nonzero" group-id="1,9" node-id="646" stroke="none" target-height="3.300003" target-width="29.400024" target-x="462.8" target-y="228.4"/><path d="M 578.10 190.90 L 577.80 152.60 L 845.80 152.60 L 846.40 244.20 L 578.30 246.40 L 578.10 194.40" fill="#e9edfa" fill-rule="nonzero" group-id="1,9" node-id="648" stroke="none" target-height="93.79999" target-width="268.60004" target-x="577.8" target-y="152.6"/><path d="M 387.20 168.70 L 384.40 167.20 L 384.00 163.90 L 384.40 163.20 L 385.00 162.90 L 399.60 162.90 L 400.40 164.90 L 400.30 166.70 L 399.80 167.20 L 397.80 168.10 L 397.60 168.60 L 397.80 169.10 L 398.90 169.90 L 402.10 170.50 L 402.60 171.10 L 403.00 194.70 L 381.30 194.70 L 381.50 171.90 L 382.70 170.60 L 386.60 170.00 L 387.10 169.60 L 387.20 168.70 Z" fill="#e9edfa" fill-rule="nonzero" group-id="1,9" node-id="650" stroke="none" target-height="31.800003" target-width="21.700012" target-x="381.3" target-y="162.9"/><path d="M 384.60 177.40 L 399.80 177.40 L 399.80 186.80 L 384.60 186.80 Z" fill="#ffffff" fill-rule="nonzero" group-id="1,9" node-id="652" stroke="none" target-height="9.400009" target-width="15.199982" target-x="384.6" target-y="177.4"/><path d="M 412.00 168.70 L 409.20 167.20 L 408.80 163.90 L 409.20 163.20 L 409.80 162.90 L 424.40 162.90 L 425.20 164.90 L 425.10 166.70 L 424.60 167.20 L 422.60 168.10 L 422.40 168.60 L 422.60 169.10 L 423.70 169.90 L 426.90 170.50 L 427.40 171.10 L 427.80 194.70 L 406.10 194.70 L 406.30 171.90 L 407.50 170.60 L 411.50 170.00 L 412.00 169.60 L 412.00 168.70 Z" fill="#bac5f4" fill-rule="nonzero" group-id="1,9" node-id="654" stroke="none" target-height="31.800003" target-width="21.699982" target-x="406.1" target-y="162.9"/><path d="M 409.40 177.40 L 424.60 177.40 L 424.60 186.80 L 409.40 186.80 Z" fill="#ffffff" fill-rule="nonzero" group-id="1,9" node-id="656" stroke="none" target-height="9.400009" target-width="15.200012" target-x="409.4" target-y="177.4"/><path d="M 437.60 168.40 L 434.80 166.90 L 434.40 163.60 L 434.80 162.90 L 435.40 162.60 L 450.00 162.60 L 450.80 164.60 L 450.70 166.40 L 450.20 166.90 L 448.20 167.80 L 448.00 168.30 L 448.20 168.80 L 449.30 169.60 L 452.50 170.20 L 453.00 170.80 L 453.40 194.40 L 431.70 194.40 L 431.90 171.60 L 433.10 170.30 L 437.00 169.70 L 437.60 169.30 L 437.60 168.40 Z" fill="#e9edfa" fill-rule="nonzero" group-id="1,9" node-id="658" stroke="none" target-height="31.799988" target-width="21.699982" target-x="431.7" target-y="162.6"/><path d="M 435.00 177.10 L 450.20 177.10 L 450.20 186.50 L 435.00 186.50 Z" fill="#ffffff" fill-rule="nonzero" group-id="1,9" node-id="660" stroke="none" target-height="9.399994" target-width="15.200012" target-x="435" target-y="177.1"/><path d="M 587.30 161.90 L 711.10 161.90 L 711.10 237.50 L 587.30 237.50 Z" fill="#bac5f4" fill-rule="nonzero" group-id="1,9" node-id="662" stroke="none" target-height="75.600006" target-width="123.79999" target-x="587.3" target-y="161.9"/><path d="M 729.80 201.70 L 729.60 203.10 L 728.20 205.50 L 725.80 206.90 L 724.40 207.10 L 721.70 206.40 L 720.60 205.50 L 719.20 203.10 L 719.20 200.30 L 720.60 197.90 L 723.00 196.50 L 724.40 196.30 L 725.80 196.50 L 728.20 197.90 L 729.10 199.00 L 729.80 201.70 Z" fill="#bac5f4" fill-rule="nonzero" group-id="1,9" node-id="664" stroke="none" target-height="10.800003" target-width="10.599976" target-x="719.2" target-y="196.3"/><path d="M 670.00 211.60 L 667.20 210.10 L 666.80 206.80 L 667.20 206.10 L 667.80 205.80 L 682.40 205.80 L 683.20 207.80 L 683.10 209.60 L 682.60 210.10 L 680.60 211.00 L 680.40 211.50 L 680.60 212.00 L 681.70 212.80 L 684.90 213.40 L 685.40 214.00 L 685.80 237.60 L 664.10 237.60 L 664.30 214.80 L 665.50 213.50 L 669.40 212.90 L 669.90 212.50 L 670.00 211.60 Z" fill="#ffffff" fill-rule="nonzero" group-id="1,9" node-id="666" stroke="none" target-height="31.800003" target-width="21.700012" target-x="664.1" target-y="205.8"/><path d="M 667.30 220.30 L 682.50 220.30 L 682.50 229.70 L 667.30 229.70 Z" fill="#f5f5fc" fill-rule="nonzero" group-id="1,9" node-id="668" stroke="none" target-height="9.399994" target-width="15.200012" target-x="667.3" target-y="220.3"/></g></g><g node-id="868"><g node-id="876"><g node-id="885"><path d="M 840.60 602.60 L 841.10 597.20 L 841.00 593.10 L 840.60 588.60 L 838.60 579.70 L 835.50 571.90 L 833.30 568.10 L 830.60 564.30 L 827.30 560.40 L 823.60 556.90 L 819.10 553.50 L 813.80 550.20 L 797.40 541.30 L 780.40 532.80 L 776.30 531.20 L 770.80 529.80 L 769.20 530.10 L 768.30 530.60 L 767.50 532.50 L 767.60 533.60 L 768.20 535.10 L 773.10 542.80 L 773.90 543.70 L 777.00 545.40 L 782.10 547.10 L 785.30 549.40 L 787.20 551.60 L 791.50 558.70 L 792.90 560.60 L 794.40 561.90 L 797.70 563.60 L 815.80 571.00 L 821.60 574.30 L 824.40 576.40 L 828.20 579.90 L 831.50 583.60 L 834.30 587.40 L 837.40 593.00 L 838.30 597.30 L 838.90 598.40 L 841.80 600.60 L 844.00 601.50 L 849.90 603.00 L 840.60 602.60 Z" fill="url(#SVGID_1_)" fill-rule="nonzero" group-id="2,10,19" node-id="675" stroke="none" target-height="73.20001" target-width="82.400024" target-x="767.5" target-y="529.8"/><path d="M 839.40 597.80 L 840.20 592.80 L 840.50 584.90 L 840.00 580.00 L 838.40 573.20 L 835.40 566.00 L 833.20 562.50 L 830.50 558.90 L 827.30 555.60 L 823.50 552.50 L 818.90 549.40 L 808.50 543.60 L 800.50 539.60 L 787.80 534.40 L 773.40 530.40 L 780.00 535.00 L 782.00 536.70 L 787.30 542.80 L 796.90 548.40 L 804.60 553.80 L 806.80 554.90 L 811.80 556.70 L 812.70 557.50 L 816.70 562.80 L 818.80 565.00 L 822.50 567.70 L 827.80 570.50 L 829.90 572.10 L 831.60 573.90 L 833.70 577.00 L 835.10 580.30 L 836.20 583.60 L 836.70 586.60 L 837.10 591.40 L 837.80 593.50 L 840.30 595.50 L 842.30 596.40 L 847.40 597.80 L 839.40 597.80 Z" fill="url(#SVGID_2_)" fill-rule="nonzero" group-id="2,10,19" node-id="677" stroke="none" target-height="67.39996" target-width="74" target-x="773.4" target-y="530.4"/><path d="M 868.60 593.20 L 871.90 590.10 L 875.50 587.80 L 885.90 584.40 L 897.70 579.80 L 904.10 576.60 L 910.80 572.70 L 919.30 566.50 L 923.30 562.80 L 927.00 558.90 L 930.30 554.60 L 933.20 549.90 L 933.20 549.60 L 932.70 549.20 L 927.90 549.20 L 919.20 550.50 L 913.80 551.90 L 902.60 556.20 L 892.10 561.90 L 881.10 569.50 L 873.30 576.10 L 870.70 580.00 L 870.20 584.70 L 862.60 593.10 L 866.40 595.90 L 868.60 593.20 Z" fill="url(#SVGID_3_)" fill-rule="nonzero" group-id="2,10,19" node-id="679" stroke="none" target-height="46.700012" target-width="70.60004" target-x="862.6" target-y="549.2"/><path d="M 851.10 591.20 L 852.60 567.40 L 852.50 549.00 L 852.00 539.00 L 851.00 529.00 L 849.40 519.30 L 848.00 512.90 L 846.30 507.00 L 844.30 501.50 L 840.50 493.90 L 835.90 488.00 L 832.10 484.30 L 826.60 480.00 L 821.90 477.80 L 820.30 477.60 L 817.40 478.20 L 816.40 479.00 L 815.20 480.70 L 813.90 484.80 L 813.60 489.70 L 816.10 495.60 L 817.90 500.70 L 819.00 506.00 L 819.60 511.40 L 819.50 516.90 L 818.70 524.50 L 818.90 526.30 L 819.50 527.80 L 820.90 529.70 L 822.90 531.40 L 829.90 536.10 L 831.90 538.00 L 833.80 541.30 L 840.20 572.30 L 840.80 576.60 L 840.20 595.40 L 849.00 595.70 L 851.10 591.20 Z" fill="url(#SVGID_4_)" fill-rule="nonzero" group-id="2,10,19" node-id="681" stroke="none" target-height="118.100006" target-width="39" target-x="813.6" target-y="477.6"/><path d="M 851.00 591.50 L 851.70 584.90 L 852.40 572.50 L 852.70 555.80 L 852.50 546.60 L 851.80 537.00 L 850.80 527.30 L 849.20 518.00 L 846.10 506.20 L 844.10 501.00 L 841.70 495.90 L 839.00 491.70 L 836.00 488.00 L 829.20 481.80 L 824.10 478.60 L 820.50 477.50 L 818.90 477.70 L 816.70 478.90 L 815.50 480.50 L 814.70 482.50 L 814.00 486.60 L 813.90 489.60 L 814.40 490.80 L 816.60 493.80 L 820.20 497.90 L 822.40 499.80 L 826.50 502.00 L 828.10 502.30 L 832.60 502.00 L 834.70 502.10 L 836.00 502.60 L 837.20 503.40 L 838.00 504.60 L 838.50 506.00 L 838.70 508.50 L 838.00 518.40 L 838.00 522.00 L 838.40 525.50 L 840.00 529.90 L 842.70 533.90 L 843.90 536.40 L 844.90 539.60 L 845.90 544.60 L 846.50 550.40 L 846.80 562.20 L 846.50 572.80 L 846.00 580.00 L 843.80 594.10 L 844.70 595.40 L 845.40 595.70 L 848.50 595.70 L 849.90 594.50 L 851.00 591.50 Z" fill="url(#SVGID_5_)" fill-rule="nonzero" group-id="2,10,19" node-id="683" stroke="none" target-height="118.20001" target-width="38.799988" target-x="813.9" target-y="477.5"/><path d="M 859.70 596.00 L 861.10 587.50 L 863.50 579.00 L 865.30 574.40 L 867.60 569.70 L 871.60 563.80 L 874.00 561.00 L 876.80 558.50 L 879.90 556.40 L 883.30 554.80 L 889.00 553.10 L 891.50 551.90 L 894.00 550.20 L 898.60 545.50 L 904.20 537.30 L 911.80 528.70 L 915.40 525.50 L 919.10 522.70 L 926.80 518.50 L 927.40 517.60 L 927.30 517.10 L 925.80 516.30 L 922.90 515.80 L 911.40 518.90 L 899.90 523.10 L 893.60 526.00 L 887.10 529.60 L 878.80 535.20 L 873.10 540.10 L 869.50 542.60 L 865.10 547.10 L 862.60 550.80 L 860.30 555.00 L 858.00 560.50 L 855.50 569.20 L 853.90 580.10 L 853.40 593.80 L 859.70 596.00 Z" fill="url(#SVGID_6_)" fill-rule="nonzero" group-id="2,10,19" node-id="685" stroke="none" target-height="80.20001" target-width="74" target-x="853.4" target-y="515.8"/><path d="M 885.10 594.30 L 884.90 593.00 L 884.40 592.40 L 883.50 591.90 L 882.00 591.70 L 827.30 591.40 L 825.60 591.90 L 825.20 592.40 L 825.80 597.10 L 829.30 616.40 L 833.80 639.00 L 835.30 640.10 L 838.40 640.20 L 872.50 640.20 L 873.60 639.70 L 874.10 638.50 L 885.10 594.30" fill="url(#SVGID_7_)" fill-rule="nonzero" group-id="2,10,19" node-id="687" stroke="none" target-height="48.799988" target-width="59.899963" target-x="825.2" target-y="591.4"/></g></g><g node-id="877"><g node-id="886"><path d="M 230.70 569.30 L 214.80 569.30 L 209.70 590.60 L 209.40 593.60 L 210.30 598.50 L 211.20 600.60 L 212.40 602.50 L 214.10 604.10 L 218.70 606.80 L 223.20 608.30 L 225.50 608.30 L 228.60 607.00 L 230.50 605.50 L 232.90 603.10 L 234.40 600.90 L 235.50 597.80 L 235.30 593.00 L 231.50 571.30 L 230.70 569.30 Z" fill="#4b44be" fill-rule="nonzero" group-id="2,11,20" node-id="694" stroke="none" target-height="39" target-width="26.100006" target-x="209.4" target-y="569.3"/><path d="M 286.30 586.30 L 282.00 584.20 L 277.40 580.20 L 273.30 575.00 L 271.00 571.00 L 255.40 570.10 L 254.00 593.40 L 254.30 596.40 L 255.00 598.40 L 255.90 599.60 L 257.00 600.50 L 258.60 600.90 L 288.00 601.50 L 297.30 601.30 L 300.90 600.80 L 302.80 600.10 L 303.80 599.20 L 304.20 598.30 L 304.20 597.30 L 303.60 595.90 L 302.10 594.20 L 300.10 592.70 L 294.80 589.70 L 286.30 586.30 Z" fill="#4b44be" fill-rule="nonzero" group-id="2,11,20" node-id="696" stroke="none" target-height="31.400024" target-width="50.200012" target-x="254" target-y="570.1"/></g><path d="M 192.40 344.80 L 192.40 363.50 L 215.00 569.50 L 231.00 569.50 L 236.50 423.30 L 237.90 403.10 L 254.20 451.40 L 258.40 466.00 L 257.50 501.30 L 255.10 570.80 L 271.10 571.40 L 279.60 529.20 L 284.30 503.50 L 288.40 464.70 L 289.20 453.30 L 276.50 345.40 L 252.00 344.80 L 192.40 344.80 Z" fill="url(#SVGID_8_)" fill-rule="nonzero" group-id="2,11" node-id="699" stroke="none" target-height="226.60004" target-width="96.80002" target-x="192.4" target-y="344.8"/><path d="M 296.10 323.20 L 295.90 322.90 L 296.10 323.20 M 249.10 305.10 L 240.20 308.80 L 239.70 321.20 L 249.60 325.10 L 261.60 324.30 L 264.20 324.60 L 266.60 325.50 L 300.10 314.00 L 301.30 306.00 L 301.50 308.30 L 301.20 308.50 L 299.60 307.20 L 295.80 301.40 L 292.60 295.80 L 249.10 305.10 Z M 289.10 264.30 L 288.40 260.30 L 286.70 260.00 L 289.10 264.30 M 227.20 156.70 L 225.30 157.90 L 223.80 159.50 L 222.60 161.30 L 221.10 164.40 L 220.10 164.20 L 219.60 164.50 L 219.10 166.60 L 219.60 171.10 L 221.40 178.40 L 227.80 190.00 L 228.40 192.00 L 228.70 196.90 L 227.90 201.00 L 227.20 201.90 L 195.10 230.20 L 170.00 307.20 L 170.00 310.30 L 173.80 311.60 L 177.80 315.00 L 183.90 318.30 L 192.20 321.60 L 196.50 322.80 L 200.10 323.10 L 224.60 322.80 L 222.40 306.60 L 203.60 306.40 L 177.90 305.10 L 204.00 245.20 L 286.20 259.90 L 256.30 205.50 L 253.70 200.70 L 253.30 199.20 L 253.20 197.20 L 253.70 192.70 L 255.40 185.80 L 256.60 183.00 L 259.50 179.30 L 261.50 174.60 L 261.80 167.90 L 261.50 165.40 L 261.10 164.90 L 260.30 165.10 L 259.70 164.50 L 258.40 162.40 L 256.70 157.40 L 254.40 153.70 L 249.70 149.10 L 227.50 156.80" fill="url(#SVGID_9_)" fill-rule="nonzero" group-id="2,11" node-id="701" stroke="none" target-height="176.4" target-width="131.5" target-x="170" target-y="149.1"/><path d="M 195.80 213.70 L 192.90 215.90 L 190.30 218.40 L 187.70 222.40 L 186.80 224.70 L 174.60 270.50 L 165.90 298.30 L 165.00 302.40 L 164.80 305.60 L 165.10 308.20 L 165.90 310.60 L 167.00 312.50 L 168.50 314.10 L 170.30 315.40 L 174.70 317.50 L 188.90 321.10 L 194.50 322.90 L 201.20 323.60 L 203.20 323.50 L 207.10 322.60 L 209.40 320.80 L 210.20 318.30 L 210.10 313.10 L 209.30 308.40 L 208.40 306.60 L 203.50 306.20 L 197.80 305.10 L 190.10 303.10 L 190.00 302.60 L 191.40 296.70 L 204.10 258.10 L 200.20 282.50 L 197.90 299.20 L 197.30 306.20 L 211.00 306.60 L 214.80 307.30 L 217.60 308.10 L 219.60 309.10 L 221.50 310.40 L 222.70 311.80 L 224.00 314.80 L 224.00 317.80 L 223.60 318.90 L 222.70 319.90 L 221.40 320.80 L 219.00 321.70 L 215.80 322.30 L 208.90 322.90 L 194.90 322.90 L 192.40 337.30 L 192.00 343.10 L 192.40 345.60 L 192.80 346.00 L 202.80 350.30 L 233.70 362.90 L 234.70 362.40 L 235.00 361.90 L 239.30 349.60 L 239.70 349.50 L 243.80 363.00 L 244.40 363.80 L 246.20 363.80 L 281.10 356.30 L 280.80 322.90 L 280.60 320.20 L 280.10 318.20 L 279.70 317.70 L 276.60 318.60 L 263.20 320.60 L 255.50 321.40 L 246.80 321.70 L 245.70 321.50 L 243.00 319.70 L 241.30 317.00 L 241.00 315.10 L 241.60 311.50 L 243.10 308.70 L 244.20 308.00 L 249.90 306.50 L 277.70 302.40 L 279.80 301.70 L 280.30 301.20 L 280.40 283.00 L 280.10 273.50 L 279.50 265.30 L 277.50 269.90 L 263.60 293.70 L 259.90 300.70 L 258.70 303.50 L 258.40 305.00 L 258.00 322.80 L 291.00 320.20 L 296.70 317.50 L 298.80 316.00 L 300.80 314.30 L 302.60 311.50 L 303.10 310.00 L 303.50 304.40 L 302.50 291.20 L 301.70 285.90 L 297.70 266.50 L 291.30 238.60 L 290.00 229.80 L 288.30 224.70 L 286.90 222.00 L 283.40 218.00 L 279.40 215.40 L 261.20 207.00 L 256.90 205.70 L 256.10 206.10 L 254.70 207.80 L 243.10 226.90 L 242.30 227.70 L 241.30 228.00 L 240.20 228.00 L 239.20 227.50 L 238.50 226.70 L 234.20 219.30 L 224.10 204.10 L 207.50 209.10 L 200.30 211.60 L 195.80 213.70" fill="url(#SVGID_10_)" fill-rule="nonzero" group-id="2,11" node-id="703" stroke="none" target-height="159.69998" target-width="138.7" target-x="164.8" target-y="204.1"/><path d="M 249.50 149.20 L 234.70 154.80 L 225.60 158.70 L 223.70 160.70 L 221.10 164.50 L 219.80 164.50 L 219.20 166.00 L 216.90 160.10 L 216.50 157.20 L 217.00 152.50 L 217.80 149.80 L 219.10 147.20 L 220.90 144.80 L 223.30 142.50 L 229.70 138.00 L 235.30 135.50 L 239.10 135.20 L 243.50 136.00 L 246.90 137.40 L 252.50 142.20 L 258.90 146.10 L 261.20 148.90 L 262.10 150.80 L 262.70 153.30 L 262.80 155.40 L 262.40 163.10 L 261.60 168.90 L 261.50 166.30 L 261.20 165.90 L 259.90 166.20 L 259.30 165.70 L 258.00 163.60 L 255.90 158.30 L 251.20 150.90 L 249.50 149.20 Z" fill="url(#SVGID_11_)" fill-rule="nonzero" group-id="2,11" node-id="705" stroke="none" target-height="33.699997" target-width="46.299988" target-x="216.5" target-y="135.2"/><g node-id="887"><g clip-path="url(#SVGID_13_)" group-id="2,11,21" node-id="715"><path d="M 257.00 206.00 L 257.90 206.40 L 255.50 204.50 L 254.30 201.70 L 253.70 196.40 L 254.20 189.80 L 252.80 192.10 L 251.00 194.10 L 249.00 195.70 L 246.60 196.90 L 242.20 198.50 L 243.50 199.60 L 250.60 204.00 L 251.90 205.30 L 252.70 206.60 L 252.80 207.90 L 251.20 214.70" fill="#000000" fill-opacity="0.07" fill-rule="nonzero" group-id="2,11,21,26,29,32,35" node-id="717" stroke="none" target-height="24.899994" target-width="15.699997" target-x="242.2" target-y="189.8"/></g></g><g node-id="888"><g node-id="893"><g clip-path="url(#SVGID_15_)" group-id="2,11,22,27" node-id="734"><path d="M 273.30 250.20 L 284.40 292.20 L 284.10 296.10 L 283.40 299.00 L 282.10 300.80 L 280.80 301.30 L 272.40 303.00 L 268.80 304.10 L 264.30 304.90 L 259.70 305.10 L 257.80 304.80 L 256.70 304.30 L 256.40 303.70 L 256.50 302.90 L 257.10 301.70 L 265.80 297.00 L 270.40 293.70 L 272.00 292.00 L 273.30 289.40 L 273.10 286.80 L 272.30 285.40 L 268.40 281.60 L 266.60 279.40 L 265.20 277.10 L 264.20 274.60 L 263.30 269.60 L 263.50 265.90 L 264.30 262.30 L 265.60 258.80 L 268.80 252.80 L 270.50 248.10 L 271.20 244.90 L 271.20 240.60 L 273.30 250.20 Z" fill="#000000" fill-opacity="0.07" fill-rule="nonzero" group-id="2,11,22,27,30,33,36,38" node-id="736" stroke="none" target-height="64.5" target-width="28" target-x="256.4" target-y="240.6"/></g></g><g node-id="894"><g clip-path="url(#SVGID_17_)" group-id="2,11,22,28" node-id="751"><path d="M 226.40 360.80 L 224.10 374.70 L 222.20 388.80 L 220.80 404.50 L 220.40 412.40 L 220.70 424.50 L 223.90 444.70 L 224.30 451.50 L 224.40 461.80 L 223.90 472.10 L 223.00 482.40 L 219.60 510.20 L 218.50 524.50 L 219.00 534.70 L 223.30 577.10 L 224.20 589.80 L 225.40 596.50 L 225.80 600.40 L 225.50 602.00 L 224.90 603.00 L 224.20 603.20 L 220.60 602.60 L 214.50 600.30 L 213.30 599.50 L 212.50 598.40 L 212.00 597.10 L 211.90 595.80 L 216.70 575.60 L 196.80 389.50 L 194.00 368.80 L 193.10 358.80 L 193.00 351.10 L 193.60 348.20 L 194.00 347.90 L 195.20 348.10 L 204.00 351.20 L 226.40 360.80" fill="#000000" fill-opacity="0.07" fill-rule="nonzero" group-id="2,11,22,28,31,34,37,39" node-id="753" stroke="none" target-height="255.30002" target-width="33.399994" target-x="193" target-y="347.9"/></g></g><path d="M 217.30 292.40 L 254.90 297.10 L 255.80 297.70 L 256.10 298.90 L 255.00 332.90 L 254.50 334.50 L 254.00 335.00 L 253.30 335.10 L 215.90 327.90 L 215.00 327.30 L 214.70 326.30 L 214.60 322.60 L 220.30 320.90 L 222.10 319.50 L 223.30 317.50 L 222.60 313.90 L 220.90 310.70 L 215.00 307.30 L 215.40 294.00 L 215.90 292.90 L 217.30 292.40 Z" fill="#ffffff" fill-rule="nonzero" group-id="2,11,22" node-id="760" stroke="none" target-height="42.700012" target-width="41.5" target-x="214.6" target-y="292.4"/></g></g><g node-id="878"><path d="M 528.40 354.50 L 611.90 351.00 L 624.30 292.80 L 539.50 293.50 L 526.80 354.40" fill="url(#SVGID_18_)" fill-rule="nonzero" group-id="2,12" node-id="765" stroke="none" target-height="61.700012" target-width="97.5" target-x="526.8" target-y="292.8"/><path d="M 581.70 325.40 L 581.50 326.90 L 580.20 329.20 L 578.00 330.60 L 576.60 330.80 L 574.00 330.10 L 572.20 328.10 L 571.70 326.90 L 571.50 325.40 L 572.20 322.70 L 574.00 320.70 L 576.60 320.00 L 578.00 320.20 L 580.20 321.60 L 581.50 323.90 L 581.70 325.40 Z" fill="#ffffff" fill-rule="nonzero" group-id="2,12" node-id="767" stroke="none" target-height="10.799988" target-width="10.200012" target-x="571.5" target-y="320"/><path d="M 527.60 350.20 L 481.60 350.20 L 480.80 353.30 L 480.90 353.70 L 481.30 354.00 L 526.80 354.40 L 527.40 353.90 L 528.20 350.80 L 528.20 350.40 L 527.60 350.20 Z" fill="url(#SVGID_19_)" fill-rule="nonzero" group-id="2,12" node-id="769" stroke="none" target-height="4.1999817" target-width="47.400024" target-x="480.8" target-y="350.2"/><path d="M 538.10 291.90 L 622.90 291.30 L 624.30 292.80 L 539.80 293.50 L 539.40 293.80 L 528.30 354.30 L 527.30 354.40 L 526.90 353.90 L 537.40 292.50 L 538.10 291.90 Z" fill="url(#SVGID_20_)" fill-rule="nonzero" group-id="2,12" node-id="771" stroke="none" target-height="63.100006" target-width="97.39996" target-x="526.9" target-y="291.3"/></g><g node-id="879"><path d="M 685.60 323.70 L 679.80 356.60 L 687.60 356.10 L 690.90 356.60 L 685.60 323.70" fill="url(#SVGID_21_)" fill-rule="nonzero" group-id="2,13" node-id="775" stroke="none" target-height="32.899994" target-width="11.100037" target-x="679.8" target-y="323.7"/><path d="M 685.60 323.70 L 690.90 356.60 L 699.80 355.80 L 714.20 355.30 L 725.10 355.80 L 730.30 356.40 L 724.20 323.80 L 685.60 323.70" fill="#fcfcfc" fill-rule="nonzero" group-id="2,13" node-id="777" stroke="none" target-height="32.899994" target-width="44.700012" target-x="685.6" target-y="323.7"/><path d="M 707.80 340.40 L 702.40 340.50 L 701.70 336.20 L 707.00 336.20 Z" fill="#58caea" fill-rule="nonzero" group-id="2,13" node-id="779" stroke="none" target-height="4.299988" target-width="6.0999756" target-x="701.7" target-y="336.2"/><path d="M 716.40 340.20 L 711.00 340.30 L 710.20 335.90 L 715.50 335.90 Z" fill="#58caea" fill-rule="nonzero" group-id="2,13" node-id="781" stroke="none" target-height="4.399994" target-width="6.200012" target-x="710.2" target-y="335.9"/><path d="M 724.50 340.20 L 719.10 340.30 L 718.30 336.00 L 723.60 336.00 Z" fill="#58caea" fill-rule="nonzero" group-id="2,13" node-id="783" stroke="none" target-height="4.299988" target-width="6.200012" target-x="718.3" target-y="336"/><path d="M 725.50 346.10 L 720.20 346.20 L 719.40 341.80 L 724.60 341.80 Z" fill="#58caea" fill-rule="nonzero" group-id="2,13" node-id="785" stroke="none" target-height="4.4000244" target-width="6.0999756" target-x="719.4" target-y="341.8"/><path d="M 709.00 346.00 L 703.60 346.10 L 702.80 341.80 L 708.10 341.70 Z" fill="#58caea" fill-rule="nonzero" group-id="2,13" node-id="787" stroke="none" target-height="4.399994" target-width="6.200012" target-x="702.8" target-y="341.7"/><path d="M 700.70 346.30 L 695.30 346.40 L 694.50 342.00 L 699.80 342.00 Z" fill="#58caea" fill-rule="nonzero" group-id="2,13" node-id="789" stroke="none" target-height="4.399994" target-width="6.200012" target-x="694.5" target-y="342"/><path d="M 702.00 352.30 L 696.60 352.40 L 695.80 348.10 L 701.10 348.10 Z" fill="#58caea" fill-rule="nonzero" group-id="2,13" node-id="791" stroke="none" target-height="4.299988" target-width="6.200012" target-x="695.8" target-y="348.1"/><path d="M 710.30 352.20 L 704.90 352.30 L 704.10 348.00 L 709.40 347.90 Z" fill="#58caea" fill-rule="nonzero" group-id="2,13" node-id="793" stroke="none" target-height="4.399994" target-width="6.200012" target-x="704.1" target-y="347.9"/><path d="M 718.80 352.20 L 713.40 352.30 L 712.60 347.90 L 717.90 347.90 Z" fill="#58caea" fill-rule="nonzero" group-id="2,13" node-id="795" stroke="none" target-height="4.399994" target-width="6.200012" target-x="712.6" target-y="347.9"/><path d="M 717.50 346.00 L 712.10 346.10 L 711.30 341.80 L 716.60 341.70 Z" fill="url(#SVGID_22_)" fill-rule="nonzero" group-id="2,13" node-id="797" stroke="none" target-height="4.399994" target-width="6.200012" target-x="711.3" target-y="341.7"/><path d="M 685.60 323.70 L 687.10 333.10 L 726.00 332.90 L 724.20 323.80 Z" fill="url(#SVGID_23_)" fill-rule="nonzero" group-id="2,13" node-id="799" stroke="none" target-height="9.399994" target-width="40.400024" target-x="685.6" target-y="323.7"/><path d="M 696.20 321.60 L 699.20 321.50 L 699.50 325.70 L 696.60 325.70 Z" fill="url(#SVGID_24_)" fill-rule="nonzero" group-id="2,13" node-id="801" stroke="none" target-height="4.200012" target-width="3.2999878" target-x="696.2" target-y="321.5"/><path d="M 714.70 321.80 L 717.20 321.70 L 717.50 325.60 L 715.00 325.60 Z" fill="url(#SVGID_25_)" fill-rule="nonzero" group-id="2,13" node-id="803" stroke="none" target-height="3.899994" target-width="2.7999878" target-x="714.7" target-y="321.7"/></g><g node-id="880"><g node-id="889"><path d="M 526.40 183.80 L 544.10 183.80 L 544.30 184.30 L 526.40 184.40 L 526.10 184.10 L 526.40 183.80 Z" fill="#f4f4f4" fill-rule="nonzero" group-id="2,14,23" node-id="808" stroke="none" target-height="0.59999084" target-width="18.200012" target-x="526.1" target-y="183.8"/><path d="M 526.40 184.90 L 544.10 184.90 L 544.30 185.40 L 526.40 185.50 L 526.10 185.20 L 526.40 184.90 Z" fill="#f4f4f4" fill-rule="nonzero" group-id="2,14,23" node-id="810" stroke="none" target-height="0.6000061" target-width="18.200012" target-x="526.1" target-y="184.9"/><path d="M 526.40 186.00 L 544.10 186.00 L 544.30 186.50 L 526.40 186.60 L 526.10 186.30 L 526.40 186.00 Z" fill="#f4f4f4" fill-rule="nonzero" group-id="2,14,23" node-id="812" stroke="none" target-height="0.6000061" target-width="18.200012" target-x="526.1" target-y="186"/><path d="M 530.40 189.40 L 546.50 189.40 L 546.70 189.90 L 530.40 190.00 L 530.10 189.70 L 530.40 189.40 Z" fill="#f4f4f4" fill-rule="nonzero" group-id="2,14,23" node-id="814" stroke="none" target-height="0.6000061" target-width="16.600037" target-x="530.1" target-y="189.4"/><path d="M 530.40 190.50 L 546.50 190.50 L 546.70 191.00 L 530.40 191.10 L 530.10 190.80 L 530.40 190.50 Z" fill="#f4f4f4" fill-rule="nonzero" group-id="2,14,23" node-id="816" stroke="none" target-height="0.6000061" target-width="16.600037" target-x="530.1" target-y="190.5"/><path d="M 530.40 191.50 L 546.50 191.50 L 546.70 192.00 L 530.40 192.10 L 530.10 191.80 L 530.40 191.50 Z" fill="#f4f4f4" fill-rule="nonzero" group-id="2,14,23" node-id="818" stroke="none" target-height="0.6000061" target-width="16.600037" target-x="530.1" target-y="191.5"/></g><g node-id="890"><path d="M 502.70 182.70 L 500.90 183.60 L 500.30 185.30 L 500.90 187.00 L 502.80 187.80 L 544.80 187.90 L 544.80 187.20 L 526.00 187.20 L 525.60 187.00 L 525.50 186.40 L 525.50 183.90 L 526.00 183.30 L 544.40 183.50 L 544.40 182.60 L 502.70 182.70 Z" fill="url(#SVGID_27_)" fill-rule="nonzero" group-id="2,14,24" node-id="822" stroke="none" target-height="5.299988" target-width="44.5" target-x="500.3" target-y="182.6"/><path d="M 525.70 183.70 L 543.90 183.80" fill="none" group-id="2,14,24" node-id="824" stroke="none" target-height="0.1000061" target-width="18.200012" target-x="525.7" target-y="183.7"/><path d="M 525.70 184.20 L 543.90 184.30" fill="none" group-id="2,14,24" node-id="826" stroke="none" target-height="0.1000061" target-width="18.200012" target-x="525.7" target-y="184.2"/><path d="M 525.70 184.70 L 543.90 184.80" fill="none" group-id="2,14,24" node-id="828" stroke="none" target-height="0.1000061" target-width="18.200012" target-x="525.7" target-y="184.7"/><path d="M 525.70 185.10 L 543.90 185.20" fill="none" group-id="2,14,24" node-id="830" stroke="none" target-height="0.099990845" target-width="18.200012" target-x="525.7" target-y="185.1"/><path d="M 525.70 185.70 L 543.90 185.80" fill="none" group-id="2,14,24" node-id="832" stroke="none" target-height="0.1000061" target-width="18.200012" target-x="525.7" target-y="185.7"/><path d="M 525.70 186.30 L 543.90 186.40" fill="none" group-id="2,14,24" node-id="834" stroke="none" target-height="0.099990845" target-width="18.200012" target-x="525.7" target-y="186.3"/></g><g node-id="891"><path d="M 504.40 187.80 L 502.50 188.80 L 501.80 190.70 L 502.30 192.50 L 504.10 193.60 L 547.10 193.60 L 547.10 192.70 L 530.50 192.70 L 529.70 192.30 L 529.60 191.60 L 529.70 189.00 L 530.40 188.60 L 546.90 188.80 L 546.90 187.70 L 504.40 187.80 Z" fill="url(#SVGID_28_)" fill-rule="nonzero" group-id="2,14,25" node-id="838" stroke="none" target-height="5.900009" target-width="45.299988" target-x="501.8" target-y="187.7"/><path d="M 530.00 189.20 L 545.80 189.30" fill="none" group-id="2,14,25" node-id="840" stroke="none" target-height="0.1000061" target-width="15.799988" target-x="530" target-y="189.2"/><path d="M 530.00 189.70 L 545.80 189.70" fill="none" group-id="2,14,25" node-id="842" stroke="none" target-height="0" target-width="15.799988" target-x="530" target-y="189.7"/><path d="M 530.00 190.10 L 545.80 190.20" fill="none" group-id="2,14,25" node-id="844" stroke="none" target-height="0.099990845" target-width="15.799988" target-x="530" target-y="190.1"/><path d="M 530.00 190.60 L 545.80 190.70" fill="none" group-id="2,14,25" node-id="846" stroke="none" target-height="0.099990845" target-width="15.799988" target-x="530" target-y="190.6"/><path d="M 530.00 191.20 L 545.80 191.30" fill="none" group-id="2,14,25" node-id="848" stroke="none" target-height="0.1000061" target-width="15.799988" target-x="530" target-y="191.2"/><path d="M 530.00 191.80 L 545.80 191.90" fill="none" group-id="2,14,25" node-id="850" stroke="none" target-height="0.099990845" target-width="15.799988" target-x="530" target-y="191.8"/><path d="M 530.00 192.30 L 545.80 192.40" fill="none" group-id="2,14,25" node-id="852" stroke="none" target-height="0.099990845" target-width="15.799988" target-x="530" target-y="192.3"/><path d="M 528.60 183.80 L 530.00 183.80 L 530.50 184.30 L 531.30 187.00 L 532.10 188.30 L 532.30 190.40 L 531.70 190.00 L 531.10 190.60 L 530.90 188.30 L 529.90 186.40 L 529.90 185.10 L 529.70 184.60 L 528.60 183.80 Z" fill="#f8246a" fill-rule="nonzero" group-id="2,14,25" node-id="854" stroke="none" target-height="6.800003" target-width="3.7000122" target-x="528.6" target-y="183.8"/></g><path d="M 551.70 157.80 L 555.50 157.90 L 556.20 158.60 L 556.30 159.20 L 556.30 193.00 L 556.20 193.60 L 555.50 194.30 L 551.10 194.30 L 550.40 193.60 L 550.30 193.00 L 550.30 159.20 L 550.70 158.20 L 551.70 157.80 Z" fill="url(#SVGID_29_)" fill-rule="nonzero" group-id="2,14" node-id="857" stroke="none" target-height="36.5" target-width="6" target-x="550.3" target-y="157.8"/><path d="M 484.30 157.50 L 488.10 157.60 L 488.80 158.30 L 488.90 158.90 L 488.90 192.70 L 488.80 193.30 L 488.10 194.00 L 483.70 194.00 L 483.00 193.30 L 482.90 192.70 L 482.90 158.90 L 483.30 157.90 L 484.30 157.50 Z" fill="url(#SVGID_30_)" fill-rule="nonzero" group-id="2,14" node-id="859" stroke="none" target-height="36.5" target-width="6" target-x="482.9" target-y="157.5"/><path d="M 563.10 172.30 L 566.00 170.80 L 567.00 171.10 L 578.60 191.00 L 578.80 191.60 L 578.50 192.60 L 575.80 194.20 L 575.20 194.40 L 574.20 194.10 L 562.60 174.20 L 562.40 173.20 L 563.10 172.30 Z" fill="url(#SVGID_31_)" fill-rule="nonzero" group-id="2,14" node-id="861" stroke="none" target-height="23.59999" target-width="16.399963" target-x="562.4" target-y="170.8"/><path d="M 557.70 163.00 L 561.50 163.10 L 562.20 163.80 L 562.30 164.40 L 562.30 193.00 L 561.90 194.00 L 560.90 194.40 L 557.10 194.30 L 556.40 193.60 L 556.30 193.00 L 556.30 164.40 L 556.70 163.40 L 557.70 163.00 Z" fill="url(#SVGID_32_)" fill-rule="nonzero" group-id="2,14" node-id="863" stroke="none" target-height="31.399994" target-width="6" target-x="556.3" target-y="163"/><path d="M 490.40 158.80 L 494.20 158.90 L 494.90 159.60 L 495.00 160.20 L 495.00 192.70 L 494.90 193.30 L 494.20 194.00 L 489.80 194.00 L 489.10 193.30 L 489.00 192.70 L 489.00 160.20 L 489.40 159.20 L 490.40 158.80 Z" fill="url(#SVGID_33_)" fill-rule="nonzero" group-id="2,14" node-id="865" stroke="none" target-height="35.199997" target-width="6" target-x="489" target-y="158.8"/></g></g></svg>