<svg width="933.998779" height="740.771484" viewBox="0 0 933.999 740.771" fill="none" xmlns="http://www.w3.org/2000/svg" xmlns:xlink="http://www.w3.org/1999/xlink">
	<desc>
			Created with Pixso.
	</desc>
	<defs>
		<linearGradient x1="74.921875" y1="536.815552" x2="281.527588" y2="12950.975586" id="paint_linear_5_60_0" gradientUnits="userSpaceOnUse">
			<stop stop-color="#C3D2EF"/>
			<stop offset="1.000000" stop-color="#FFFFFF"/>
		</linearGradient>
		<linearGradient x1="425.764954" y1="556.773987" x2="470.309998" y2="2238.548340" id="paint_linear_5_136_0" gradientUnits="userSpaceOnUse">
			<stop stop-color="#C3D2EF"/>
			<stop offset="1.000000" stop-color="#FFFFFF"/>
		</linearGradient>
		<linearGradient x1="389.427948" y1="275.667877" x2="389.427948" y2="339.093658" id="paint_linear_5_157_0" gradientUnits="userSpaceOnUse">
			<stop stop-color="#BE79FE"/>
			<stop offset="1.000000" stop-color="#BE79FE" stop-opacity="0.000000"/>
		</linearGradient>
	</defs>
	<path id="路径_1166" d="M11.29 207.02C49.13 80.29 201.63 140.91 241.36 140.91C281.09 140.91 820.23 144.49 844.82 246.56C869.41 348.64 977.24 405.94 914.81 481.16C852.39 556.37 842.93 601.14 772.93 631.58C702.94 662.02 729.42 760.52 502.42 737.24C275.41 713.96 334.06 667.4 250.82 658.45C167.58 649.49 38.94 728.29 35.16 642.33C31.38 556.37 43.88 553.47 43.31 494.93C42.73 436.38 -26.54 333.75 11.29 207.02Z" fill="#F2F6FE" fill-opacity="1.000000" fill-rule="nonzero"/>
	<path id="联合_164" d="M777.3 105.33C776.25 105.33 775.23 105.16 774.25 104.81C773.26 104.47 772.35 103.97 771.53 103.32C770.71 102.67 770.02 101.9 769.46 101.01C768.9 100.12 768.5 99.17 768.26 98.15C768.02 97.13 767.95 96.09 768.06 95.05C768.17 94 768.44 93.01 768.89 92.05C769.33 91.1 769.92 90.25 770.64 89.5C771.37 88.75 772.21 88.13 773.14 87.66C773.12 87.34 773.1 87.01 773.1 86.68C773.08 85.14 773.32 83.65 773.82 82.19C774.31 80.74 775.04 79.41 775.99 78.21C776.94 77 778.07 76 779.37 75.19C780.68 74.38 782.08 73.81 783.57 73.49C785.07 73.17 786.58 73.11 788.1 73.31C789.61 73.52 791.05 73.97 792.42 74.67C793.78 75.38 794.98 76.29 796.03 77.42C797.07 78.54 797.9 79.81 798.51 81.22C799.5 80.71 800.56 80.46 801.68 80.46C802.55 80.47 803.38 80.62 804.19 80.93C805 81.24 805.72 81.68 806.37 82.25C807.02 82.82 807.55 83.48 807.96 84.25C808.37 85.01 808.63 85.82 808.75 86.68C809.98 86.68 811.17 86.92 812.31 87.4C813.44 87.87 814.45 88.55 815.32 89.43C816.18 90.3 816.85 91.31 817.32 92.46C817.79 93.6 818.03 94.79 818.02 96.03C818.02 97.26 817.78 98.45 817.31 99.59C816.83 100.74 816.16 101.74 815.29 102.62C814.42 103.49 813.41 104.16 812.27 104.63C811.13 105.1 809.95 105.34 808.71 105.33L777.3 105.33Z" fill="#E2EFFF" fill-opacity="1.000000" fill-rule="nonzero"/>
	<path id="联合_165" d="M603.68 57C602.79 57 601.94 56.82 601.12 56.47C600.3 56.11 599.58 55.61 598.95 54.96C598.33 54.31 597.84 53.55 597.51 52.7C597.17 51.85 597 50.96 597 50.04C596.99 49.11 597.16 48.22 597.5 47.37C597.84 46.52 598.32 45.76 598.95 45.11C599.57 44.45 600.29 43.95 601.11 43.6C601.93 43.24 602.78 43.06 603.66 43.06C603.84 41.73 604.41 40.63 605.38 39.75C606.34 38.87 607.47 38.42 608.75 38.42C609.56 38.42 610.32 38.6 611.04 38.98C611.48 37.93 612.07 36.98 612.83 36.14C613.58 35.31 614.45 34.62 615.43 34.1C616.4 33.57 617.44 33.23 618.53 33.08C619.62 32.93 620.71 32.98 621.78 33.22C622.86 33.46 623.87 33.88 624.8 34.48C625.74 35.09 626.55 35.84 627.24 36.73C627.92 37.63 628.45 38.62 628.81 39.71C629.16 40.8 629.34 41.91 629.32 43.06C629.32 43.31 629.32 43.55 629.3 43.79C630.68 44.51 631.71 45.61 632.36 47.07C633.02 48.53 633.17 50.05 632.82 51.63C632.46 53.2 631.68 54.49 630.46 55.49C629.25 56.49 627.87 57 626.32 57L603.68 57Z" fill="#E2EFFF" fill-opacity="1.000000" fill-rule="nonzero"/>
	<path id="联合_165" d="M711.68 24C710.79 24 709.94 23.82 709.12 23.47C708.3 23.11 707.58 22.61 706.95 21.96C706.33 21.31 705.85 20.55 705.51 19.7C705.17 18.85 705 17.96 705 17.04C704.99 16.11 705.16 15.22 705.5 14.37C705.84 13.52 706.32 12.76 706.95 12.11C707.57 11.45 708.29 10.95 709.11 10.6C709.93 10.24 710.78 10.06 711.66 10.06C711.84 8.73 712.41 7.63 713.38 6.75C714.34 5.87 715.47 5.42 716.75 5.42C717.56 5.42 718.32 5.6 719.04 5.98C719.48 4.93 720.07 3.98 720.83 3.14C721.58 2.31 722.45 1.62 723.43 1.1C724.4 0.57 725.44 0.23 726.53 0.08C727.62 -0.07 728.71 -0.02 729.78 0.22C730.86 0.46 731.87 0.88 732.8 1.48C733.74 2.09 734.55 2.84 735.24 3.73C735.92 4.63 736.45 5.62 736.81 6.71C737.16 7.8 737.34 8.91 737.32 10.06C737.32 10.31 737.32 10.55 737.3 10.79C738.68 11.51 739.71 12.61 740.36 14.07C741.02 15.53 741.17 17.05 740.82 18.63C740.46 20.2 739.68 21.49 738.46 22.49C737.25 23.49 735.87 24 734.32 24L711.68 24Z" fill="#E2EFFF" fill-opacity="1.000000" fill-rule="nonzero"/>
	<path id="矩形_1402" d="M846.7 131.82C848.82 131.82 850.86 132.23 852.82 133.04C854.79 133.86 856.52 135.02 858.02 136.52C859.52 138.03 860.67 139.77 861.48 141.73C862.3 143.7 862.7 145.75 862.7 147.88L862.7 436.02C862.7 438.15 862.3 440.2 861.48 442.17C860.67 444.14 859.52 445.87 858.02 447.38C856.52 448.89 854.79 450.05 852.82 450.86C850.86 451.68 848.82 452.08 846.7 452.08L434.33 452.08C432.2 452.08 430.16 451.68 428.2 450.86C426.24 450.05 424.51 448.89 423.01 447.38C421.51 445.87 420.36 444.14 419.54 442.17C418.73 440.2 418.33 438.15 418.33 436.02L418.33 147.88C418.33 145.75 418.73 143.7 419.54 141.73C420.36 139.77 421.51 138.03 423.01 136.52C424.51 135.02 426.24 133.86 428.2 133.04C430.16 132.23 432.2 131.82 434.33 131.82L846.7 131.82Z" fill="#7030AB" fill-opacity="1.000000" fill-rule="nonzero"/>
	<path id="矩形_1404" d="M831.91 180.3C833.23 180.3 834.51 180.55 835.73 181.06C836.96 181.57 838.04 182.3 838.98 183.24C839.91 184.18 840.64 185.27 841.14 186.5C841.65 187.73 841.91 189.01 841.91 190.34L841.91 422.45C841.91 423.78 841.65 425.06 841.14 426.29C840.64 427.52 839.91 428.61 838.98 429.55C838.04 430.49 836.96 431.22 835.73 431.73C834.51 432.24 833.23 432.49 831.91 432.49L448.06 432.49C446.74 432.49 445.46 432.24 444.24 431.73C443.01 431.22 441.93 430.49 440.99 429.55C440.06 428.61 439.33 427.52 438.83 426.29C438.32 425.06 438.06 423.78 438.06 422.45L438.06 190.34C438.06 189.01 438.32 187.73 438.83 186.5C439.33 185.27 440.06 184.18 440.99 183.24C441.93 182.3 443.01 181.57 444.24 181.06C445.46 180.55 446.74 180.3 448.06 180.3L831.91 180.3Z" fill="#BE79FE" fill-opacity="1.000000" fill-rule="nonzero"/>
	<path id="椭圆_365" d="M505.92 160.04C505.92 159.22 506.07 158.43 506.38 157.67C506.7 156.91 507.14 156.24 507.72 155.66C508.3 155.08 508.97 154.63 509.72 154.32C510.48 154 511.27 153.85 512.08 153.85C512.9 153.85 513.69 154 514.44 154.32C515.2 154.63 515.87 155.08 516.44 155.66C517.02 156.24 517.47 156.91 517.78 157.67C518.09 158.43 518.25 159.22 518.25 160.04C518.25 160.86 518.09 161.65 517.78 162.41C517.47 163.17 517.02 163.84 516.44 164.42C515.87 165 515.2 165.45 514.44 165.76C513.69 166.07 512.9 166.23 512.08 166.23C511.27 166.23 510.48 166.07 509.72 165.76C508.97 165.45 508.3 165 507.72 164.42C507.14 163.84 506.7 163.17 506.38 162.41C506.07 161.65 505.92 160.86 505.92 160.04Z" fill="#AD7BDC" fill-opacity="1.000000" fill-rule="nonzero"/>
	<path id="椭圆_366" d="M763.75 160.04C763.75 159.22 763.9 158.43 764.22 157.67C764.53 156.91 764.97 156.24 765.55 155.66C766.13 155.08 766.8 154.63 767.55 154.32C768.31 154 769.1 153.85 769.91 153.85C770.73 153.85 771.52 154 772.27 154.32C773.03 154.63 773.7 155.08 774.28 155.66C774.85 156.24 775.3 156.91 775.61 157.67C775.93 158.43 776.08 159.22 776.08 160.04C776.08 160.86 775.93 161.65 775.61 162.41C775.3 163.17 774.85 163.84 774.28 164.42C773.7 165 773.03 165.45 772.27 165.76C771.52 166.07 770.73 166.23 769.91 166.23C769.1 166.23 768.31 166.07 767.55 165.76C766.8 165.45 766.13 165 765.55 164.42C764.97 163.84 764.53 163.17 764.22 162.41C763.9 161.65 763.75 160.86 763.75 160.04Z" fill="#AD7BDC" fill-opacity="1.000000" fill-rule="nonzero"/>
	<path id="矩形_1431" d="M715.63 153.85C716.45 153.85 717.24 154 717.99 154.32C718.75 154.63 719.42 155.08 720 155.66C720.57 156.24 721.02 156.91 721.33 157.67C721.65 158.43 721.8 159.22 721.8 160.04C721.8 160.86 721.65 161.65 721.33 162.41C721.02 163.17 720.57 163.84 720 164.42C719.42 165 718.75 165.45 717.99 165.76C717.24 166.07 716.45 166.23 715.63 166.23L567.6 166.23C566.78 166.23 565.99 166.07 565.24 165.76C564.48 165.45 563.81 165 563.24 164.42C562.66 163.84 562.21 163.17 561.9 162.41C561.59 161.65 561.43 160.86 561.43 160.04C561.43 159.22 561.59 158.43 561.9 157.67C562.21 156.91 562.66 156.24 563.24 155.66C563.81 155.08 564.48 154.63 565.24 154.32C565.99 154 566.78 153.85 567.6 153.85L715.63 153.85Z" fill="#AD7BDC" fill-opacity="1.000000" fill-rule="nonzero"/>
	<path id="矩形_1432" d="M541.7 212.69C543.03 212.69 544.3 212.94 545.53 213.45C546.75 213.96 547.83 214.69 548.77 215.63C549.71 216.57 550.43 217.66 550.94 218.89C551.45 220.12 551.7 221.4 551.7 222.73L551.7 276.96C551.7 278.29 551.45 279.57 550.94 280.8C550.43 282.03 549.71 283.11 548.77 284.06C547.83 285 546.75 285.72 545.53 286.23C544.3 286.74 543.03 287 541.7 287L487.68 287C486.35 287 485.08 286.74 483.85 286.23C482.63 285.72 481.55 285 480.61 284.06C479.67 283.11 478.95 282.03 478.44 280.8C477.93 279.57 477.68 278.29 477.68 276.96L477.68 222.73C477.68 221.4 477.93 220.12 478.44 218.89C478.95 217.66 479.67 216.57 480.61 215.63C481.55 214.69 482.63 213.96 483.85 213.45C485.08 212.94 486.35 212.69 487.68 212.69L541.7 212.69Z" fill="#F1F7FF" fill-opacity="1.000000" fill-rule="nonzero"/>
	<path id="path" d="M496.19 250.46C496.19 249.28 496.3 248.12 496.53 246.96C496.76 245.8 497.1 244.68 497.55 243.59C498 242.5 498.55 241.47 499.2 240.49C499.85 239.51 500.59 238.6 501.43 237.76C502.26 236.93 503.16 236.19 504.14 235.53C505.11 234.88 506.14 234.32 507.23 233.87C508.31 233.42 509.43 233.08 510.58 232.85C511.74 232.62 512.9 232.5 514.07 232.5C515.25 232.5 516.41 232.62 517.56 232.85C518.71 233.08 519.83 233.42 520.92 233.87C522 234.32 523.03 234.88 524.01 235.53C524.99 236.19 525.89 236.93 526.72 237.76C527.55 238.6 528.29 239.51 528.95 240.49C529.6 241.47 530.15 242.5 530.6 243.59C531.05 244.68 531.39 245.8 531.62 246.96C531.85 248.12 531.96 249.28 531.96 250.46C531.96 251.64 531.85 252.81 531.62 253.97C531.39 255.12 531.05 256.25 530.6 257.33C530.15 258.42 529.6 259.46 528.95 260.44C528.29 261.42 527.55 262.33 526.72 263.16C525.89 263.99 524.99 264.74 524.01 265.39C523.03 266.05 522 266.6 520.92 267.05C519.83 267.5 518.71 267.85 517.56 268.07C516.41 268.31 515.25 268.42 514.07 268.42C512.9 268.42 511.74 268.31 510.58 268.07C509.43 267.85 508.31 267.5 507.23 267.05C506.14 266.6 505.11 266.05 504.14 265.39C503.16 264.74 502.26 263.99 501.43 263.16C500.59 262.33 499.85 261.42 499.2 260.44C498.55 259.46 498 258.42 497.55 257.33C497.1 256.25 496.76 255.12 496.53 253.97C496.3 252.81 496.19 251.64 496.19 250.46Z" fill="#000000" fill-opacity="0" fill-rule="nonzero"/>
	<path id="path" d="M496.53 246.96C496.76 245.8 497.1 244.68 497.55 243.59C498 242.5 498.55 241.47 499.2 240.49C499.85 239.51 500.59 238.6 501.43 237.76C502.26 236.93 503.16 236.19 504.14 235.53C505.11 234.88 506.14 234.32 507.23 233.87C508.31 233.42 509.43 233.08 510.58 232.85C511.74 232.62 512.9 232.5 514.07 232.5C515.25 232.5 516.41 232.62 517.56 232.85C518.71 233.08 519.83 233.42 520.92 233.87C522 234.32 523.03 234.88 524.01 235.53C524.99 236.19 525.89 236.93 526.72 237.76C527.55 238.6 528.29 239.51 528.95 240.49C529.6 241.47 530.15 242.5 530.6 243.59C531.05 244.68 531.39 245.8 531.62 246.96C531.85 248.12 531.96 249.28 531.96 250.46C531.96 251.64 531.85 252.81 531.62 253.97C531.39 255.12 531.05 256.25 530.6 257.33C530.15 258.42 529.6 259.46 528.95 260.44C528.29 261.42 527.55 262.33 526.72 263.16C525.89 263.99 524.99 264.74 524.01 265.39C523.03 266.05 522 266.6 520.92 267.05C519.83 267.5 518.71 267.85 517.56 268.07C516.41 268.31 515.25 268.42 514.07 268.42C512.9 268.42 511.74 268.31 510.58 268.07C509.43 267.85 508.31 267.5 507.23 267.05C506.14 266.6 505.11 266.05 504.14 265.39C503.16 264.74 502.26 263.99 501.43 263.16C500.59 262.33 499.85 261.42 499.2 260.44C498.55 259.46 498 258.42 497.55 257.33C497.1 256.25 496.76 255.12 496.53 253.97C496.3 252.81 496.19 251.64 496.19 250.46C496.19 249.28 496.3 248.12 496.53 246.96Z" stroke="#000000" stroke-opacity="0" stroke-width="1.000000"/>
	<path id="path" d="M514.07 234.51C509.83 234.51 505.84 236.17 502.84 239.18C499.84 242.2 498.19 246.2 498.19 250.46C498.19 254.72 499.84 258.73 502.84 261.74C505.84 264.75 509.83 266.41 514.07 266.41C518.32 266.41 522.31 264.75 525.31 261.74C528.31 258.73 529.96 254.72 529.96 250.46C529.96 246.2 528.31 242.2 525.31 239.18C522.31 236.17 518.32 234.51 514.07 234.51ZM514.07 232.5C523.95 232.5 531.96 240.54 531.96 250.46C531.96 260.38 523.95 268.42 514.07 268.42C504.19 268.42 496.19 260.38 496.19 250.46C496.19 240.54 504.19 232.5 514.07 232.5Z" fill="#A1C7F6" fill-opacity="1.000000" fill-rule="nonzero"/>
	<path id="path" d="M502.84 239.18C499.84 242.2 498.19 246.2 498.19 250.46C498.19 254.72 499.84 258.73 502.84 261.74C505.84 264.75 509.83 266.41 514.07 266.41C518.32 266.41 522.31 264.75 525.31 261.74C528.31 258.73 529.96 254.72 529.96 250.46C529.96 246.2 528.31 242.2 525.31 239.18C522.31 236.17 518.32 234.51 514.07 234.51C509.83 234.51 505.84 236.17 502.84 239.18ZM531.96 250.46C531.96 260.38 523.95 268.42 514.07 268.42C504.19 268.42 496.19 260.38 496.19 250.46C496.19 240.54 504.19 232.5 514.07 232.5C523.95 232.5 531.96 240.54 531.96 250.46Z" stroke="#000000" stroke-opacity="0" stroke-width="1.000000"/>
	<path id="path" d="M541.7 390.29L487.68 390.29C483.27 390.29 479.68 386.68 479.68 382.26L479.68 328.03C479.68 323.6 483.27 319.99 487.68 319.99L541.7 319.99C546.11 319.99 549.7 323.6 549.7 328.03L549.7 382.26C549.7 386.68 546.11 390.29 541.7 390.29Z" fill="#7030AB" fill-opacity="1.000000" fill-rule="nonzero"/>
	<path id="path" d="M487.68 390.29C483.27 390.29 479.68 386.68 479.68 382.26L479.68 328.03C479.68 323.6 483.27 319.99 487.68 319.99L541.7 319.99C546.11 319.99 549.7 323.6 549.7 328.03L549.7 382.26C549.7 386.68 546.11 390.29 541.7 390.29L487.68 390.29Z" stroke="#000000" stroke-opacity="0" stroke-width="1.000000"/>
	<path id="path" d="M487.68 322C484.37 322 481.68 324.7 481.68 328.03L481.68 382.26C481.68 385.58 484.37 388.28 487.68 388.28L541.7 388.28C545.01 388.28 547.7 385.58 547.7 382.26L547.7 328.03C547.7 324.7 545.01 322 541.7 322L487.68 322ZM487.68 317.99L541.7 317.99C547.22 317.99 551.7 322.48 551.7 328.03L551.7 382.26C551.7 387.8 547.22 392.29 541.7 392.29L487.68 392.29C482.16 392.29 477.68 387.8 477.68 382.26L477.68 328.03C477.68 322.48 482.16 317.99 487.68 317.99Z" fill="#EEF5FF" fill-opacity="1.000000" fill-rule="nonzero"/>
	<path id="path" d="M481.68 328.03L481.68 382.26C481.68 385.58 484.37 388.28 487.68 388.28L541.7 388.28C545.01 388.28 547.7 385.58 547.7 382.26L547.7 328.03C547.7 324.7 545.01 322 541.7 322L487.68 322C484.37 322 481.68 324.7 481.68 328.03ZM541.7 317.99C547.22 317.99 551.7 322.48 551.7 328.03L551.7 382.26C551.7 387.8 547.22 392.29 541.7 392.29L487.68 392.29C482.16 392.29 477.68 387.8 477.68 382.26L477.68 328.03C477.68 322.48 482.16 317.99 487.68 317.99L541.7 317.99Z" stroke="#000000" stroke-opacity="0" stroke-width="1.000000"/>
	<path id="path" d="M496.19 355.76C496.19 354.58 496.3 353.41 496.53 352.26C496.76 351.1 497.1 349.98 497.55 348.89C498 347.8 498.55 346.76 499.2 345.78C499.85 344.8 500.59 343.9 501.43 343.06C502.26 342.23 503.16 341.48 504.14 340.83C505.11 340.17 506.14 339.62 507.23 339.17C508.31 338.72 509.43 338.38 510.58 338.15C511.74 337.92 512.9 337.8 514.07 337.8C515.25 337.8 516.41 337.92 517.56 338.15C518.71 338.38 519.83 338.72 520.92 339.17C522 339.62 523.03 340.17 524.01 340.83C524.99 341.48 525.89 342.23 526.72 343.06C527.55 343.9 528.29 344.8 528.95 345.78C529.6 346.76 530.15 347.8 530.6 348.89C531.05 349.98 531.39 351.1 531.62 352.26C531.85 353.41 531.96 354.58 531.96 355.76C531.96 356.94 531.85 358.11 531.62 359.26C531.39 360.42 531.05 361.54 530.6 362.63C530.15 363.72 529.6 364.76 528.95 365.74C528.29 366.72 527.55 367.62 526.72 368.46C525.89 369.29 524.99 370.04 524.01 370.69C523.03 371.35 522 371.9 520.92 372.35C519.83 372.8 518.71 373.14 517.56 373.37C516.41 373.6 515.25 373.72 514.07 373.72C512.9 373.72 511.74 373.6 510.58 373.37C509.43 373.14 508.31 372.8 507.23 372.35C506.14 371.9 505.11 371.35 504.14 370.69C503.16 370.04 502.26 369.29 501.43 368.46C500.59 367.62 499.85 366.72 499.2 365.74C498.55 364.76 498 363.72 497.55 362.63C497.1 361.54 496.76 360.42 496.53 359.26C496.3 358.11 496.19 356.94 496.19 355.76Z" fill="#000000" fill-opacity="0" fill-rule="nonzero"/>
	<path id="path" d="M496.53 352.26C496.76 351.1 497.1 349.98 497.55 348.89C498 347.8 498.55 346.76 499.2 345.78C499.85 344.8 500.59 343.9 501.43 343.06C502.26 342.23 503.16 341.48 504.14 340.83C505.11 340.17 506.14 339.62 507.23 339.17C508.31 338.72 509.43 338.38 510.58 338.15C511.74 337.92 512.9 337.8 514.07 337.8C515.25 337.8 516.41 337.92 517.56 338.15C518.71 338.38 519.83 338.72 520.92 339.17C522 339.62 523.03 340.17 524.01 340.83C524.99 341.48 525.89 342.23 526.72 343.06C527.55 343.9 528.29 344.8 528.95 345.78C529.6 346.76 530.15 347.8 530.6 348.89C531.05 349.98 531.39 351.1 531.62 352.26C531.85 353.41 531.96 354.58 531.96 355.76C531.96 356.94 531.85 358.11 531.62 359.26C531.39 360.42 531.05 361.54 530.6 362.63C530.15 363.72 529.6 364.76 528.95 365.74C528.29 366.72 527.55 367.62 526.72 368.46C525.89 369.29 524.99 370.04 524.01 370.69C523.03 371.35 522 371.9 520.92 372.35C519.83 372.8 518.71 373.14 517.56 373.37C516.41 373.6 515.25 373.72 514.07 373.72C512.9 373.72 511.74 373.6 510.58 373.37C509.43 373.14 508.31 372.8 507.23 372.35C506.14 371.9 505.11 371.35 504.14 370.69C503.16 370.04 502.26 369.29 501.43 368.46C500.59 367.62 499.85 366.72 499.2 365.74C498.55 364.76 498 363.72 497.55 362.63C497.1 361.54 496.76 360.42 496.53 359.26C496.3 358.11 496.19 356.94 496.19 355.76C496.19 354.58 496.3 353.41 496.53 352.26Z" stroke="#000000" stroke-opacity="0" stroke-width="1.000000"/>
	<path id="path" d="M514.07 339.81C509.83 339.81 505.84 341.47 502.84 344.48C499.84 347.49 498.19 351.5 498.19 355.76C498.19 360.02 499.84 364.03 502.84 367.04C505.84 370.05 509.83 371.71 514.07 371.71C518.32 371.71 522.31 370.05 525.31 367.04C528.31 364.03 529.96 360.02 529.96 355.76C529.96 351.5 528.31 347.49 525.31 344.48C522.31 341.47 518.32 339.81 514.07 339.81ZM514.07 337.8C523.95 337.8 531.96 345.84 531.96 355.76C531.96 365.68 523.95 373.72 514.07 373.72C504.19 373.72 496.19 365.68 496.19 355.76C496.19 345.84 504.19 337.8 514.07 337.8Z" fill="#FFFFFF" fill-opacity="1.000000" fill-rule="nonzero"/>
	<path id="path" d="M502.84 344.48C499.84 347.49 498.19 351.5 498.19 355.76C498.19 360.02 499.84 364.03 502.84 367.04C505.84 370.05 509.83 371.71 514.07 371.71C518.32 371.71 522.31 370.05 525.31 367.04C528.31 364.03 529.96 360.02 529.96 355.76C529.96 351.5 528.31 347.49 525.31 344.48C522.31 341.47 518.32 339.81 514.07 339.81C509.83 339.81 505.84 341.47 502.84 344.48ZM531.96 355.76C531.96 365.68 523.95 373.72 514.07 373.72C504.19 373.72 496.19 365.68 496.19 355.76C496.19 345.84 504.19 337.8 514.07 337.8C523.95 337.8 531.96 345.84 531.96 355.76Z" stroke="#000000" stroke-opacity="0" stroke-width="1.000000"/>
	<path id="矩形_1432-3" d="M666.68 212.69C668.01 212.69 669.28 212.94 670.51 213.45C671.73 213.96 672.82 214.69 673.75 215.63C674.69 216.57 675.41 217.66 675.92 218.89C676.43 220.12 676.68 221.4 676.68 222.73L676.68 276.96C676.68 278.29 676.43 279.57 675.92 280.8C675.41 282.03 674.69 283.11 673.75 284.06C672.82 285 671.73 285.72 670.51 286.23C669.28 286.74 668.01 287 666.68 287L612.66 287C611.34 287 610.06 286.74 608.84 286.23C607.61 285.72 606.53 285 605.59 284.06C604.65 283.11 603.93 282.03 603.43 280.8C602.92 279.57 602.66 278.29 602.66 276.96L602.66 222.73C602.66 221.4 602.92 220.12 603.43 218.89C603.93 217.66 604.65 216.57 605.59 215.63C606.53 214.69 607.61 213.96 608.84 213.45C610.06 212.94 611.34 212.69 612.66 212.69L666.68 212.69Z" fill="#F1F7FF" fill-opacity="1.000000" fill-rule="nonzero"/>
	<path id="path" d="M621.17 250.46C621.17 249.28 621.28 248.12 621.51 246.96C621.74 245.8 622.08 244.68 622.53 243.59C622.98 242.5 623.53 241.47 624.18 240.49C624.84 239.51 625.58 238.6 626.41 237.76C627.24 236.93 628.14 236.19 629.12 235.53C630.09 234.88 631.13 234.32 632.21 233.87C633.3 233.42 634.42 233.08 635.57 232.85C636.72 232.62 637.88 232.5 639.06 232.5C640.23 232.5 641.39 232.62 642.55 232.85C643.7 233.08 644.82 233.42 645.9 233.87C646.99 234.32 648.02 234.88 649 235.53C649.97 236.19 650.88 236.93 651.71 237.76C652.54 238.6 653.28 239.51 653.93 240.49C654.58 241.47 655.13 242.5 655.58 243.59C656.03 244.68 656.37 245.8 656.6 246.96C656.83 248.12 656.94 249.28 656.94 250.46C656.94 251.64 656.83 252.81 656.6 253.97C656.37 255.12 656.03 256.25 655.58 257.33C655.13 258.42 654.58 259.46 653.93 260.44C653.28 261.42 652.54 262.33 651.71 263.16C650.88 263.99 649.97 264.74 649 265.39C648.02 266.05 646.99 266.6 645.9 267.05C644.82 267.5 643.7 267.85 642.55 268.07C641.39 268.31 640.23 268.42 639.06 268.42C637.88 268.42 636.72 268.31 635.57 268.07C634.42 267.85 633.3 267.5 632.21 267.05C631.13 266.6 630.09 266.05 629.12 265.39C628.14 264.74 627.24 263.99 626.41 263.16C625.58 262.33 624.84 261.42 624.18 260.44C623.53 259.46 622.98 258.42 622.53 257.33C622.08 256.25 621.74 255.12 621.51 253.97C621.28 252.81 621.17 251.64 621.17 250.46Z" fill="#000000" fill-opacity="0" fill-rule="nonzero"/>
	<path id="path" d="M621.51 246.96C621.74 245.8 622.08 244.68 622.53 243.59C622.98 242.5 623.53 241.47 624.18 240.49C624.84 239.51 625.58 238.6 626.41 237.76C627.24 236.93 628.14 236.19 629.12 235.53C630.09 234.88 631.13 234.32 632.21 233.87C633.3 233.42 634.42 233.08 635.57 232.85C636.72 232.62 637.88 232.5 639.06 232.5C640.23 232.5 641.39 232.62 642.55 232.85C643.7 233.08 644.82 233.42 645.9 233.87C646.99 234.32 648.02 234.88 649 235.53C649.97 236.19 650.88 236.93 651.71 237.76C652.54 238.6 653.28 239.51 653.93 240.49C654.58 241.47 655.13 242.5 655.58 243.59C656.03 244.68 656.37 245.8 656.6 246.96C656.83 248.12 656.94 249.28 656.94 250.46C656.94 251.64 656.83 252.81 656.6 253.97C656.37 255.12 656.03 256.25 655.58 257.33C655.13 258.42 654.58 259.46 653.93 260.44C653.28 261.42 652.54 262.33 651.71 263.16C650.88 263.99 649.97 264.74 649 265.39C648.02 266.05 646.99 266.6 645.9 267.05C644.82 267.5 643.7 267.85 642.55 268.07C641.39 268.31 640.23 268.42 639.06 268.42C637.88 268.42 636.72 268.31 635.57 268.07C634.42 267.85 633.3 267.5 632.21 267.05C631.13 266.6 630.09 266.05 629.12 265.39C628.14 264.74 627.24 263.99 626.41 263.16C625.58 262.33 624.84 261.42 624.18 260.44C623.53 259.46 622.98 258.42 622.53 257.33C622.08 256.25 621.74 255.12 621.51 253.97C621.28 252.81 621.17 251.64 621.17 250.46C621.17 249.28 621.28 248.12 621.51 246.96Z" stroke="#000000" stroke-opacity="0" stroke-width="1.000000"/>
	<path id="path" d="M639.06 234.51C634.81 234.51 630.82 236.17 627.82 239.18C624.82 242.2 623.17 246.2 623.17 250.46C623.17 254.72 624.82 258.73 627.82 261.74C630.82 264.75 634.81 266.41 639.06 266.41C643.3 266.41 647.29 264.75 650.29 261.74C653.29 258.73 654.94 254.72 654.94 250.46C654.94 246.2 653.29 242.2 650.29 239.18C647.29 236.17 643.3 234.51 639.06 234.51ZM639.06 232.5C648.94 232.5 656.94 240.54 656.94 250.46C656.94 260.38 648.94 268.42 639.06 268.42C629.18 268.42 621.17 260.38 621.17 250.46C621.17 240.54 629.18 232.5 639.06 232.5Z" fill="#A1C7F6" fill-opacity="1.000000" fill-rule="nonzero"/>
	<path id="path" d="M627.82 239.18C624.82 242.2 623.17 246.2 623.17 250.46C623.17 254.72 624.82 258.73 627.82 261.74C630.82 264.75 634.81 266.41 639.06 266.41C643.3 266.41 647.29 264.75 650.29 261.74C653.29 258.73 654.94 254.72 654.94 250.46C654.94 246.2 653.29 242.2 650.29 239.18C647.29 236.17 643.3 234.51 639.06 234.51C634.81 234.51 630.82 236.17 627.82 239.18ZM656.94 250.46C656.94 260.38 648.94 268.42 639.06 268.42C629.18 268.42 621.17 260.38 621.17 250.46C621.17 240.54 629.18 232.5 639.06 232.5C648.94 232.5 656.94 240.54 656.94 250.46Z" stroke="#000000" stroke-opacity="0" stroke-width="1.000000"/>
	<path id="矩形_1432-4" d="M792.29 212.69C793.61 212.69 794.89 212.94 796.11 213.45C797.34 213.96 798.42 214.69 799.36 215.63C800.3 216.57 801.02 217.66 801.53 218.89C802.03 220.12 802.29 221.4 802.29 222.73L802.29 276.96C802.29 278.29 802.03 279.57 801.53 280.8C801.02 282.03 800.3 283.11 799.36 284.06C798.42 285 797.34 285.72 796.11 286.23C794.89 286.74 793.61 287 792.29 287L738.27 287C736.94 287 735.67 286.74 734.44 286.23C733.22 285.72 732.14 285 731.2 284.06C730.26 283.11 729.54 282.03 729.03 280.8C728.52 279.57 728.27 278.29 728.27 276.96L728.27 222.73C728.27 221.4 728.52 220.12 729.03 218.89C729.54 217.66 730.26 216.57 731.2 215.63C732.14 214.69 733.22 213.96 734.44 213.45C735.67 212.94 736.94 212.69 738.27 212.69L792.29 212.69Z" fill="#F1F7FF" fill-opacity="1.000000" fill-rule="nonzero"/>
	<path id="path" d="M746.77 250.46C746.77 249.28 746.89 248.12 747.12 246.96C747.35 245.8 747.69 244.68 748.14 243.59C748.59 242.5 749.14 241.47 749.79 240.49C750.44 239.51 751.18 238.6 752.01 237.76C752.84 236.93 753.75 236.19 754.72 235.53C755.7 234.88 756.73 234.32 757.82 233.87C758.9 233.42 760.02 233.08 761.17 232.85C762.32 232.62 763.49 232.5 764.66 232.5C765.84 232.5 767 232.62 768.15 232.85C769.3 233.08 770.42 233.42 771.51 233.87C772.59 234.32 773.62 234.88 774.6 235.53C775.58 236.19 776.48 236.93 777.31 237.76C778.14 238.6 778.88 239.51 779.54 240.49C780.19 241.47 780.74 242.5 781.19 243.59C781.64 244.68 781.98 245.8 782.21 246.96C782.44 248.12 782.55 249.28 782.55 250.46C782.55 251.64 782.44 252.81 782.21 253.97C781.98 255.12 781.64 256.25 781.19 257.33C780.74 258.42 780.19 259.46 779.54 260.44C778.88 261.42 778.14 262.33 777.31 263.16C776.48 263.99 775.58 264.74 774.6 265.39C773.62 266.05 772.59 266.6 771.51 267.05C770.42 267.5 769.3 267.85 768.15 268.07C767 268.31 765.84 268.42 764.66 268.42C763.49 268.42 762.32 268.31 761.17 268.07C760.02 267.85 758.9 267.5 757.82 267.05C756.73 266.6 755.7 266.05 754.72 265.39C753.75 264.74 752.84 263.99 752.01 263.16C751.18 262.33 750.44 261.42 749.79 260.44C749.14 259.46 748.59 258.42 748.14 257.33C747.69 256.25 747.35 255.12 747.12 253.97C746.89 252.81 746.77 251.64 746.77 250.46Z" fill="#000000" fill-opacity="0" fill-rule="nonzero"/>
	<path id="path" d="M747.12 246.96C747.35 245.8 747.69 244.68 748.14 243.59C748.59 242.5 749.14 241.47 749.79 240.49C750.44 239.51 751.18 238.6 752.01 237.76C752.84 236.93 753.75 236.19 754.72 235.53C755.7 234.88 756.73 234.32 757.82 233.87C758.9 233.42 760.02 233.08 761.17 232.85C762.32 232.62 763.49 232.5 764.66 232.5C765.84 232.5 767 232.62 768.15 232.85C769.3 233.08 770.42 233.42 771.51 233.87C772.59 234.32 773.62 234.88 774.6 235.53C775.58 236.19 776.48 236.93 777.31 237.76C778.14 238.6 778.88 239.51 779.54 240.49C780.19 241.47 780.74 242.5 781.19 243.59C781.64 244.68 781.98 245.8 782.21 246.96C782.44 248.12 782.55 249.28 782.55 250.46C782.55 251.64 782.44 252.81 782.21 253.97C781.98 255.12 781.64 256.25 781.19 257.33C780.74 258.42 780.19 259.46 779.54 260.44C778.88 261.42 778.14 262.33 777.31 263.16C776.48 263.99 775.58 264.74 774.6 265.39C773.62 266.05 772.59 266.6 771.51 267.05C770.42 267.5 769.3 267.85 768.15 268.07C767 268.31 765.84 268.42 764.66 268.42C763.49 268.42 762.32 268.31 761.17 268.07C760.02 267.85 758.9 267.5 757.82 267.05C756.73 266.6 755.7 266.05 754.72 265.39C753.75 264.74 752.84 263.99 752.01 263.16C751.18 262.33 750.44 261.42 749.79 260.44C749.14 259.46 748.59 258.42 748.14 257.33C747.69 256.25 747.35 255.12 747.12 253.97C746.89 252.81 746.77 251.64 746.77 250.46C746.77 249.28 746.89 248.12 747.12 246.96Z" stroke="#000000" stroke-opacity="0" stroke-width="1.000000"/>
	<path id="path" d="M764.66 234.51C760.42 234.51 756.43 236.17 753.43 239.18C750.43 242.2 748.77 246.2 748.77 250.46C748.77 254.72 750.43 258.73 753.43 261.74C756.43 264.75 760.42 266.41 764.66 266.41C768.91 266.41 772.9 264.75 775.9 261.74C778.9 258.73 780.55 254.72 780.55 250.46C780.55 246.2 778.9 242.2 775.9 239.18C772.9 236.17 768.91 234.51 764.66 234.51ZM764.66 232.5C774.54 232.5 782.55 240.54 782.55 250.46C782.55 260.38 774.54 268.42 764.66 268.42C754.78 268.42 746.77 260.38 746.77 250.46C746.77 240.54 754.78 232.5 764.66 232.5Z" fill="#A1C7F6" fill-opacity="1.000000" fill-rule="nonzero"/>
	<path id="path" d="M753.43 239.18C750.43 242.2 748.77 246.2 748.77 250.46C748.77 254.72 750.43 258.73 753.43 261.74C756.43 264.75 760.42 266.41 764.66 266.41C768.91 266.41 772.9 264.75 775.9 261.74C778.9 258.73 780.55 254.72 780.55 250.46C780.55 246.2 778.9 242.2 775.9 239.18C772.9 236.17 768.91 234.51 764.66 234.51C760.42 234.51 756.43 236.17 753.43 239.18ZM782.55 250.46C782.55 260.38 774.54 268.42 764.66 268.42C754.78 268.42 746.77 260.38 746.77 250.46C746.77 240.54 754.78 232.5 764.66 232.5C774.54 232.5 782.55 240.54 782.55 250.46Z" stroke="#000000" stroke-opacity="0" stroke-width="1.000000"/>
	<path id="path" d="M666.68 390.29L612.66 390.29C608.25 390.29 604.66 386.68 604.66 382.26L604.66 328.03C604.66 323.6 608.25 319.99 612.66 319.99L666.68 319.99C671.09 319.99 674.68 323.6 674.68 328.03L674.68 382.26C674.68 386.68 671.09 390.29 666.68 390.29Z" fill="#7030AB" fill-opacity="1.000000" fill-rule="nonzero"/>
	<path id="path" d="M612.66 390.29C608.25 390.29 604.66 386.68 604.66 382.26L604.66 328.03C604.66 323.6 608.25 319.99 612.66 319.99L666.68 319.99C671.09 319.99 674.68 323.6 674.68 328.03L674.68 382.26C674.68 386.68 671.09 390.29 666.68 390.29L612.66 390.29Z" stroke="#000000" stroke-opacity="0" stroke-width="1.000000"/>
	<path id="path" d="M612.66 322C609.36 322 606.66 324.7 606.66 328.03L606.66 382.26C606.66 385.58 609.36 388.28 612.66 388.28L666.68 388.28C669.99 388.28 672.68 385.58 672.68 382.26L672.68 328.03C672.68 324.7 669.99 322 666.68 322L612.66 322ZM612.66 317.99L666.68 317.99C672.21 317.99 676.68 322.48 676.68 328.03L676.68 382.26C676.68 387.8 672.21 392.29 666.68 392.29L612.66 392.29C607.14 392.29 602.66 387.8 602.66 382.26L602.66 328.03C602.66 322.48 607.14 317.99 612.66 317.99Z" fill="#EEF5FF" fill-opacity="1.000000" fill-rule="nonzero"/>
	<path id="path" d="M606.66 328.03L606.66 382.26C606.66 385.58 609.36 388.28 612.66 388.28L666.68 388.28C669.99 388.28 672.68 385.58 672.68 382.26L672.68 328.03C672.68 324.7 669.99 322 666.68 322L612.66 322C609.36 322 606.66 324.7 606.66 328.03ZM666.68 317.99C672.21 317.99 676.68 322.48 676.68 328.03L676.68 382.26C676.68 387.8 672.21 392.29 666.68 392.29L612.66 392.29C607.14 392.29 602.66 387.8 602.66 382.26L602.66 328.03C602.66 322.48 607.14 317.99 612.66 317.99L666.68 317.99Z" stroke="#000000" stroke-opacity="0" stroke-width="1.000000"/>
	<path id="path" d="M621.17 355.76C621.17 354.58 621.28 353.41 621.51 352.26C621.74 351.1 622.08 349.98 622.53 348.89C622.98 347.8 623.53 346.76 624.18 345.78C624.84 344.8 625.58 343.9 626.41 343.06C627.24 342.23 628.14 341.48 629.12 340.83C630.09 340.17 631.13 339.62 632.21 339.17C633.3 338.72 634.42 338.38 635.57 338.15C636.72 337.92 637.88 337.8 639.06 337.8C640.23 337.8 641.39 337.92 642.55 338.15C643.7 338.38 644.82 338.72 645.9 339.17C646.99 339.62 648.02 340.17 649 340.83C649.97 341.48 650.88 342.23 651.71 343.06C652.54 343.9 653.28 344.8 653.93 345.78C654.58 346.76 655.13 347.8 655.58 348.89C656.03 349.98 656.37 351.1 656.6 352.26C656.83 353.41 656.94 354.58 656.94 355.76C656.94 356.94 656.83 358.11 656.6 359.26C656.37 360.42 656.03 361.54 655.58 362.63C655.13 363.72 654.58 364.76 653.93 365.74C653.28 366.72 652.54 367.62 651.71 368.46C650.88 369.29 649.97 370.04 649 370.69C648.02 371.35 646.99 371.9 645.9 372.35C644.82 372.8 643.7 373.14 642.55 373.37C641.39 373.6 640.23 373.72 639.06 373.72C637.88 373.72 636.72 373.6 635.57 373.37C634.42 373.14 633.3 372.8 632.21 372.35C631.13 371.9 630.09 371.35 629.12 370.69C628.14 370.04 627.24 369.29 626.41 368.46C625.58 367.62 624.84 366.72 624.18 365.74C623.53 364.76 622.98 363.72 622.53 362.63C622.08 361.54 621.74 360.42 621.51 359.26C621.28 358.11 621.17 356.94 621.17 355.76Z" fill="#000000" fill-opacity="0" fill-rule="nonzero"/>
	<path id="path" d="M621.51 352.26C621.74 351.1 622.08 349.98 622.53 348.89C622.98 347.8 623.53 346.76 624.18 345.78C624.84 344.8 625.58 343.9 626.41 343.06C627.24 342.23 628.14 341.48 629.12 340.83C630.09 340.17 631.13 339.62 632.21 339.17C633.3 338.72 634.42 338.38 635.57 338.15C636.72 337.92 637.88 337.8 639.06 337.8C640.23 337.8 641.39 337.92 642.55 338.15C643.7 338.38 644.82 338.72 645.9 339.17C646.99 339.62 648.02 340.17 649 340.83C649.97 341.48 650.88 342.23 651.71 343.06C652.54 343.9 653.28 344.8 653.93 345.78C654.58 346.76 655.13 347.8 655.58 348.89C656.03 349.98 656.37 351.1 656.6 352.26C656.83 353.41 656.94 354.58 656.94 355.76C656.94 356.94 656.83 358.11 656.6 359.26C656.37 360.42 656.03 361.54 655.58 362.63C655.13 363.72 654.58 364.76 653.93 365.74C653.28 366.72 652.54 367.62 651.71 368.46C650.88 369.29 649.97 370.04 649 370.69C648.02 371.35 646.99 371.9 645.9 372.35C644.82 372.8 643.7 373.14 642.55 373.37C641.39 373.6 640.23 373.72 639.06 373.72C637.88 373.72 636.72 373.6 635.57 373.37C634.42 373.14 633.3 372.8 632.21 372.35C631.13 371.9 630.09 371.35 629.12 370.69C628.14 370.04 627.24 369.29 626.41 368.46C625.58 367.62 624.84 366.72 624.18 365.74C623.53 364.76 622.98 363.72 622.53 362.63C622.08 361.54 621.74 360.42 621.51 359.26C621.28 358.11 621.17 356.94 621.17 355.76C621.17 354.58 621.28 353.41 621.51 352.26Z" stroke="#000000" stroke-opacity="0" stroke-width="1.000000"/>
	<path id="path" d="M639.06 339.81C634.81 339.81 630.82 341.47 627.82 344.48C624.82 347.49 623.17 351.5 623.17 355.76C623.17 360.02 624.82 364.03 627.82 367.04C630.82 370.05 634.81 371.71 639.06 371.71C643.3 371.71 647.29 370.05 650.29 367.04C653.29 364.03 654.94 360.02 654.94 355.76C654.94 351.5 653.29 347.49 650.29 344.48C647.29 341.47 643.3 339.81 639.06 339.81ZM639.06 337.8C648.94 337.8 656.94 345.84 656.94 355.76C656.94 365.68 648.94 373.72 639.06 373.72C629.18 373.72 621.17 365.68 621.17 355.76C621.17 345.84 629.18 337.8 639.06 337.8Z" fill="#FFFFFF" fill-opacity="1.000000" fill-rule="nonzero"/>
	<path id="path" d="M627.82 344.48C624.82 347.49 623.17 351.5 623.17 355.76C623.17 360.02 624.82 364.03 627.82 367.04C630.82 370.05 634.81 371.71 639.06 371.71C643.3 371.71 647.29 370.05 650.29 367.04C653.29 364.03 654.94 360.02 654.94 355.76C654.94 351.5 653.29 347.49 650.29 344.48C647.29 341.47 643.3 339.81 639.06 339.81C634.81 339.81 630.82 341.47 627.82 344.48ZM656.94 355.76C656.94 365.68 648.94 373.72 639.06 373.72C629.18 373.72 621.17 365.68 621.17 355.76C621.17 345.84 629.18 337.8 639.06 337.8C648.94 337.8 656.94 345.84 656.94 355.76Z" stroke="#000000" stroke-opacity="0" stroke-width="1.000000"/>
	<path id="path" d="M792.29 390.29L738.27 390.29C733.86 390.29 730.27 386.68 730.27 382.26L730.27 328.03C730.27 323.6 733.86 319.99 738.27 319.99L792.29 319.99C796.7 319.99 800.29 323.6 800.29 328.03L800.29 382.26C800.29 386.68 796.7 390.29 792.29 390.29Z" fill="#7030AB" fill-opacity="1.000000" fill-rule="nonzero"/>
	<path id="path" d="M738.27 390.29C733.86 390.29 730.27 386.68 730.27 382.26L730.27 328.03C730.27 323.6 733.86 319.99 738.27 319.99L792.29 319.99C796.7 319.99 800.29 323.6 800.29 328.03L800.29 382.26C800.29 386.68 796.7 390.29 792.29 390.29L738.27 390.29Z" stroke="#000000" stroke-opacity="0" stroke-width="1.000000"/>
	<path id="path" d="M738.27 322C734.96 322 732.27 324.7 732.27 328.03L732.27 382.26C732.27 385.58 734.96 388.28 738.27 388.28L792.29 388.28C795.6 388.28 798.29 385.58 798.29 382.26L798.29 328.03C798.29 324.7 795.6 322 792.29 322L738.27 322ZM738.27 317.99L792.29 317.99C797.81 317.99 802.29 322.48 802.29 328.03L802.29 382.26C802.29 387.8 797.81 392.29 792.29 392.29L738.27 392.29C732.75 392.29 728.27 387.8 728.27 382.26L728.27 328.03C728.27 322.48 732.75 317.99 738.27 317.99Z" fill="#EEF5FF" fill-opacity="1.000000" fill-rule="nonzero"/>
	<path id="path" d="M732.27 328.03L732.27 382.26C732.27 385.58 734.96 388.28 738.27 388.28L792.29 388.28C795.6 388.28 798.29 385.58 798.29 382.26L798.29 328.03C798.29 324.7 795.6 322 792.29 322L738.27 322C734.96 322 732.27 324.7 732.27 328.03ZM792.29 317.99C797.81 317.99 802.29 322.48 802.29 328.03L802.29 382.26C802.29 387.8 797.81 392.29 792.29 392.29L738.27 392.29C732.75 392.29 728.27 387.8 728.27 382.26L728.27 328.03C728.27 322.48 732.75 317.99 738.27 317.99L792.29 317.99Z" stroke="#000000" stroke-opacity="0" stroke-width="1.000000"/>
	<path id="path" d="M746.77 355.76C746.77 354.58 746.89 353.41 747.12 352.26C747.35 351.1 747.69 349.98 748.14 348.89C748.59 347.8 749.14 346.76 749.79 345.78C750.44 344.8 751.18 343.9 752.01 343.06C752.84 342.23 753.75 341.48 754.72 340.83C755.7 340.17 756.73 339.62 757.82 339.17C758.9 338.72 760.02 338.38 761.17 338.15C762.32 337.92 763.49 337.8 764.66 337.8C765.84 337.8 767 337.92 768.15 338.15C769.3 338.38 770.42 338.72 771.51 339.17C772.59 339.62 773.62 340.17 774.6 340.83C775.58 341.48 776.48 342.23 777.31 343.06C778.14 343.9 778.88 344.8 779.54 345.78C780.19 346.76 780.74 347.8 781.19 348.89C781.64 349.98 781.98 351.1 782.21 352.26C782.44 353.41 782.55 354.58 782.55 355.76C782.55 356.94 782.44 358.11 782.21 359.26C781.98 360.42 781.64 361.54 781.19 362.63C780.74 363.72 780.19 364.76 779.54 365.74C778.88 366.72 778.14 367.62 777.31 368.46C776.48 369.29 775.58 370.04 774.6 370.69C773.62 371.35 772.59 371.9 771.51 372.35C770.42 372.8 769.3 373.14 768.15 373.37C767 373.6 765.84 373.72 764.66 373.72C763.49 373.72 762.32 373.6 761.17 373.37C760.02 373.14 758.9 372.8 757.82 372.35C756.73 371.9 755.7 371.35 754.72 370.69C753.75 370.04 752.84 369.29 752.01 368.46C751.18 367.62 750.44 366.72 749.79 365.74C749.14 364.76 748.59 363.72 748.14 362.63C747.69 361.54 747.35 360.42 747.12 359.26C746.89 358.11 746.77 356.94 746.77 355.76Z" fill="#000000" fill-opacity="0" fill-rule="nonzero"/>
	<path id="path" d="M747.12 352.26C747.35 351.1 747.69 349.98 748.14 348.89C748.59 347.8 749.14 346.76 749.79 345.78C750.44 344.8 751.18 343.9 752.01 343.06C752.84 342.23 753.75 341.48 754.72 340.83C755.7 340.17 756.73 339.62 757.82 339.17C758.9 338.72 760.02 338.38 761.17 338.15C762.32 337.92 763.49 337.8 764.66 337.8C765.84 337.8 767 337.92 768.15 338.15C769.3 338.38 770.42 338.72 771.51 339.17C772.59 339.62 773.62 340.17 774.6 340.83C775.58 341.48 776.48 342.23 777.31 343.06C778.14 343.9 778.88 344.8 779.54 345.78C780.19 346.76 780.74 347.8 781.19 348.89C781.64 349.98 781.98 351.1 782.21 352.26C782.44 353.41 782.55 354.58 782.55 355.76C782.55 356.94 782.44 358.11 782.21 359.26C781.98 360.42 781.64 361.54 781.19 362.63C780.74 363.72 780.19 364.76 779.54 365.74C778.88 366.72 778.14 367.62 777.31 368.46C776.48 369.29 775.58 370.04 774.6 370.69C773.62 371.35 772.59 371.9 771.51 372.35C770.42 372.8 769.3 373.14 768.15 373.37C767 373.6 765.84 373.72 764.66 373.72C763.49 373.72 762.32 373.6 761.17 373.37C760.02 373.14 758.9 372.8 757.82 372.35C756.73 371.9 755.7 371.35 754.72 370.69C753.75 370.04 752.84 369.29 752.01 368.46C751.18 367.62 750.44 366.72 749.79 365.74C749.14 364.76 748.59 363.72 748.14 362.63C747.69 361.54 747.35 360.42 747.12 359.26C746.89 358.11 746.77 356.94 746.77 355.76C746.77 354.58 746.89 353.41 747.12 352.26Z" stroke="#000000" stroke-opacity="0" stroke-width="1.000000"/>
	<path id="path" d="M764.66 339.81C760.42 339.81 756.43 341.47 753.43 344.48C750.43 347.49 748.77 351.5 748.77 355.76C748.77 360.02 750.43 364.03 753.43 367.04C756.43 370.05 760.42 371.71 764.66 371.71C768.91 371.71 772.9 370.05 775.9 367.04C778.9 364.03 780.55 360.02 780.55 355.76C780.55 351.5 778.9 347.49 775.9 344.48C772.9 341.47 768.91 339.81 764.66 339.81ZM764.66 337.8C774.54 337.8 782.55 345.84 782.55 355.76C782.55 365.68 774.54 373.72 764.66 373.72C754.78 373.72 746.77 365.68 746.77 355.76C746.77 345.84 754.78 337.8 764.66 337.8Z" fill="#FFFFFF" fill-opacity="1.000000" fill-rule="nonzero"/>
	<path id="path" d="M753.43 344.48C750.43 347.49 748.77 351.5 748.77 355.76C748.77 360.02 750.43 364.03 753.43 367.04C756.43 370.05 760.42 371.71 764.66 371.71C768.91 371.71 772.9 370.05 775.9 367.04C778.9 364.03 780.55 360.02 780.55 355.76C780.55 351.5 778.9 347.49 775.9 344.48C772.9 341.47 768.91 339.81 764.66 339.81C760.42 339.81 756.43 341.47 753.43 344.48ZM782.55 355.76C782.55 365.68 774.54 373.72 764.66 373.72C754.78 373.72 746.77 365.68 746.77 355.76C746.77 345.84 754.78 337.8 764.66 337.8C774.54 337.8 782.55 345.84 782.55 355.76Z" stroke="#000000" stroke-opacity="0" stroke-width="1.000000"/>
	<path id="路径_1167" d="M146.21 493.68L146.21 589.83C146.21 589.83 144.47 596.86 112.05 596.86C79.62 596.86 74.92 589.83 74.92 589.83L74.92 493.68L146.21 493.68Z" fill="url(#paint_linear_5_60_0)" fill-opacity="1.000000" fill-rule="nonzero"/>
	<path id="椭圆_359" d="M74.57 494.03C74.57 490.1 90.67 486.91 110.53 486.91C130.4 486.91 146.5 490.1 146.5 494.03C146.5 497.97 130.4 501.16 110.53 501.16C90.67 501.16 74.57 497.97 74.57 494.03Z" fill="#B7BBC2" fill-opacity="1.000000" fill-rule="nonzero"/>
	<path id="椭圆_360" d="M78.35 496.88C78.35 494.52 92.55 492.61 110.06 492.61C127.57 492.61 141.77 494.52 141.77 496.88C141.77 499.24 127.57 501.16 110.06 501.16C92.55 501.16 78.35 499.24 78.35 496.88Z" fill="#769BE5" fill-opacity="1.000000" fill-rule="nonzero"/>
	<path id="路径_1168" d="M124.23 471.2C121.89 460.02 120.2 462.02 117.51 458.23C114.81 454.45 113.21 439.6 117.51 438.78C121.81 437.97 127.73 429.06 124.23 424.47C120.73 419.87 113.47 421.77 111.59 413.66C109.7 405.56 115.09 396.37 109.16 393.94C103.25 391.51 94.36 396.1 92.48 401.24C90.6 406.37 82.79 406.64 82.79 409.88C82.79 413.12 88.44 418.53 87.91 419.88C87.37 421.23 82.53 422.04 81.45 429.87C80.37 437.71 72.57 431.76 75.8 445C79.03 458.23 74.99 453.64 74.19 462.02C73.38 470.39 70.15 478.76 79.84 481.74C89.52 484.71 95.44 482.28 102.17 481.74C108.9 481.19 126.57 482.38 124.23 471.2Z" fill="#ADBBB4" fill-opacity="1.000000" fill-rule="nonzero"/>
	<path id="路径_1169" d="" fill="#000000" fill-opacity="0" fill-rule="nonzero"/>
	<path id="路径_1169" d="M102.44 400.96C102.44 400.96 86.3 477.95 102.44 500.91" stroke="#ABABAB" stroke-opacity="1.000000" stroke-width="0.600000"/>
	<path id="路径_1170" d="" fill="#000000" fill-opacity="0" fill-rule="nonzero"/>
	<path id="路径_1170" d="M107.32 410.34L98.99 420.91L94.58 415.01" stroke="#ABABAB" stroke-opacity="1.000000" stroke-width="0.600000"/>
	<path id="路径_1171" d="" fill="#000000" fill-opacity="0" fill-rule="nonzero"/>
	<path id="路径_1171" d="M112.71 427.8C103.41 430.75 96.9 441.69 96.9 441.69C96.9 441.69 92.14 434.32 87.73 430.38" stroke="#ABABAB" stroke-opacity="1.000000" stroke-width="0.600000"/>
	<path id="路径_1172" d="" fill="#000000" fill-opacity="0" fill-rule="nonzero"/>
	<path id="路径_1172" d="M110.91 450.06C103.28 452.39 95.1 463.95 95.1 463.95C95.1 463.95 90.42 450.42 81.85 446.98" stroke="#ABABAB" stroke-opacity="1.000000" stroke-width="0.600000"/>
	<path id="路径_1173" d="" fill="#000000" fill-opacity="0" fill-rule="nonzero"/>
	<path id="路径_1173" d="M105.24 469.73C100.47 470.22 95.83 478.79 95.83 478.79L83.44 474.03" stroke="#ABABAB" stroke-opacity="1.000000" stroke-width="0.600000"/>
	<path id="路径_1168-2" d="M90.1 465.59C92.88 452.29 94.9 454.67 98.1 450.17C101.3 445.68 103.22 428.01 98.1 427.05C92.98 426.09 85.94 415.49 90.1 410.03C94.26 404.57 102.9 406.81 105.14 397.18C107.37 387.54 100.97 376.62 108.01 373.73C115.05 370.84 125.61 376.3 127.85 382.4C130.09 388.5 139.37 388.83 139.37 392.68C139.37 396.53 132.65 402.96 133.29 404.56C133.93 406.16 139.69 407.13 140.97 416.44C142.25 425.76 151.52 418.69 147.68 434.43C143.84 450.17 148.64 444.71 149.6 454.66C150.56 464.62 154.4 474.58 142.89 478.11C131.37 481.64 124.33 478.75 116.33 478.11C108.33 477.47 87.32 478.88 90.1 465.59Z" fill="#CBD7D1" fill-opacity="1.000000" fill-rule="nonzero"/>
	<path id="路径_1169-2" d="" fill="#000000" fill-opacity="0" fill-rule="nonzero"/>
	<path id="路径_1169-2" d="M116.01 382.08C116.01 382.08 135.21 473.61 116.01 500.91" stroke="#707070" stroke-opacity="1.000000" stroke-width="0.600000"/>
	<path id="路径_1170-2" d="" fill="#000000" fill-opacity="0" fill-rule="nonzero"/>
	<path id="路径_1170-2" d="M110.2 393.23L120.1 405.8L125.34 398.78" stroke="#707070" stroke-opacity="1.000000" stroke-width="0.600000"/>
	<path id="路径_1171-2" d="" fill="#000000" fill-opacity="0" fill-rule="nonzero"/>
	<path id="路径_1171-2" d="M103.8 413.98C114.87 417.49 122.6 430.5 122.6 430.5C122.6 430.5 128.26 421.73 133.5 417.05" stroke="#707070" stroke-opacity="1.000000" stroke-width="0.600000"/>
	<path id="路径_1172-2" d="" fill="#000000" fill-opacity="0" fill-rule="nonzero"/>
	<path id="路径_1172-2" d="M105.93 440.45C115.01 443.22 124.74 456.97 124.74 456.97C124.74 456.97 130.3 440.88 140.49 436.79" stroke="#707070" stroke-opacity="1.000000" stroke-width="0.600000"/>
	<path id="路径_1173-2" d="" fill="#000000" fill-opacity="0" fill-rule="nonzero"/>
	<path id="路径_1173-2" d="M112.68 463.83C118.36 464.42 123.86 474.62 123.86 474.62L138.6 468.95" stroke="#707070" stroke-opacity="1.000000" stroke-width="0.600000"/>
	<path id="联合_168" d="M757.79 591.29L757.79 431.67L572.79 431.67L572.79 591.29L560.79 591.29L560.79 431.67L494.79 431.67L494.79 420.63L836.79 420.63L836.79 431.67L769.79 431.67L769.79 591.29L757.79 591.29Z" fill="#AD7BDC" fill-opacity="1.000000" fill-rule="nonzero"/>
	<path id="路径_1228" d="M621.25 380.35C618.68 372.58 622.89 368.1 619.14 367.17C615.39 366.23 616.09 377.75 614.92 377.52C613.75 377.29 606.95 366.46 604.13 363.4C601.31 360.33 598.75 366.46 599.45 372.11C600.15 377.75 605.07 392.11 610.23 394.71C615.39 397.3 620.55 400.36 620.55 400.36L622.89 390.24C622.89 390.24 623.83 388.12 621.25 380.35Z" fill="#FFA271" fill-opacity="1.000000" fill-rule="nonzero"/>
	<path id="路径_1230" d="M677.75 481.28C673.8 481.6 657.57 480.42 654.59 481.39C651.6 482.35 641.57 493.92 651.07 517.49C683.73 520.71 694.29 517.71 694.29 517.71L731.22 494.56L724.81 461.78L679.9 476.03C679.9 476.03 681.7 480.96 677.75 481.28Z" fill="#172065" fill-opacity="1.000000" fill-rule="nonzero"/>
	<path id="矩形_1512" d="M700.41 354.65L720.51 354.65L720.51 377.94L700.41 377.94L700.41 354.65Z" fill="#FFAE80" fill-opacity="1.000000" fill-rule="nonzero"/>
	<path id="路径_1225" d="M698.6 367.83C697.86 369.92 697.79 372.04 698.37 374.18L722.28 373.71L723.46 370.18C723.46 370.18 715.01 360.76 698.6 367.83Z" fill="#06083B" fill-opacity="1.000000" fill-rule="nonzero"/>
	<path id="路径_1224" d="M685.25 360.26C681.59 362.1 682.81 326.91 691.04 318.95C699.27 310.99 716.04 306.4 727.01 320.79C737.98 335.17 730.37 360.26 730.37 360.26C730.37 360.26 688.91 358.43 685.25 360.26Z" fill="#182162" fill-opacity="1.000000" fill-rule="nonzero"/>
	<path id="路径_1229" d="M679.95 476.62L726.97 477.47L725.17 460.45L687.47 463.35L679.89 468.69L679.95 476.62Z" fill="#FFFFFF" fill-opacity="1.000000" fill-rule="nonzero"/>
	<path id="路径_1227" d="M624.54 389.06L613.98 398.71L620.08 403.18L628.28 393.53L624.54 389.06Z" fill="#06083B" fill-opacity="1.000000" fill-rule="nonzero"/>
	<path id="路径_1226" d="M747.64 381.29C742.48 373.52 730.99 369.75 722.08 369.75C713.17 369.75 696.52 369.28 688.31 370.93C680.1 372.58 671.43 387.18 662.76 397.77C658.11 403.32 653.81 409.12 649.86 415.19L628.28 392.59L617.5 401.77L642.59 436.37C642.59 436.37 649.86 446.49 658.77 434.96C667.68 423.42 679.87 410.48 679.87 410.48L679.87 469.56L719.97 470.74L738.96 443.43L738.96 410.48L747.64 426.71L764.05 422.71C764.05 422.71 752.8 389.06 747.64 381.29Z" fill="#7030AB" fill-opacity="1.000000" fill-rule="nonzero"/>
	<path id="路径_1231" d="M632.19 484.69C632.19 484.69 615.32 485.12 615.64 510.52C615.96 535.91 608.85 612.89 608.85 612.89L617.87 614.34C617.87 614.34 637.18 527.96 637.71 525.61C638.25 523.26 653.96 516.01 653.96 516.01L653.96 484.69L632.19 484.69Z" fill="#FFA37F" fill-opacity="1.000000" fill-rule="nonzero"/>
	<path id="路径_1232" d="M681.36 609.81C681.36 610.9 673.06 610.53 673.06 610.53C673.06 610.53 652.87 532.49 653.05 528.32C653.23 524.16 668.02 521.26 668.02 521.26L676.5 526.87C676.5 526.87 681.36 608.72 681.36 609.81Z" fill="#FFA27A" fill-opacity="1.000000" fill-rule="nonzero"/>
	<path id="路径_1233" d="M620.66 635.49L616.02 635.49L616.02 621.42C616.02 621.42 604.01 631.15 601.45 635.73C601.45 635.81 581.05 635.89 581.05 635.97C582.17 631.47 585.29 625.04 594.73 620.94C604.17 616.84 609.3 610.42 610.18 610.34C611.07 610.26 620.66 610.01 620.66 610.01L620.66 635.49Z" fill="#2C353A" fill-opacity="1.000000" fill-rule="nonzero"/>
	<path id="路径_1234" d="M684.19 635.49L679.55 635.49L679.55 621.42C679.55 621.42 667.54 631.15 664.98 635.73C664.98 635.81 644.58 635.89 644.58 635.97C645.7 631.47 648.82 625.04 658.26 620.94C667.7 616.84 672.83 610.42 673.71 610.34C674.6 610.26 684.19 610.01 684.19 610.01L684.19 635.49Z" fill="#2C353A" fill-opacity="1.000000" fill-rule="nonzero"/>
	<path id="路径_1237" d="M760.71 636.73L751.8 636.73L737.73 530.33L745.47 530.33L760.71 636.73Z" fill="#8A95D3" fill-opacity="1.000000" fill-rule="nonzero"/>
	<path id="路径_1238" d="M717.66 636.73L708.75 636.73L694.68 530.33L702.42 530.33L717.66 636.73Z" fill="#8A95D3" fill-opacity="1.000000" fill-rule="nonzero"/>
	<path id="路径_1239" d="M663.59 636.73L672.5 636.73L686.57 530.33L678.84 530.33L663.59 636.73Z" fill="#8A95D3" fill-opacity="1.000000" fill-rule="nonzero"/>
	<path id="路径_1240" d="M620.54 636.73L629.45 636.73L643.52 530.33L635.78 530.33L620.54 636.73Z" fill="#8A95D3" fill-opacity="1.000000" fill-rule="nonzero"/>
	<path id="路径_1235" d="M765.36 415.12C747.68 413.68 733.98 413.68 733.98 413.68C733.98 413.68 720.26 413.31 716.29 436.67C712.32 460.03 699.16 506.56 699.16 506.56C699.16 506.56 694.11 516.89 678.24 516.17C662.36 515.44 625.75 516.17 625.75 516.17C625.75 516.17 617.09 522.14 625.03 531.01C630.08 530.83 743.71 531.56 743.71 531.56C743.71 531.56 756.51 533.19 762.65 513.08C768.78 492.98 776.72 442.29 776.72 442.29C776.72 442.29 783.03 416.57 765.36 415.12Z" fill="#98A6E8" fill-opacity="1.000000" fill-rule="nonzero"/>
	<path id="路径_1236" d="M765.36 415.12C747.68 413.68 738.75 413.68 738.75 413.68C738.75 413.68 725.04 413.32 721.08 436.67C717.11 460.03 703.94 508.97 703.94 508.97C703.94 508.97 698.42 519.29 682.54 518.56C666.67 517.84 625.74 518.56 625.74 518.56C625.74 518.56 617.09 522.14 625.02 531.01C630.07 530.83 743.7 531.56 743.7 531.56C743.7 531.56 756.51 533.19 762.64 513.09C768.78 492.98 776.72 442.29 776.72 442.29C776.72 442.29 783.03 416.57 765.36 415.12Z" fill="#A3B1F2" fill-opacity="1.000000" fill-rule="nonzero"/>
	<path id="联合_170" d="M188.55 234.15L169.89 201.71L146.41 201.71C145.1 201.71 143.8 201.58 142.51 201.32C141.22 201.06 139.97 200.68 138.76 200.18C137.55 199.67 136.39 199.06 135.3 198.32C134.21 197.59 133.2 196.76 132.27 195.83C131.34 194.89 130.51 193.88 129.78 192.78C129.05 191.69 128.44 190.53 127.94 189.31C127.43 188.1 127.05 186.84 126.8 185.55C126.54 184.25 126.41 182.95 126.41 181.63L126.41 77.22C126.41 75.9 126.54 74.6 126.8 73.31C127.05 72.01 127.43 70.76 127.94 69.54C128.44 68.32 129.05 67.16 129.78 66.07C130.51 64.97 131.34 63.96 132.27 63.03C133.2 62.09 134.21 61.26 135.3 60.53C136.39 59.8 137.55 59.18 138.76 58.67C139.97 58.17 141.22 57.79 142.51 57.53C143.8 57.27 145.1 57.14 146.41 57.14L423.41 57.14C424.73 57.14 426.03 57.27 427.31 57.53C428.6 57.79 429.85 58.17 431.07 58.67C432.28 59.18 433.43 59.8 434.52 60.53C435.62 61.26 436.63 62.09 437.56 63.03C438.48 63.96 439.31 64.97 440.04 66.07C440.77 67.16 441.39 68.32 441.89 69.54C442.39 70.76 442.77 72.01 443.03 73.31C443.28 74.6 443.41 75.9 443.41 77.22L443.41 181.63C443.41 182.95 443.28 184.25 443.03 185.55C442.77 186.84 442.39 188.1 441.89 189.31C441.39 190.53 440.77 191.69 440.04 192.78C439.31 193.88 438.48 194.89 437.56 195.83C436.63 196.76 435.62 197.59 434.52 198.32C433.43 199.06 432.28 199.67 431.07 200.18C429.85 200.68 428.6 201.06 427.31 201.32C426.03 201.58 424.73 201.71 423.41 201.71L215.69 201.71L195.41 234.28C195.03 234.87 194.54 235.34 193.92 235.68C193.31 236.01 192.65 236.17 191.94 236.16C191.24 236.15 190.59 235.96 189.99 235.61C189.38 235.25 188.9 234.77 188.55 234.15Z" fill="#BE79FE" fill-opacity="1.000000" fill-rule="nonzero"/>
	<path id="矩形_1472" d="M282.41 78.23L426.41 78.23L426.41 88.27L282.41 88.27L282.41 78.23Z" fill="#FFFFFF" fill-opacity="1.000000" fill-rule="nonzero"/>
	<path id="矩形_1473" d="M282.41 100.31L426.41 100.31L426.41 110.35L282.41 110.35L282.41 100.31Z" fill="#FFFFFF" fill-opacity="1.000000" fill-rule="nonzero"/>
	<path id="矩形_1474" d="M350.41 122.4L426.41 122.4L426.41 132.44L350.41 132.44L350.41 122.4Z" fill="#FFFFFF" fill-opacity="1.000000" fill-rule="nonzero"/>
	<path id="矩形_1475" d="M417.41 164.56C418.61 164.56 419.75 164.79 420.86 165.25C421.96 165.71 422.93 166.36 423.78 167.21C424.62 168.06 425.27 169.03 425.73 170.14C426.18 171.25 426.41 172.4 426.41 173.6C426.41 174.8 426.18 175.95 425.73 177.06C425.27 178.16 424.62 179.14 423.78 179.99C422.93 180.83 421.96 181.49 420.86 181.95C419.75 182.4 418.61 182.63 417.41 182.63L319.41 182.63C318.22 182.63 317.07 182.4 315.97 181.95C314.87 181.49 313.89 180.83 313.05 179.99C312.21 179.14 311.55 178.16 311.1 177.06C310.64 175.95 310.41 174.8 310.41 173.6C310.41 172.4 310.64 171.25 311.1 170.14C311.55 169.03 312.21 168.06 313.05 167.21C313.89 166.36 314.87 165.71 315.97 165.25C317.07 164.79 318.22 164.56 319.41 164.56L417.41 164.56Z" fill="#7030AB" fill-opacity="1.000000" fill-rule="nonzero"/>
	<path id="减去_40" d="M200.41 182.63C197.44 182.63 194.48 182.37 191.55 181.86C188.61 181.35 185.75 180.59 182.94 179.59C180.14 178.58 177.44 177.34 174.85 175.87C172.26 174.4 169.81 172.72 167.51 170.83C165.2 168.94 163.08 166.86 161.13 164.6C159.18 162.34 157.44 159.93 155.9 157.37C154.36 154.81 153.05 152.14 151.97 149.36C150.89 146.57 150.06 143.71 149.47 140.78C148.88 137.85 148.54 134.9 148.45 131.91C148.37 128.92 148.54 125.95 148.96 122.99C149.38 120.03 150.06 117.13 150.98 114.29C151.89 111.45 153.05 108.7 154.44 106.06C155.83 103.42 157.43 100.91 159.25 98.54C161.06 96.18 163.07 93.98 165.26 91.96C167.45 89.94 169.8 88.12 172.3 86.5C174.81 84.88 177.43 83.49 180.17 82.33C183.32 81 186.56 79.99 189.9 79.31C193.25 78.62 196.62 78.27 200.03 78.25C203.45 78.23 206.83 78.54 210.18 79.19C213.53 79.84 216.78 80.81 219.94 82.1C223.1 83.39 226.11 84.98 228.96 86.86C231.81 88.74 234.44 90.89 236.87 93.3C239.3 95.7 241.47 98.32 243.39 101.16C245.3 103.99 246.92 106.99 248.25 110.14C249.58 113.3 250.59 116.55 251.28 119.91C251.97 123.26 252.32 126.65 252.35 130.08C252.38 133.5 252.07 136.89 251.43 140.26C250.79 143.62 249.83 146.89 248.55 150.07C247.26 153.24 245.69 156.26 243.81 159.12C241.94 161.99 239.81 164.64 237.42 167.08C235.02 169.52 232.42 171.71 229.6 173.63C226.78 175.56 223.79 177.19 220.65 178.53C214.18 181.28 207.44 182.65 200.41 182.63ZM200.41 97.3C198.25 97.3 196.1 97.51 193.98 97.94C191.85 98.36 189.79 98.99 187.78 99.82C185.78 100.66 183.88 101.68 182.08 102.88C180.28 104.09 178.61 105.47 177.08 107C175.55 108.54 174.18 110.22 172.97 112.02C171.77 113.83 170.75 115.74 169.93 117.75C169.1 119.76 168.47 121.83 168.05 123.97C167.62 126.1 167.41 128.25 167.41 130.43C167.41 132.61 167.62 134.76 168.05 136.89C168.47 139.03 169.1 141.1 169.93 143.11C170.75 145.12 171.77 147.03 172.97 148.84C174.18 150.64 175.55 152.32 177.08 153.86C178.61 155.39 180.28 156.77 182.08 157.98C183.88 159.18 185.78 160.2 187.78 161.04C189.79 161.87 191.85 162.5 193.98 162.92C196.1 163.35 198.25 163.56 200.41 163.56C202.58 163.56 204.73 163.35 206.85 162.92C208.98 162.5 211.04 161.87 213.04 161.04C215.04 160.2 216.95 159.18 218.75 157.98C220.55 156.77 222.22 155.39 223.75 153.86C225.28 152.32 226.65 150.64 227.85 148.84C229.06 147.03 230.07 145.12 230.9 143.11C231.73 141.1 232.36 139.03 232.78 136.89C233.2 134.76 233.41 132.61 233.41 130.43C233.41 128.25 233.2 126.1 232.77 123.97C232.35 121.84 231.72 119.77 230.89 117.76C230.06 115.75 229.04 113.84 227.84 112.03C226.64 110.23 225.27 108.55 223.74 107.02C222.2 105.48 220.54 104.1 218.74 102.9C216.94 101.69 215.04 100.67 213.04 99.83C211.03 99 208.97 98.37 206.85 97.94C204.72 97.52 202.58 97.3 200.41 97.3Z" fill="#458CFB" fill-opacity="1.000000" fill-rule="nonzero"/>
	<path id="减去_42" d="M200.41 182.63C197.44 182.63 194.48 182.37 191.55 181.86C188.62 181.35 185.75 180.59 182.94 179.59C180.14 178.58 177.44 177.34 174.85 175.87C172.26 174.4 169.81 172.72 167.51 170.83C165.21 168.93 163.08 166.86 161.13 164.6C159.18 162.34 157.44 159.93 155.9 157.37C154.37 154.81 153.06 152.14 151.98 149.35C150.9 146.57 150.06 143.71 149.47 140.78C148.88 137.85 148.54 134.9 148.46 131.91C148.37 128.92 148.54 125.95 148.96 122.99C149.39 120.03 150.06 117.13 150.98 114.29C151.9 111.45 153.05 108.7 154.44 106.06C155.83 103.42 157.43 100.91 159.25 98.54C161.06 96.18 163.07 93.98 165.26 91.96C167.45 89.94 169.8 88.12 172.3 86.5C174.81 84.88 177.43 83.49 180.17 82.33C186.64 79.58 193.39 78.21 200.41 78.23L200.41 97.3C198.25 97.3 196.1 97.51 193.97 97.94C191.85 98.36 189.79 98.99 187.78 99.82C185.78 100.66 183.88 101.68 182.08 102.88C180.28 104.09 178.61 105.47 177.08 107C175.55 108.54 174.18 110.22 172.97 112.02C171.77 113.83 170.75 115.74 169.92 117.75C169.1 119.76 168.47 121.83 168.05 123.97C167.62 126.1 167.41 128.25 167.41 130.43C167.41 132.61 167.62 134.76 168.05 136.89C168.47 139.03 169.1 141.1 169.92 143.11C170.75 145.12 171.77 147.03 172.97 148.84C174.18 150.64 175.55 152.32 177.08 153.86C178.61 155.39 180.28 156.77 182.08 157.98C183.88 159.18 185.78 160.2 187.78 161.04C189.79 161.87 191.85 162.5 193.97 162.92C196.1 163.35 198.25 163.56 200.41 163.56L200.41 182.63Z" fill="#FBB245" fill-opacity="1.000000" fill-rule="nonzero"/>
	<path id="减去_45" d="M200.41 182.63C193.39 182.65 186.64 181.28 180.17 178.53C173.94 175.89 168.43 172.16 163.64 167.34C158.85 162.54 155.13 157.01 152.5 150.75C150.83 146.8 149.68 142.7 149.02 138.46L168.39 138.46C169.28 142.05 170.73 145.39 172.73 148.49C174.74 151.59 177.19 154.28 180.09 156.55C182.99 158.83 186.19 160.56 189.67 161.77C193.15 162.97 196.73 163.56 200.41 163.56L200.41 182.63Z" fill="#C62BCB" fill-opacity="1.000000" fill-rule="nonzero"/>
	<path id="路径_1163" d="M275.96 556.76L265.03 556.76L265.03 540.91L275.64 542.99L275.96 556.76Z" fill="#C77760" fill-opacity="1.000000" fill-rule="nonzero"/>
	<path id="路径_1164" d="M265.19 552.24L264.87 565.45C264.87 565.45 300.84 564.89 300.91 564.81C300.6 560.49 275.96 552.24 275.96 552.24L265.19 552.24Z" fill="#272F31" fill-opacity="1.000000" fill-rule="nonzero"/>
	<path id="路径_1163-2" d="M202.28 556.76L213.2 556.76L213.2 540.91L202.6 542.99L202.28 556.76Z" fill="#C77760" fill-opacity="1.000000" fill-rule="nonzero"/>
	<path id="路径_1164-2" d="M213.04 552.24L213.36 565.45C213.36 565.45 177.4 564.89 177.32 564.81C177.64 560.49 202.28 552.24 202.28 552.24L213.04 552.24Z" fill="#272F31" fill-opacity="1.000000" fill-rule="nonzero"/>
	<path id="路径_1165" d="M273.91 457.35C275.19 464.88 277.51 545.45 277.51 545.45C277.51 545.45 267.26 547.06 263.84 545.45C260.43 543.84 255.31 467.69 253.94 461.75C252.58 455.8 240.62 410.34 239.25 409.88C237.88 409.42 224.79 461.08 224.34 462.45C223.89 463.82 215.57 548.88 215.57 548.88L201.22 548.88C201.22 548.88 201.22 472.75 202.81 456.75C204.41 440.75 211.92 368.04 211.24 365.75C210.56 363.47 261.06 370.69 261.06 370.69C261.06 370.69 272.64 449.82 273.91 457.35Z" fill="#1B245D" fill-opacity="1.000000" fill-rule="nonzero"/>
	<path id="路径_1152" d="M243.37 250.82C243.62 252.38 245.13 266.23 237.34 267.79C237.22 271.77 236.99 284.68 236.99 284.68L222.02 284.59L222.02 267.81C219.54 264.73 217.54 261.38 216 257.74C213.74 252.16 214.93 248.69 214.93 248.69C214.93 248.69 215.73 245.85 220.42 248.49C220.42 243.2 226.48 243.2 227.51 243.1C228.22 243.03 232.72 239.66 237.35 239.09C238.6 238.93 240.59 240.5 241.68 241.07C245.22 242.9 243.12 249.26 243.37 250.82Z" fill="#C37163" fill-opacity="1.000000" fill-rule="nonzero"/>
	<path id="路径_1153" d="M246 244.67C246.3 243.85 248.1 237.33 243.01 234.2C237.92 231.08 239.76 228.35 235.6 227.86C231.45 227.37 230.48 230.23 228.15 230.23C225.82 230.23 223 228.57 220.16 229.59C217.33 230.6 212.35 234.11 212.25 237.57C212.15 241.02 206.96 251.11 218.72 262.92C217.24 261.6 216.92 256.73 216.92 256.02C216.92 255.31 215.57 244.15 221.64 250.33C221.96 244.85 226.4 243.37 229.51 242.74C232.63 242.12 238.31 238.75 240.81 241.57C243.31 244.38 243.35 250.81 243.35 250.81C243.35 250.81 245.7 245.48 246 244.67Z" fill="#1C2463" fill-opacity="1.000000" fill-rule="nonzero"/>
	<path id="路径_1154" d="M241.87 276.23C241.5 277.49 240.93 278.65 240.17 279.72C239.42 280.79 238.5 281.7 237.44 282.46C236.37 283.22 235.22 283.79 233.96 284.16C232.71 284.53 231.43 284.68 230.12 284.63C227.43 284.67 224.95 283.96 222.69 282.47C220.43 280.99 218.79 279 217.75 276.5L221.79 276.23C222.74 277.63 223.99 278.67 225.54 279.33C227.09 280 228.7 280.19 230.36 279.9C236.29 279.09 237.42 276.23 237.42 276.23L241.87 276.23Z" fill="#FFFFFF" fill-opacity="1.000000" fill-rule="nonzero"/>
	<path id="路径_1156" d="M264.95 370.18C256.54 375.78 247.3 378.4 237.21 378.04C220.7 377.48 210.94 370.01 210.94 370.01L210.52 366.25L264.79 367.09L264.95 370.18Z" fill="#FFFFFF" fill-opacity="1.000000" fill-rule="nonzero"/>
	<path id="路径_1155" d="M253.74 276.23C253.74 276.23 249.93 293.95 260.27 302.21C263.6 310.42 264.82 367.82 264.82 367.82C264.82 367.82 238.19 381.71 210.51 366.41C210.37 365.48 206.83 340.21 206.83 340.21L199.48 309.96C199.48 309.96 209.92 305.09 202.55 279.17C203.07 277.15 218.58 276.23 218.58 276.23C218.58 276.23 219.59 283.98 228.73 284.46C237.88 284.94 242.1 276.13 242.1 276.13L253.74 276.23Z" fill="#192160" fill-opacity="1.000000" fill-rule="nonzero"/>
	<path id="路径_1159" d="M241.26 317.23C245.41 309.42 246.88 304.64 243.53 302.41C240.18 300.18 235.32 308.38 233.19 308.99C231.07 309.61 232.48 304.25 231.49 303.78C230.5 303.31 229.13 304.58 228.19 308.23C227.25 311.88 225.74 316.48 225.31 317.8C224.89 319.13 228.19 324.34 228.19 324.34C228.19 324.34 237.11 325.05 241.26 317.23Z" fill="#C37163" fill-opacity="1.000000" fill-rule="nonzero"/>
	<path id="路径_1158" d="M229.45 324.97C225.39 327.58 224.86 327.81 224.86 327.81L219.96 318.29L225.25 315.83C225.25 315.83 230.95 319.34 229.45 324.97Z" fill="#FFFFFF" fill-opacity="1.000000" fill-rule="nonzero"/>
	<path id="路径_1157" d="M199.41 309.93C199.54 310.06 191.68 322.56 192.3 325.37C192.92 328.18 202.77 326.2 207.85 323.19C212.93 320.18 217.18 315.49 222.05 315.07C225.05 318.5 226.7 327.86 225.99 328.7C221.32 332.76 196.24 342.65 192.71 343.69C189.19 344.73 175.51 350.45 176.75 337.96C178 325.47 195.35 276.26 204.32 279.03C213.29 281.79 203.59 311.82 199.41 309.93Z" fill="#7030AB" fill-opacity="1.000000" fill-rule="nonzero"/>
	<path id="路径_1162" d="M268.73 367.12C266.66 368.69 259.18 370.65 258.04 369.62C256.89 368.58 261.11 362.92 262.76 361.18C264.4 359.45 266.53 352.91 266.53 352.27C266.53 351.62 272.47 355.52 272.47 355.52C272.47 355.52 270.8 365.55 268.73 367.12Z" fill="#C37163" fill-opacity="1.000000" fill-rule="nonzero"/>
	<path id="路径_1161" d="M274.57 359.01C270.72 357.3 267.35 354.9 264.47 351.81C266.13 350.2 267.56 348.41 268.77 346.45L276.35 353.09L274.57 359.01Z" fill="#FFFFFF" fill-opacity="1.000000" fill-rule="nonzero"/>
	<path id="路径_1160" d="M260.64 303.42C271.3 309.71 276.41 316.92 277.06 316.92C277.7 316.92 266.46 345.34 266.61 346.46C266.76 347.58 268.44 352.3 277.85 354.78C281.6 350.94 290.61 324.6 290.61 324.6C290.61 324.6 294.28 317.16 288.78 311C286.12 308.02 278.89 299.61 270.84 291.86C263.05 284.37 254.44 275.95 253.66 276.23C252.01 276.84 249.97 297.12 260.64 303.42Z" fill="#7030AB" fill-opacity="1.000000" fill-rule="nonzero"/>
	<path id="路径_1167-2" d="M451.99 540.9L451.99 576.28C451.99 576.28 451.35 578.87 439.42 578.87C427.49 578.87 425.76 576.28 425.76 576.28L425.76 540.9L451.99 540.9Z" fill="url(#paint_linear_5_136_0)" fill-opacity="1.000000" fill-rule="nonzero"/>
	<path id="椭圆_359-2" d="M425.63 541.03C425.63 539.58 431.56 538.4 438.87 538.4C446.18 538.4 452.1 539.58 452.1 541.03C452.1 542.48 446.18 543.65 438.87 543.65C431.56 543.65 425.63 542.48 425.63 541.03Z" fill="#B7BBC2" fill-opacity="1.000000" fill-rule="nonzero"/>
	<path id="椭圆_360-2" d="M427.03 542.08C427.03 541.21 432.25 540.5 438.69 540.5C445.14 540.5 450.36 541.21 450.36 542.08C450.36 542.95 445.14 543.65 438.69 543.65C432.25 543.65 427.03 542.95 427.03 542.08Z" fill="#769BE5" fill-opacity="1.000000" fill-rule="nonzero"/>
	<path id="路径_1168-3" d="M443.91 532.63C443.05 528.51 442.42 529.25 441.43 527.86C440.44 526.47 439.85 521 441.43 520.7C443.02 520.4 445.2 517.12 443.91 515.43C442.62 513.74 439.95 514.44 439.26 511.46C438.56 508.47 440.54 505.1 438.36 504.2C436.18 503.3 432.92 504.99 432.22 506.88C431.53 508.77 428.66 508.87 428.66 510.06C428.66 511.25 430.74 513.25 430.54 513.74C430.34 514.24 428.56 514.54 428.16 517.42C427.76 520.3 424.9 518.12 426.08 522.99C427.27 527.86 425.79 526.17 425.49 529.25C425.2 532.34 424.01 535.42 427.57 536.51C431.14 537.6 433.31 536.71 435.79 536.51C438.27 536.31 444.77 536.74 443.91 532.63Z" fill="#ADBBB4" fill-opacity="1.000000" fill-rule="nonzero"/>
	<path id="路径_1169-3" d="" fill="#000000" fill-opacity="0" fill-rule="nonzero"/>
	<path id="路径_1169-3" d="M435.89 506.78C435.89 506.78 429.95 535.11 435.89 543.56" stroke="#ABABAB" stroke-opacity="1.000000" stroke-width="0.600000"/>
	<path id="路径_1170-3" d="" fill="#000000" fill-opacity="0" fill-rule="nonzero"/>
	<path id="路径_1170-3" d="M437.69 510.23L434.62 514.13L433 511.95" stroke="#ABABAB" stroke-opacity="1.000000" stroke-width="0.600000"/>
	<path id="路径_1171-3" d="" fill="#000000" fill-opacity="0" fill-rule="nonzero"/>
	<path id="路径_1171-3" d="M439.67 516.66C436.25 517.74 433.85 521.77 433.85 521.77C432.87 520.26 431.75 518.87 430.47 517.6" stroke="#ABABAB" stroke-opacity="1.000000" stroke-width="0.600000"/>
	<path id="路径_1172-3" d="" fill="#000000" fill-opacity="0" fill-rule="nonzero"/>
	<path id="路径_1172-3" d="M439.01 524.85C436.2 525.71 433.19 529.96 433.19 529.96C433.19 529.96 431.47 524.98 428.31 523.71" stroke="#ABABAB" stroke-opacity="1.000000" stroke-width="0.600000"/>
	<path id="路径_1173-3" d="" fill="#000000" fill-opacity="0" fill-rule="nonzero"/>
	<path id="路径_1173-3" d="M436.92 532.08C435.16 532.26 433.46 535.42 433.46 535.42L428.9 533.67" stroke="#ABABAB" stroke-opacity="1.000000" stroke-width="0.600000"/>
	<path id="路径_1168-4" d="M431.35 530.56C432.37 525.67 433.11 526.55 434.29 524.89C435.47 523.23 436.17 516.74 434.29 516.38C432.41 516.03 429.82 512.13 431.35 510.12C432.88 508.1 436.06 508.93 436.88 505.39C437.71 501.84 435.35 497.83 437.94 496.76C440.53 495.7 444.42 497.71 445.24 499.95C446.06 502.2 449.48 502.32 449.48 503.73C449.48 505.15 447 507.51 447.24 508.11C447.48 508.7 449.59 509.05 450.06 512.48C450.54 515.91 453.95 513.31 452.54 519.1C451.13 524.89 452.89 522.88 453.24 526.54C453.6 530.21 455.01 533.87 450.77 535.17C446.53 536.47 443.94 535.41 441 535.17C438.06 534.94 430.32 535.45 431.35 530.56Z" fill="#CBD7D1" fill-opacity="1.000000" fill-rule="nonzero"/>
	<path id="路径_1169-4" d="" fill="#000000" fill-opacity="0" fill-rule="nonzero"/>
	<path id="路径_1169-4" d="M440.88 499.83C440.88 499.83 447.94 533.51 440.88 543.56" stroke="#707070" stroke-opacity="1.000000" stroke-width="0.600000"/>
	<path id="路径_1170-4" d="" fill="#000000" fill-opacity="0" fill-rule="nonzero"/>
	<path id="路径_1170-4" d="M438.75 503.94L442.39 508.56L444.32 505.98" stroke="#707070" stroke-opacity="1.000000" stroke-width="0.600000"/>
	<path id="路径_1171-4" d="" fill="#000000" fill-opacity="0" fill-rule="nonzero"/>
	<path id="路径_1171-4" d="M436.39 511.57C440.46 512.87 443.31 517.65 443.31 517.65C444.47 515.86 445.81 514.21 447.32 512.7" stroke="#707070" stroke-opacity="1.000000" stroke-width="0.600000"/>
	<path id="路径_1172-4" d="" fill="#000000" fill-opacity="0" fill-rule="nonzero"/>
	<path id="路径_1172-4" d="M437.17 521.31C440.51 522.33 444.1 527.39 444.1 527.39C444.1 527.39 446.14 521.47 449.89 519.96" stroke="#707070" stroke-opacity="1.000000" stroke-width="0.600000"/>
	<path id="路径_1173-4" d="" fill="#000000" fill-opacity="0" fill-rule="nonzero"/>
	<path id="路径_1173-4" d="M439.66 529.92C441.75 530.13 443.77 533.88 443.77 533.88L449.19 531.8" stroke="#707070" stroke-opacity="1.000000" stroke-width="0.600000"/>
	<path id="矩形_1555" d="M456.99 236.16C458.32 236.16 459.6 236.42 460.82 236.93C462.05 237.44 463.13 238.16 464.07 239.1C465 240.05 465.73 241.13 466.23 242.36C466.74 243.59 466.99 244.87 466.99 246.2L466.99 337.7C466.99 339.03 466.74 340.31 466.23 341.54C465.73 342.77 465 343.86 464.07 344.8C463.13 345.74 462.05 346.47 460.82 346.98C459.6 347.49 458.32 347.74 456.99 347.74L321.11 347.74C319.78 347.74 318.51 347.49 317.28 346.98C316.06 346.47 314.97 345.74 314.04 344.8C313.1 343.86 312.38 342.77 311.87 341.54C311.36 340.31 311.11 339.03 311.11 337.7L311.11 246.2C311.11 244.87 311.36 243.59 311.87 242.36C312.38 241.13 313.1 240.05 314.04 239.1C314.97 238.16 316.06 237.44 317.28 236.93C318.51 236.42 319.78 236.16 321.11 236.16L456.99 236.16Z" fill="#7030AB" fill-opacity="1.000000" fill-rule="nonzero"/>
	<path id="矩形_1519" d="M319.21 245.77L459.64 245.77L459.64 339.09L319.21 339.09L319.21 245.77Z" fill="#000000" fill-opacity="0" fill-rule="nonzero"/>
	<path id="路径_1242" d="M389.25 316.39L431.91 275.66L459.64 339.09L319.21 339.09L351.71 301.22L389.25 316.39Z" fill="url(#paint_linear_5_157_0)" fill-opacity="1.000000" fill-rule="nonzero"/>
	<path id="椭圆_380" d="M371.76 283.23C371.76 276.94 376.22 271.84 381.73 271.84C387.24 271.84 391.7 276.94 391.7 283.23C391.7 289.52 387.24 294.61 381.73 294.61C376.22 294.61 371.76 289.51 371.76 283.23Z" fill="#BE79FE" fill-opacity="1.000000" fill-rule="nonzero"/>
</svg>
