<?xml version="1.0" standalone="no"?><!DOCTYPE svg PUBLIC "-//W3C//DTD SVG 1.1//EN" "http://www.w3.org/Graphics/SVG/1.1/DTD/svg11.dtd"><svg t="1723818938942" class="icon" viewBox="0 0 1024 1024" version="1.1" xmlns="http://www.w3.org/2000/svg" p-id="21829" xmlns:xlink="http://www.w3.org/1999/xlink" width="200" height="200"><path d="M552.391111 856.177778H168.391111c-44.942222 0-81.351111-37.546667-81.351111-83.057778V256.568889c0-46.08 36.408889-83.057778 81.351111-83.057778h690.062222c44.942222 0 81.351111 37.546667 81.351111 83.057778v314.026667c0 15.928889-12.515556 28.444444-28.444444 28.444444s-28.444444-12.515556-28.444444-28.444444V256.568889c0-14.791111-10.808889-26.168889-24.462223-26.168889H168.391111c-13.653333 0-24.462222 11.946667-24.462222 26.168889v516.551111c0 14.222222 10.808889 26.168889 24.462222 26.168889h384.568889c15.928889 0 28.444444 12.515556 28.444444 28.444444s-12.515556 28.444444-28.444444 28.444445z" fill="#7030AB" p-id="21830"></path><path d="M528.497778 729.884444h-0.568889a25.031111 25.031111 0 0 1-23.893333-18.204444L415.857778 411.306667l-48.924445 177.493333a25.6 25.6 0 0 1-24.462222 18.773333H226.417778c-14.222222 0-25.6-11.377778-25.6-25.6s11.377778-25.6 25.6-25.6h96.711111l67.697778-245.191111a25.6 25.6 0 0 1 24.462222-18.773333c11.377778 0 21.617778 7.395556 24.462222 18.204444l91.022222 310.044445 54.613334-157.013334c3.413333-9.671111 11.946667-15.928889 21.617777-17.066666 10.24-1.137778 19.342222 3.982222 24.462223 12.515555l54.613333 94.435556h109.226667c14.222222 0 25.6 11.377778 25.6 25.6s-11.377778 25.6-25.6 25.6H671.288889c-9.102222 0-17.635556-5.12-22.186667-12.515556l-34.133333-58.595555-62.577778 179.768889c-3.413333 10.24-13.084444 17.066667-23.893333 17.066666z" fill="#7030AB" p-id="21831"></path></svg>