<svg t="1726505244457" class="icon" viewBox="0 0 1024 1024" version="1.1" xmlns="http://www.w3.org/2000/svg" p-id="9670" width="256" height="256"><path d="M185.91355563 584.32135168c-24.3780096 0-39.21927851-13.31720647-39.21927851-37.87335453v-95.77956806h727.63317931v94.90634752c0 24.52005433-15.60853959 38.81643235-41.03907214 38.78266766-118.34942805-0.18163029-467.79628771 0-647.37482866 0v-0.03609259z m-38.34489288-398.52422485c0-24.8134565 14.1170779-39.98422016 38.45317291-39.9842213h649.77793252c24.92173539 0 39.40207275 15.02522709 39.40207388 39.50918884v190.79885141H147.56866275v-190.36224057 0.03842162z m455.89835663 617.21376426c-11.17024711-24.1218651-31.5430821-43.14877497-56.61035407-52.64476501v-92.5172133h327.43586134c40.20194418 0 72.7614555-32.59909689 72.7614555-72.80337009V147.74214315c0-40.20194418-32.55951133-72.79987712-72.7614555-72.79987712H146.65701945c-40.20194418 0-72.76378339 32.59793294-72.7637834 72.79987712v437.30456462c0 40.20543715 32.56183922 72.8033701 72.7637834 72.80336896h327.43469738V750.44064142c-24.95666403 9.49249707-45.25847779 28.51940693-56.39146609 52.56792064H1.13294563s-1.67542101 25.10685867 18.48085504 47.98874965c22.41151545 25.50271886 54.35278563 24.59573248 54.35278564 24.59573248h338.74931712c12.7699877 41.79702784 51.73428679 72.17697906 97.82989255 72.17697906 46.09676971 0 85.05990371-30.41604381 97.82989141-72.17697906h338.63987314s29.83273245 1.09210851 52.38978446-22.5931446c21.93997597-23.17762105 20.37516288-49.99133639 20.37516288-49.99133753H603.42976171h0.03609372v0.00232903h0.00116395z m-92.88163783 78.8937967c-20.00841045 0-36.22587619-16.19068701-36.2258762-36.14553998 0-19.95601693 16.21513671-36.14670393 36.2258762-36.14670394 20.00375353 0 36.22238322 16.19068701 36.22238322 36.14670394-0.00116395 19.95601693-16.21862969 36.14553998-36.22238322 36.14553998z" fill="#7030AB" p-id="9671"></path></svg>