<?xml version="1.0" standalone="no"?><!DOCTYPE svg PUBLIC "-//W3C//DTD SVG 1.1//EN" "http://www.w3.org/Graphics/SVG/1.1/DTD/svg11.dtd"><svg t="1723888600290" class="icon" viewBox="0 0 1138 1024" version="1.1" xmlns="http://www.w3.org/2000/svg" p-id="201034" xmlns:xlink="http://www.w3.org/1999/xlink" width="284.5" height="256"><path d="M480.725444 337.750741a70.408911 70.408911 0 0 1 44.380279-41.711614 150.907572 150.907572 0 0 1 115.118203 28.953197l4.533077 3.436365c2.156867 1.937525 4.423405 3.655707 6.7265 5.520117 2.851451 0 5.593231 0.365571 8.371568 0.584913 3.911606 0.255899 7.786655 0.548356 11.771376 0.694584l6.324372 0.731142a264.563493 264.563493 0 0 1 31.03695 8.993038c84.081254-28.843526 144.290743-70.737924 167.065796-118.810467v-33.303488c0-107.148763-197.408161-192.838528-438.026775-192.838528S2.412781 85.689765 2.412781 192.838528v30.927278c42.844882 102.359787 214.260969 161.874692 435.614009 161.874692 13.416444 0 26.650102-0.292457 39.700974-0.767698a72.200207 72.200207 0 0 1 2.99768-47.122059z" fill="#7030AB" p-id="201035"></path><path d="M859.346985 449.249795a118.664239 118.664239 0 0 0 14.33037-25.589947V278.455178a214.480311 214.480311 0 0 1-104.80911 95.048374 466.285388 466.285388 0 0 1 52.71529 38.823605 499.150191 499.150191 0 0 1 37.76345 36.922638z" fill="#7030AB" p-id="201036"></path><path d="M558.591996 547.77109a562.97883 562.97883 0 0 1-23.981436-61.781443 125.573525 125.573525 0 0 1-3.655706-13.050873c-0.438685-1.608511-0.767698-3.180465-1.242941-4.715862a161.106994 161.106994 0 0 0-16.267894-23.17718c-2.595552-3.655707-4.130949-5.410446-5.556675-7.311413a984.481811 984.481811 0 0 1-69.714326 2.595551c-218.976831 0-402.127736-71.432509-437.990218-164.250901v152.333298c42.844882 90.442183 221.389597 159.498483 435.614008 159.498482a951.726679 951.726679 0 0 0 140.525366-10.382207 233.965228 233.965228 0 0 1-17.730178-29.757452z" fill="#7030AB" p-id="201037"></path><path d="M564.40457 634.374781a951.543893 951.543893 0 0 1-126.37778 8.371569c-214.224412 0-395.145336-69.056299-435.614009-159.498483v147.580879c40.468673 90.442183 219.013388 159.498483 435.614009 159.498483a941.381029 941.381029 0 0 0 160.485523-13.489558 141.804862 141.804862 0 0 1-8.84681-11.807933 213.74917 213.74917 0 0 1-25.260933-130.654957z" fill="#7030AB" p-id="201038"></path><path d="M704.454693 802.537289a848.781979 848.781979 0 0 1-266.427903 40.212773c-214.224412 0-395.145336-69.019742-435.614009-159.461925v140.415694c0 109.671201 195.214737 199.967156 438.026775 199.967155 198.687658 0 365.314769-59.003106 419.382671-141.731748l-23.688979-6.909285a297.282068 297.282068 0 0 1-131.678555-72.492664z" fill="#7030AB" p-id="201039"></path><path d="M1069.257663 868.998036c-25.772732-20.581629-42.954554-21.93424-48.401556-37.434436l-0.87737-0.87737c5.227661 5.337332 35.460355-12.721859 41.455714-14.988397a86.49402 86.49402 0 0 1 32.645461-5.447003c2.376209 0 14.257256 2.924565 16.085109 1.389169 4.277177-3.655707-3.655707-13.489558-5.73946-16.304452a95.267716 95.267716 0 0 0-14.147584-12.72186 369.66506 369.66506 0 0 0-111.206598-71.469065 53.336761 53.336761 0 0 1-31.768091-29.830567c-7.823212-14.622827-13.599229-30.452037-20.654743-45.476991a875.980436 875.980436 0 0 0-39.408518-87.73696 456.963336 456.963336 0 0 0-90.515297-106.710079 428.11981 428.11981 0 0 0-57.431152-41.675056 224.314162 224.314162 0 0 0-68.873514-26.321088c-10.564992-0.329014-20.6913-1.645068-31.548749-1.645068a167.687266 167.687266 0 0 1-19.375246-14.622827c-24.05455-15.536753-85.835993-48.182214-103.56617-4.679304-11.332691 27.4178 16.852808 54.287244 26.540431 68.215486a198.322088 198.322088 0 0 1 21.93424 31.548749c2.961122 7.311413 3.655707 14.622827 6.763057 22.299811a500.210346 500.210346 0 0 0 21.93424 56.480668 202.416479 202.416479 0 0 0 15.573311 26.101746c3.655707 4.679305 9.577952 6.763057 10.96712 14.366927a120.857663 120.857663 0 0 0-9.687623 31.548749 183.735818 183.735818 0 0 0 12.21006 141.439292c6.7265 10.455321 22.409482 33.632502 44.160937 24.822248 18.936561-7.640427 14.622827-31.65842 20.252615-52.678733 1.279497-4.971761 0.438685-8.371568 2.924566-11.734819v0.87737c6.397487 11.734818 11.84449 23.17718 17.291492 34.911999 25.151262 54.396915 87.152047 81.924387 140.671593 97.899825 37.982792 11.332691 76.294599 21.129985 113.144122 35.387241 24.602906 9.577952 62.476027 23.835208 96.400986 36.557066 39.481632 14.622827 67.886473 24.347007 72.894791 27.198458a55.822641 55.822641 0 0 1 7.969441 5.447003c-0.438685-11.259577-25.078148-39.445075-68.617615-74.137732zM667.385827 446.910142a16.962479 16.962479 0 0 1-16.779694 0 16.852808 16.852808 0 0 1-8.371568-14.622826 16.816251 16.816251 0 0 1 8.371568-14.622827 16.779694 16.779694 0 0 1 16.779694 0 16.816251 16.816251 0 0 1 8.371568 14.622827 16.852808 16.852808 0 0 1-8.371568 14.622826z" fill="#7030AB" p-id="201040"></path></svg>