<?xml version="1.0" standalone="no"?><!DOCTYPE svg PUBLIC "-//W3C//DTD SVG 1.1//EN" "http://www.w3.org/Graphics/SVG/1.1/DTD/svg11.dtd"><svg t="1723886560879" class="icon" viewBox="0 0 1024 1024" version="1.1" xmlns="http://www.w3.org/2000/svg" p-id="186169" xmlns:xlink="http://www.w3.org/1999/xlink" width="256" height="256"><path d="M883.014493 7.42029H140.985507A133.565217 133.565217 0 0 0 7.42029 140.985507v742.028986a133.565217 133.565217 0 0 0 133.565217 133.565217h742.028986a133.565217 133.565217 0 0 0 133.565217-133.565217V140.985507a133.565217 133.565217 0 0 0-133.565217-133.565217zM685.783188 867.283478H337.994203a22.26087 22.26087 0 0 1-18.921739-34.430145l51.942029-79.026087h281.971014l51.942029 79.026087a22.26087 22.26087 0 0 1-19.144348 34.430145z m219.269566-207.768116a59.362319 59.362319 0 0 1-59.362319 59.362319H178.086957a59.362319 59.362319 0 0 1-59.362319-59.362319V214.743188a59.362319 59.362319 0 0 1 59.362319-59.362318h667.826086a59.362319 59.362319 0 0 1 59.362319 59.362318z" fill="#7030AB" p-id="186170"></path><path d="M732.308406 329.831884l34.949565-0.371014a54.835942 54.835942 0 1 0-1.558261-37.10145l-42.518261 0.519421a16.621449 16.621449 0 0 0-3.85855 0.445217h-0.742029l-2.819711 0.964638-1.113043 0.667826A12.985507 12.985507 0 0 0 712.347826 296.811594a7.42029 7.42029 0 0 0-1.187246 0.890435 19.366957 19.366957 0 0 0-1.706667 1.78087l-0.51942 0.445217-35.246377 42.889275a198.418551 198.418551 0 0 0-351.944348 12.688696l-51.942029-13.05971-15.36-31.387826a54.910145 54.910145 0 1 0-32.871884 17.215072l18.624928 38.214493a20.405797 20.405797 0 0 0 2.077681 3.264927l0.593623 0.593624a19.070145 19.070145 0 0 0 2.077681 2.151884 5.268406 5.268406 0 0 0 1.038841 0.742029 21.518841 21.518841 0 0 0 2.151884 1.409855l1.335652 0.593623 2.30029 0.890435h0.667826l56.83942 14.172753a198.863768 198.863768 0 0 0-6.529855 50.086957 196.637681 196.637681 0 0 0 22.26087 91.046956l-44.002319-0.51942H276.405797a10.536812 10.536812 0 0 0-2.448696 0.816232 7.42029 7.42029 0 0 0-1.187246 0.445217 17.289275 17.289275 0 0 0-2.522898 1.484058 3.932754 3.932754 0 0 1-0.742029 0.445218 24.041739 24.041739 0 0 0-2.819711 2.671304l-27.751884 32.204058a54.984348 54.984348 0 1 0 27.455073 25.08058l22.78029-26.490435 60.994782 0.742029 3.190725 3.858551a198.195942 198.195942 0 0 0 298.740869-3.784348 26.342029 26.342029 0 0 0 2.30029 1.706667l85.555942 51.051594a21.593043 21.593043 0 0 0 4.08116 1.706666h1.03884a20.628406 20.628406 0 0 0 4.229566 0.519421 21.370435 21.370435 0 0 0 4.377971-0.519421l1.261449-0.445217a18.550725 18.550725 0 0 0 2.81971-1.113043 9.052754 9.052754 0 0 0 1.409855-0.890435 9.572174 9.572174 0 0 0 2.226087-1.632464l1.335652-1.261449a3.858551 3.858551 0 0 0 0.816232-0.742029l35.914203-42.815073a52.387246 52.387246 0 0 0 13.727536 1.855073 55.058551 55.058551 0 1 0-44.521739-22.854493l-23.373913 27.90029-71.976812-42.963478a190.924058 190.924058 0 0 0 13.208116-27.826087l4.674783-12.911305a196.118261 196.118261 0 0 0 8.162319-56.32 199.902609 199.902609 0 0 0-8.162319-56.542608l-1.113043-3.56174a19.663768 19.663768 0 0 0 2.226086-2.300289z m85.555942-38.808116a17.808696 17.808696 0 1 1-17.586087 18.031304 17.734493 17.734493 0 0 1 17.586087-18.031304z m-596.22029-1.113043A17.808696 17.808696 0 1 1 230.028986 266.091594a17.808696 17.808696 0 0 1-8.384928 23.819131z m9.497971 342.223768a17.808696 17.808696 0 1 1-1.855072-25.154783 17.882899 17.882899 0 0 1 1.855072 25.154783z m155.826087-307.793623a166.14029 166.14029 0 0 1 45.189565-32.055653 309.351884 309.351884 0 0 0-39.550145 80.213334h-38.956522a163.246377 163.246377 0 0 1 33.317102-48.157681z m-44.521739 151.448116a162.578551 162.578551 0 0 1 0-70.418551h42.073043a221.050435 221.050435 0 0 0-3.116521 38.14029 223.647536 223.647536 0 0 0 2.597101 32.278261z m44.521739 81.103768a164.582029 164.582029 0 0 1-33.317102-48.157682h38.14029a291.023768 291.023768 0 0 0 39.030725 79.471305 165.843478 165.843478 0 0 1-43.853913-31.313623z m99.877101 47.267246h-2.597101a303.044638 303.044638 0 0 1-58.026667-95.128116h60.623768z m0-128.371014h-69.453913a185.507246 185.507246 0 0 1 0.667826-70.418551h68.786087z m0-103.290435h-59.362318a321.150145 321.150145 0 0 1 57.062029-95.202319h2.300289z m326.492754 131.710145a17.882899 17.882899 0 1 1-17.808696 17.882898 17.882899 17.882899 0 0 1 17.586087-17.511884zM619.52 324.34087A165.249855 165.249855 0 0 1 652.985507 372.498551h-39.030724a312.023188 312.023188 0 0 0-39.624348-80.213334 165.027246 165.027246 0 0 1 45.189565 32.055653zM519.42029 276.99942h2.30029a322.708406 322.708406 0 0 1 57.581449 95.499131H519.42029z m0 128.371015h68.786087a195.598841 195.598841 0 0 1 3.635942 38.066087 190.924058 190.924058 0 0 1-3.042319 32.352464H519.42029z m0 198.789565V508.735072h60.846377a301.634783 301.634783 0 0 1-58.026667 95.128116z m99.802898-47.267246a165.472464 165.472464 0 0 1-43.77971 31.313623 293.175652 293.175652 0 0 0 39.030725-79.471305H652.985507a166.214493 166.214493 0 0 1-33.465507 48.157682z m44.52174-81.103768h-41.479421a223.721739 223.721739 0 0 0 2.671305-32.278261 228.61913 228.61913 0 0 0-3.116522-38.14029h42.073043a165.695072 165.695072 0 0 1 0 70.418551z" fill="#7030AB" p-id="186171"></path></svg>