<?xml version="1.0" standalone="no"?><!DOCTYPE svg PUBLIC "-//W3C//DTD SVG 1.1//EN" "http://www.w3.org/Graphics/SVG/1.1/DTD/svg11.dtd"><svg t="1723888543053" class="icon" viewBox="0 0 1137 1024" version="1.1" xmlns="http://www.w3.org/2000/svg" p-id="198880" xmlns:xlink="http://www.w3.org/1999/xlink" width="284.25" height="256"><path d="M974.565517 805.075862v-14.124138c0-42.372414 14.124138-63.558621 28.248276-70.62069l-7.062069-14.124137c-7.062069-7.062069-14.124138-21.186207-21.186207-28.248276 0-7.062069-7.062069-7.062069-7.062069-14.124138-21.186207-35.310345-63.558621-112.993103-35.310345-162.427586 14.124138-21.186207 42.372414-35.310345 70.62069-35.310345-28.248276-77.682759-98.868966-134.17931-183.613793-134.179311-105.931034 0-134.17931 91.806897-148.303448 148.303449 14.124138-7.062069 28.248276-7.062069 49.434482-7.062069 35.310345 0 63.558621 21.186207 70.62069 56.496551 7.062069 21.186207 7.062069 49.434483 7.062069 70.62069 0 28.248276-7.062069 63.558621-21.186207 91.806897v7.062069c0 7.062069-7.062069 14.124138-7.062069 14.124138 0 7.062069-7.062069 7.062069-7.062069 14.124137 7.062069 0 14.124138 0 21.186207 7.062069 14.124138 7.062069 21.186207 21.186207 28.248276 35.310345v112.993104c0 21.186207 7.062069 35.310345 7.062069 56.496551 7.062069 21.186207 21.186207 56.496552 56.496552 49.434483 21.186207 0 49.434483-14.124138 63.55862-35.310345 14.124138-21.186207 21.186207-42.372414 21.186207-70.620689l14.124138-77.682759z m0 0" fill="#7030AB" p-id="198881"></path><path d="M762.703448 543.77931c-7.062069 7.062069-14.124138 7.062069-21.186207 7.062069-14.124138 0-21.186207-14.124138-21.186207-28.248276 0-7.062069 14.124138-7.062069 28.248276-7.062069 7.062069 0 7.062069 0 14.124138 7.062069-7.062069-14.124138-14.124138-21.186207-28.248276-21.186206-21.186207 0-42.372414 7.062069-63.55862 21.186206V621.462069c0 28.248276 7.062069 56.496552 28.248276 77.682759 14.124138 14.124138 28.248276 21.186207 42.372413 21.186206 0-7.062069 7.062069-14.124138 7.062069-21.186206 0-7.062069 7.062069-7.062069 7.062069-14.124138v-7.062069c7.062069-28.248276 14.124138-49.434483 14.124138-77.682759 0-21.186207 0-42.372414-7.062069-56.496552z m240.110345 56.496552v-42.372414-35.310345V494.344828c-14.124138 0-35.310345 7.062069-42.372414 21.186206h7.062069c14.124138 0 28.248276 0 28.248276 14.124138 0 7.062069 0 14.124138-7.062069 14.124138 0 7.062069 0 7.062069-7.062069 7.062069s-14.124138 0-14.124138-7.062069c7.062069 35.310345 21.186207 70.62069 42.372414 98.868966l7.062069 14.124138c-7.062069-14.124138-7.062069-35.310345-14.124138-56.496552z m0 0M600.275862 289.544828c42.372414 0 84.744828 7.062069 120.055172 21.186206l21.186207 7.062069c7.062069-7.062069 14.124138-7.062069 28.248276-7.062069 42.372414-21.186207 77.682759-49.434483 98.868966-91.806896v-28.248276C868.634483 84.744828 677.958621 0 437.848276 0 197.737931 0 0 84.744828 0 190.675862v28.248276c42.372414 98.868966 211.862069 162.427586 430.786207 162.427586h35.310345c7.062069-14.124138 14.124138-35.310345 28.248276-49.434483 35.310345-28.248276 70.62069-42.372414 105.931034-42.372413z m0 0M868.634483 275.42069c-7.062069 14.124138-14.124138 21.186207-21.186207 35.310344l21.186207-7.062068v-28.248276z m0 0" fill="#7030AB" p-id="198882"></path><path d="M459.034483 437.848276h-21.186207C218.924138 437.848276 35.310345 367.227586 0 275.42069V423.724138c42.372414 91.806897 218.924138 155.365517 430.786207 155.365517h42.372414c-7.062069-28.248276-7.062069-56.496552-14.124138-91.806896v-49.434483z m0 0" fill="#7030AB" p-id="198883"></path><path d="M437.848276 642.648276c-211.862069 0-395.475862-70.62069-430.786207-155.365517V635.586207c42.372414 91.806897 218.924138 155.365517 430.786207 155.365517 35.310345 0 70.62069 0 105.931034-7.062069-21.186207-42.372414-42.372414-91.806897-56.496551-141.241379-14.124138-7.062069-35.310345 0-49.434483 0z m0 0" fill="#7030AB" p-id="198884"></path><path d="M798.013793 812.137931c-35.310345 21.186207-70.62069 21.186207-105.931034 14.124138-14.124138 0-28.248276-7.062069-35.310345-14.124138h-7.062069c-14.124138 7.062069-21.186207 14.124138-42.372414 21.186207-7.062069 0-14.124138 0-21.186207-7.062069-49.434483 7.062069-98.868966 14.124138-148.303448 14.124138-211.862069 0-395.475862-70.62069-430.786207-155.365517v141.241379c0 105.931034 190.675862 197.737931 437.848276 197.737931 155.365517 0 289.544828-35.310345 367.227586-91.806897 0-14.124138-7.062069-28.248276-7.062069-35.310344-7.062069-28.248276-7.062069-63.558621-7.062069-84.744828z m0 0M1045.186207 480.22069s0 7.062069 0 0v120.055172c7.062069 28.248276 0 63.558621-14.124138 91.806897 7.062069 7.062069 7.062069 7.062069 7.062069 14.124138 77.682759-127.117241 112.993103-275.42069 77.682759-317.793104-35.310345-49.434483-98.868966-77.682759-155.365518-70.62069-14.124138 0-28.248276 0-42.372413 7.062069 63.558621 28.248276 105.931034 84.744828 127.117241 155.365518z m0 0" fill="#7030AB" p-id="198885"></path><path d="M670.896552 720.331034c-28.248276-28.248276-42.372414-63.558621-35.310345-98.868965V529.655172v-14.124138c0-70.62069 28.248276-134.17931 77.682759-183.613793-35.310345-14.124138-70.62069-21.186207-112.993104-21.186207-63.558621 0-127.117241 49.434483-120.055172 169.489656 0 49.434483 56.496552 324.855172 127.117241 324.855172 14.124138 0 21.186207-7.062069 28.248276-21.186207 14.124138-21.186207 28.248276-35.310345 49.434483-49.434483-7.062069 0-7.062069-7.062069-14.124138-14.124138z m0 0M1108.744828 741.517241c-28.248276 7.062069-49.434483 7.062069-77.682759 0h-7.062069c-7.062069 7.062069-14.124138 7.062069-21.186207 49.434483h14.124138c21.186207 0 49.434483-7.062069 70.62069-14.124138 42.372414-14.124138 56.496552-42.372414 21.186207-35.310345z m0 0" fill="#7030AB" p-id="198886"></path><path d="M790.951724 776.827586c0-7.062069-7.062069-7.062069-7.062069-14.124138-7.062069-7.062069-14.124138-7.062069-21.186207-7.062069h-7.062069c-14.124138 7.062069-28.248276 14.124138-49.434482 14.124138-49.434483 14.124138-21.186207 28.248276 0 28.248276 28.248276 7.062069 63.558621 0 91.806896-14.124138-7.062069 0-7.062069-7.062069-7.062069-7.062069z m0 0" fill="#7030AB" p-id="198887"></path></svg>