<?xml version="1.0" standalone="no"?><!DOCTYPE svg PUBLIC "-//W3C//DTD SVG 1.1//EN" "http://www.w3.org/Graphics/SVG/1.1/DTD/svg11.dtd"><svg t="1723888824286" class="icon" viewBox="0 0 1024 1024" version="1.1" xmlns="http://www.w3.org/2000/svg" p-id="203940" xmlns:xlink="http://www.w3.org/1999/xlink" width="256" height="256"><path d="M384 816.114286v-12.914286C197.6 794.4 54.857143 745.142857 54.857143 685.714286v164.571428c0 65.6 173.942857 118.857143 388.571428 118.857143a1211.314286 1211.314286 0 0 0 132.342858-7.085714L420.571429 877.714286a70.057143 70.057143 0 0 1-36.571429-61.6zM385.257143 711.771429a73.714286 73.714286 0 0 1-1.257143-13.371429v-17.714286a69.485714 69.485714 0 0 1 20.914286-50.057143A70.514286 70.514286 0 0 1 384 580.571429v-33.371429C197.6 538.4 54.857143 489.142857 54.857143 429.714286v164.571428c0 59.657143 143.428571 108.914286 330.4 117.485715zM443.428571 457.142857l22.4-0.228571 195.428572-117.714286a69.828571 69.828571 0 0 1 36.228571-10.057143h23.885715a70.285714 70.285714 0 0 1 69.714285 62.285714c26.171429-16 40.914286-34.057143 40.914286-53.142857V173.714286c0-65.6-173.942857-118.857143-388.571429-118.857143S54.857143 108.114286 54.857143 173.714286v164.571428c0 65.6 173.942857 118.857143 388.571428 118.857143zM1001.257143 785.714286L798.285714 900.457143a125.828571 125.828571 0 0 1-121.828571 1.028571l-215.085714-116.571428a15.314286 15.314286 0 0 0-22.514286 13.485714v17.714286a15.2 15.2 0 0 0 8 13.371428l228.571428 124.342857a125.828571 125.828571 0 0 0 121.828572-0.914285l218.971428-123.314286a15.314286 15.314286 0 0 0 7.771429-13.371429v-17.257142a15.2 15.2 0 0 0-22.742857-13.257143z" fill="#7030AB" p-id="203941"></path><path d="M1016.228571 532.8L848 438.857143a14.971429 14.971429 0 0 0-14.4-0.228572l-132.114286 68.228572a15.2 15.2 0 0 0-8.228571 13.485714v74.628572l49.6-49.028572a14.514286 14.514286 0 0 1 3.771428-2.742857l87.085715-44.571429a14.857143 14.857143 0 0 1 14.171428 0.114286l100.457143 54.4a15.314286 15.314286 0 0 1 0.228572 26.742857l-150.285715 84.914286a125.828571 125.828571 0 0 1-121.828571 1.142857l-168.914286-91.657143a15.2 15.2 0 0 1-8-13.371428 15.314286 15.314286 0 0 1 8-13.485715l185.714286-99.657142h28.114286a15.314286 15.314286 0 0 0 15.314285-15.314286v-33.142857a15.314286 15.314286 0 0 0-15.314285-15.314286h-23.885715a16 16 0 0 0-7.885714 2.171429L446.285714 532.685714a15.542857 15.542857 0 0 0-7.428571 13.142857V580.571429a15.2 15.2 0 0 0 8 13.371428l228.571428 124.342857a125.828571 125.828571 0 0 0 121.828572-0.914285l218.971428-123.314286a15.314286 15.314286 0 0 0 7.771429-13.371429v-34.514285a15.314286 15.314286 0 0 0-7.771429-13.371429z" fill="#7030AB" p-id="203942"></path><path d="M1001.257143 667.885714L798.285714 782.628571a125.828571 125.828571 0 0 1-121.828571 1.142858l-215.085714-116.571429a15.2 15.2 0 0 0-22.514286 13.485714v17.714286a15.2 15.2 0 0 0 8 13.371429l228.571428 124.228571a125.485714 125.485714 0 0 0 121.828572-0.914286l218.971428-123.314285a15.085714 15.085714 0 0 0 7.771429-13.257143V681.142857a15.2 15.2 0 0 0-22.742857-13.257143z" fill="#7030AB" p-id="203943"></path></svg>