<?xml version="1.0" standalone="no"?><!DOCTYPE svg PUBLIC "-//W3C//DTD SVG 1.1//EN" "http://www.w3.org/Graphics/SVG/1.1/DTD/svg11.dtd"><svg t="1723890571572" class="icon" viewBox="0 0 1024 1024" version="1.1" xmlns="http://www.w3.org/2000/svg" p-id="234286" xmlns:xlink="http://www.w3.org/1999/xlink" width="256" height="256"><path d="M304.697598 824.441653a291.891313 291.891313 0 1 1 291.891313-291.891313 292.48701 292.48701 0 0 1-291.891313 291.891313zM304.697598 298.441593a232.321658 232.321658 0 1 0 232.321657 232.321657A232.917354 232.917354 0 0 0 304.697598 298.441593z" fill="#7030AB" p-id="234287"></path><path d="M304.697598 674.921817a142.371477 142.371477 0 1 1 141.775781-142.371477 142.371477 142.371477 0 0 1-141.775781 142.371477z m0-224.577602a82.801822 82.801822 0 1 0 82.206125 82.206125A82.801822 82.801822 0 0 0 304.697598 450.344215zM53.909347 677.304603l58.378263-12.509627 74.34293 346.754966-58.378263 12.509628zM537.9128 541.307079l56.769882-17.990036 143.562871 452.550675-56.769882 17.990036zM192.587506 262.401951l494.070725-193.89923 21.742924 55.39978-494.070725 193.958799z" fill="#7030AB" p-id="234288"></path><path d="M548.456629 531.001529l283.84941-218.14408 36.33749 47.238737L584.67498 578.240266z" fill="#7030AB" p-id="234289"></path><path d="M828.910569 365.755304a182.878843 182.878843 0 1 1 110.799559-327.633107 29.784828 29.784828 0 0 1 11.318235 26.210648 28.593435 28.593435 0 0 1-16.083807 23.827863l-69.100801 36.33749 26.806345 51.229904L965.920777 137.603522a27.997738 27.997738 0 0 1 27.402042 0 29.189131 29.189131 0 0 1 16.083807 22.636469v23.232166a182.283147 182.283147 0 0 1-180.496057 182.283147z m0-305.592334a123.309187 123.309187 0 1 0 119.139311 154.285408l-54.208386 27.997738a29.784828 29.784828 0 0 1-22.63647 0 28.593435 28.593435 0 0 1-17.2752-14.892414l-54.208387-104.246897a29.189131 29.189131 0 0 1 12.509628-39.91167l42.890152-22.040772A131.053243 131.053243 0 0 0 828.910569 60.16297z" fill="#7030AB" p-id="234290"></path></svg>