<?xml version="1.0" standalone="no"?><!DOCTYPE svg PUBLIC "-//W3C//DTD SVG 1.1//EN" "http://www.w3.org/Graphics/SVG/1.1/DTD/svg11.dtd"><svg t="1723888958945" class="icon" viewBox="0 0 1024 1024" version="1.1" xmlns="http://www.w3.org/2000/svg" p-id="207320" xmlns:xlink="http://www.w3.org/1999/xlink" width="256" height="256"><path d="M617.2672 896l-63.0784 72.0896c-23.3984 26.7776-61.0816 26.624-84.3776 0L406.7328 896H106.5984a42.6496 42.6496 0 0 1-42.5984-42.496V341.1456a42.496 42.496 0 0 1 42.5984-42.496h810.8032c23.5008 0 42.5984 19.2 42.5984 42.496V853.504a42.496 42.496 0 0 1-42.5984 42.496h-300.1344zM192 672.0512c0 17.8176 14.4384 32 32.256 32h575.6416a32 32 0 1 0 0-64H224.1536c-17.92 0-32.2048 14.336-32.2048 32z m32.256-138.6496h575.6416a32 32 0 1 0 0-64H224.1536a32 32 0 1 0 0 64z m-53.504-330.752c0-17.664 14.2848-31.9488 31.9488-31.9488h618.7008a31.9488 31.9488 0 1 1 0 64H202.6496a31.8976 31.8976 0 0 1-31.9488-32.0512zM330.6496 64h362.7008a31.9488 31.9488 0 1 1 0 64H330.6496a31.9488 31.9488 0 1 1 0-64z" fill="#7030AB" p-id="207321"></path></svg>