<?xml version="1.0" standalone="no"?><!DOCTYPE svg PUBLIC "-//W3C//DTD SVG 1.1//EN" "http://www.w3.org/Graphics/SVG/1.1/DTD/svg11.dtd"><svg t="1723817742047" class="icon" viewBox="0 0 1024 1024" version="1.1" xmlns="http://www.w3.org/2000/svg" p-id="8505" xmlns:xlink="http://www.w3.org/1999/xlink" width="200" height="200"><path d="M507.733333 1024C341.333333 1024 38.4 768 34.133333 520.533333V234.666667c0-46.933333 34.133333-85.333333 81.066667-85.333334 55.466667-8.533333 110.933333-21.333333 166.4-42.666666 59.733333-17.066667 110.933333-42.666667 157.866667-81.066667 17.066667-17.066667 42.666667-25.6 68.266666-25.6 21.333333 0 38.4 8.533333 51.2 17.066667 46.933333 38.4 102.4 64 157.866667 85.333333 55.466667 21.333333 110.933333 34.133333 166.4 42.666667 42.666667 4.266667 76.8 38.4 81.066667 85.333333 4.266667 102.4 0 196.266667-4.266667 290.133333-4.266667 25.6-4.266667 46.933333-8.533333 68.266667-4.266667 17.066667-21.333333 29.866667-38.4 25.6-17.066667-4.266667-29.866667-21.333333-25.6-38.4 0-8.533333 4.266667-21.333333 4.266666-29.866667h-354.133333v409.6c8.533333 0 17.066667-4.266667 25.6-4.266666 17.066667-4.266667 34.133333 4.266667 38.4 21.333333 4.266667 17.066667-4.266667 34.133333-21.333333 38.4-21.333333 8.533333-46.933333 8.533333-72.533334 12.8zM98.133333 546.133333c21.333333 187.733333 238.933333 384 379.733334 409.6v-409.6H98.133333z m439.466667-68.266666h362.666667c4.266667-81.066667 4.266667-162.133333 4.266666-243.2 0-12.8-12.8-21.333333-25.6-25.6-64-8.533333-123.733333-21.333333-183.466666-42.666667-55.466667-21.333333-110.933333-46.933333-157.866667-81.066667v392.533334z m-439.466667 0h375.466667V81.066667c-51.2 42.666667-106.666667 64-174.933333 85.333333-64 17.066667-110.933333 29.866667-179.2 42.666667-12.8 4.266667-21.333333 12.8-21.333334 25.6v243.2z m721.066667 533.333333h-102.4c-17.066667 0-34.133333-12.8-34.133333-34.133333v-29.866667l-17.066667-8.533333-25.6 12.8c-17.066667 8.533333-34.133333 4.266667-42.666667-12.8l-51.2-85.333334c-4.266667-8.533333-4.266667-17.066667-4.266666-25.6s8.533333-17.066667 12.8-21.333333l25.6-17.066667v-17.066666l-17.066667-4.266667c-8.533333-4.266667-12.8-12.8-17.066667-21.333333-4.266667-8.533333 0-17.066667 4.266667-25.6l51.2-85.333334c8.533333-12.8 29.866667-21.333333 42.666667-12.8l21.333333 12.8 12.8-8.533333V597.333333c0-17.066667 12.8-34.133333 34.133333-34.133333h102.4c17.066667 0 34.133333 12.8 34.133334 34.133333v29.866667l12.8 8.533333 21.333333-12.8c17.066667-8.533333 34.133333-4.266667 42.666667 12.8l51.2 85.333334c4.266667 8.533333 4.266667 17.066667 4.266666 25.6s-8.533333 17.066667-17.066666 21.333333l-21.333334 12.8v17.066667l25.6 17.066666c8.533333 4.266667 12.8 12.8 12.8 21.333334s0 17.066667-4.266666 25.6L930.133333 938.666667c-8.533333 17.066667-29.866667 21.333333-42.666666 12.8l-21.333334-12.8-17.066666 8.533333v29.866667c0 17.066667-12.8 34.133333-29.866667 34.133333z m-72.533333-64h38.4v-17.066667c0-12.8 4.266667-21.333333 12.8-25.6l46.933333-29.866666c8.533333-8.533333 21.333333-8.533333 34.133333 0l17.066667 8.533333 17.066667-29.866667-17.066667-8.533333c-8.533333-4.266667-17.066667-17.066667-17.066667-25.6v-55.466667c0-12.8 4.266667-21.333333 17.066667-29.866666l8.533333-4.266667-17.066666-29.866667-12.8 4.266667c-8.533333 4.266667-21.333333 4.266667-29.866667 0l-46.933333-25.6c-8.533333-4.266667-17.066667-17.066667-17.066667-29.866667v-12.8h-38.4v12.8c0 12.8-8.533333 21.333333-17.066667 29.866667l-42.666666 25.6c-8.533333 4.266667-21.333333 4.266667-29.866667 0l-12.8-8.533333-17.066667 29.866666 8.533334 4.266667c8.533333 4.266667 17.066667 17.066667 17.066666 29.866667v55.466666c0 12.8-4.266667 21.333333-17.066666 25.6l-12.8 12.8 17.066666 29.866667 17.066667-8.533333c8.533333-4.266667 21.333333-4.266667 34.133333 0l46.933334 29.866666c8.533333 4.266667 12.8 17.066667 12.8 25.6v17.066667z m21.333333-59.733333c-51.2 0-93.866667-42.666667-93.866667-93.866667s42.666667-93.866667 93.866667-93.866667 93.866667 42.666667 93.866667 93.866667-42.666667 93.866667-93.866667 93.866667z m0-128c-17.066667 0-34.133333 12.8-34.133333 34.133333s12.8 34.133333 34.133333 34.133333 34.133333-12.8 34.133333-34.133333-17.066667-34.133333-34.133333-34.133333z" fill="#7030AB" p-id="8506"></path></svg>