<?xml version="1.0" standalone="no"?><!DOCTYPE svg PUBLIC "-//W3C//DTD SVG 1.1//EN" "http://www.w3.org/Graphics/SVG/1.1/DTD/svg11.dtd"><svg t="1723888453423" class="icon" viewBox="0 0 1024 1024" version="1.1" xmlns="http://www.w3.org/2000/svg" p-id="196533" xmlns:xlink="http://www.w3.org/1999/xlink" width="256" height="256"><path d="M512 208.0256A304.0256 304.0256 0 0 0 207.9744 512H48.0256A464.0256 464.0256 0 1 1 512 976.0256c-217.9072 0-400.5376-150.1696-450.5088-352.512l155.3408-38.4A303.9744 303.9744 0 1 0 512 208.0256z" fill="#7030AB" p-id="196534" data-spm-anchor-id="a313x.search_index.0.i610.2d683a81sZU4ti" class="selected"></path><path d="M512 512m-192 0a192 192 0 1 0 384 0 192 192 0 1 0-384 0Z" fill="#7030AB" p-id="196535" data-spm-anchor-id="a313x.search_index.0.i611.2d683a81sZU4ti" class="selected"></path><path d="M512 495.0016L192 160S1.536 340.5824 54.1184 576C287.8976 532.0704 512 495.0016 512 495.0016z" fill="#9253cc" p-id="196536" data-spm-anchor-id="a313x.search_index.0.i612.2d683a81sZU4ti" class=""></path><path d="M507.2896 545.8944a38.5024 38.5024 0 0 0 27.2384-65.536L214.528 169.8816a38.4 38.4 0 1 0-54.528 54.1696l320 310.5792a38.4 38.4 0 0 0 27.2896 11.264z" fill="#FDFEFF" p-id="196537"></path></svg>