<?xml version="1.0" standalone="no"?><!DOCTYPE svg PUBLIC "-//W3C//DTD SVG 1.1//EN" "http://www.w3.org/Graphics/SVG/1.1/DTD/svg11.dtd"><svg t="1726505363691" class="icon" viewBox="0 0 1024 1024" version="1.1" xmlns="http://www.w3.org/2000/svg" p-id="11676" xmlns:xlink="http://www.w3.org/1999/xlink" width="256" height="256"><path d="M808.32 345.514667C747.029333 253.013333 642.112 192 522.794667 192a342.144 342.144 0 0 0-272.469334 134.826667 11.626667 11.626667 0 0 0 9.344 18.688 11.904 11.904 0 0 0 9.685334-4.693334 318.549333 318.549333 0 0 1 253.44-125.205333c105.386667 0 198.698667 51.114667 256.746666 129.92h28.8z" fill="#e3c4fc" p-id="11677" data-spm-anchor-id="a313x.search_index.0.i24.58fc3a81DsQIAj" class="selected"></path><path d="M774.784 766.144a341.034667 341.034667 0 0 1-252.010667 110.805333c-108.821333 0-205.802667-50.773333-268.544-129.92h30.72A318.442667 318.442667 0 0 0 522.752 853.333333a317.866667 317.866667 0 0 0 233.898667-102.208 12.586667 12.586667 0 0 1 9.173333-4.074666c10.197333 0 15.829333 11.584 8.938667 19.093333z" fill="#7030AB" p-id="11678" data-spm-anchor-id="a313x.search_index.0.i23.58fc3a81DsQIAj" class=""></path><path d="M289.578667 664.490667c-40.533333 0-71.296-8.618667-97.578667-35.264l33.770667-33.770667c16.896 16.896 39.829333 22.528 64.576 22.528 30.762667 0 47.296-11.648 47.296-33.024 0-9.386667-2.645333-17.28-8.277334-22.528-5.248-4.885333-11.242667-7.509333-23.637333-9.386667l-32.277333-4.501333c-22.890667-3.370667-39.829333-10.517333-51.797334-22.144-12.757333-12.757333-19.136-30.037333-19.136-52.544 0-47.68 35.285333-81.066667 93.077334-81.066667 36.778667 0 63.424 9.002667 86.336 31.146667l-33.045334 32.64c-16.874667-16.149333-37.141333-18.410667-54.784-18.410667-27.776 0-41.301333 15.402667-41.301333 33.792a25.173333 25.173333 0 0 0 1.472 9.152 25.728 25.728 0 0 0 6.4 9.984c5.269333 4.885333 13.909333 9.002667 24.789333 10.517334l31.530667 4.48c24.384 3.413333 39.808 10.154667 51.050667 20.672 14.250667 13.504 20.629333 33.024 20.629333 56.661333 0 51.797333-43.178667 81.066667-99.093333 81.066667z m148.266666-2.24V395.008h176.021334v46.549333H490.026667v62.677334h105.472v46.549333H490.026667v64.917333h123.84v46.549334h-176.021334z m388.842667-27.029334c-18.773333 18.773333-41.664 29.269333-72.064 29.269334-30.378667 0-53.696-10.496-72.448-29.269334-27.008-27.029333-26.261333-60.416-26.261333-106.602666 0-46.165333-0.746667-79.573333 26.261333-106.581334 18.773333-18.773333 42.026667-29.269333 72.448-29.269333 30.4 0 53.290667 10.496 72.064 29.269333C853.717333 449.066667 853.333333 482.474667 853.333333 528.64c0 46.165333 0.384 79.573333-26.666666 106.602667z m-38.656-181.653333c-7.509333-8.64-19.157333-14.272-33.408-14.272s-26.282667 5.632-33.770667 14.272c-10.197333 11.264-12.778667 23.637333-12.778666 75.050667 0 51.413333 2.624 63.808 12.778666 75.093333 7.488 8.618667 19.498667 14.250667 33.770667 14.250667 14.272 0 25.92-5.632 33.408-14.272 10.176-11.264 13.141333-23.637333 13.141333-75.072 0-51.413333-3.008-63.786667-13.141333-75.050667zM782.378667 274.666667c-26.026667 0-47.146667 21.12-47.146667 47.146666 0 25.984 21.12 47.338667 47.146667 47.338667 26.005333 0 47.338667-21.333333 47.338666-47.36 0-26.005333-21.333333-47.125333-47.36-47.125333zM262.741333 699.818667c-26.005333 0-47.125333 21.12-47.125333 47.125333s21.12 47.36 47.146667 47.36c26.005333 0 47.338667-21.354667 47.338666-47.36 0-26.026667-21.333333-47.146667-47.36-47.146667z" fill="#7030AB" p-id="11679" data-spm-anchor-id="a313x.search_index.0.i22.58fc3a81DsQIAj" class=""></path></svg>