<?xml version="1.0" standalone="no"?><!DOCTYPE svg PUBLIC "-//W3C//DTD SVG 1.1//EN" "http://www.w3.org/Graphics/SVG/1.1/DTD/svg11.dtd"><svg t="1723818664967" class="icon" viewBox="0 0 1024 1024" version="1.1" xmlns="http://www.w3.org/2000/svg" p-id="15684" xmlns:xlink="http://www.w3.org/1999/xlink" width="200" height="200"><path d="M948.736 5.12H76.2368C36.096 5.12 3.4816 39.7312 3.4816 82.2784v693.0432c0 42.5472 32.6144 77.1584 72.7552 77.1584H476.16l0.4608 98.3552-363.9808 0.3584A36.4032 36.4032 0 0 0 112.64 1024l800.1536-0.8192a36.4032 36.4032 0 1 0 0-72.7552l-363.52 0.3584-0.4096-98.304h399.872c40.1408 0 72.8064-34.6112 72.8064-77.1584V82.2784C1021.5424 39.7312 988.8768 5.12 948.736 5.12z m0 770.048H76.3904V82.2784H948.736z" p-id="15685" fill="#7030AB"></path><path d="M864.7168 235.2128a36.2496 36.2496 0 0 0-50.3808 10.24c-0.3584 0.4608-32.1024 48.3328-69.1712 98.1504-44.5952 59.9552-69.5296 86.1184-81.92 97.28-8.6528-10.24-19.9168-24.9344-28.3136-35.84C585.8816 340.8896 553.3696 302.08 514.2528 302.08 471.3472 302.08 445.44 355.7888 395.7248 467.712c-7.8848 17.408-18.432 41.3184-27.904 60.8768-5.888-13.312-11.8272-27.648-16.0256-37.888-9.6768-23.552-19.7632-48.0256-29.7984-67.1232a151.3984 151.3984 0 0 0-17.8688-27.8528c-11.7248-13.8752-25.2416-20.9408-40.1408-20.9408h-0.3584c-24.1152 0-49.5616 15.36-79.9744 48.2304a451.8912 451.8912 0 0 0-32.8704 40.0384A36.4032 36.4032 0 0 0 209.92 505.3952s10.24-13.8752 23.3984-28.928A196.5568 196.5568 0 0 1 256 454.4c1.9456 3.4304 4.096 7.7312 6.7072 13.2096 7.0656 14.7968 14.6944 33.1264 21.9648 50.8416 9.216 22.3232 18.6368 45.4144 27.8528 63.1296 7.9872 15.36 24.2688 46.7456 55.552 46.8992 22.6304 0 35.84-17.8688 40.2432-23.9104a220.16 220.16 0 0 0 17.408-29.1328c11.0592-21.248 23.3472-48.896 36.4032-78.2336s26.1632-58.8288 38.7072-83.4048a312.8832 312.8832 0 0 1 18.5344-32.768 212.3264 212.3264 0 0 1 16.4864 16.8448c13.312 14.8992 27.2896 33.3312 40.96 51.2 12.0832 15.7696 23.3472 30.72 33.4848 42.0864 13.5168 15.36 28.7744 29.44 49.1008 29.44 21.1968 0 42.24-13.2096 72.704-45.6192a966.3488 966.3488 0 0 0 64.256-78.1312c41.5232-54.9376 77.2608-108.8512 78.7456-111.1552a36.352 36.352 0 0 0-10.3936-50.4832z" p-id="15686" fill="#7030AB"></path></svg>