<?xml version="1.0" encoding="iso-8859-1"?>
<!-- Uploaded to: SVG Repo, www.svgrepo.com, Generator: SVG Repo Mixer Tools -->
<svg fill="#000000" height="800px" width="800px" version="1.1" id="Layer_1" xmlns="http://www.w3.org/2000/svg" xmlns:xlink="http://www.w3.org/1999/xlink" 
	 viewBox="0 0 511.999 511.999" xml:space="preserve">
<g>
	<g>
		<path d="M471.825,316.02c-3.562-7.235-11.909-10.908-19.701-8.57l-61.489,7.453c0.026-1.081,0.041-2.165,0.041-3.251
			c0-20.859-4.785-40.599-13.311-58.188l70.866-21.249l32.167,54.205c2.894,5.899,8.804,9.238,14.926,9.238
			c2.549,0,5.12-0.557,7.446-1.792c8.236-4.118,11.587-14.124,7.468-22.372l-38.411-66.782c-3.562-7.224-11.909-10.908-19.701-8.559
			l-93.931,28.196c-5.078-5.875-10.663-11.297-16.68-16.21l92.135-92.126c6.567-6.578,6.567-17.041,0-23.596L346.166,4.921
			c-6.567-6.556-17.141-6.556-23.596,0c-6.567,6.456-6.567,17.041,0,23.607l75.686,75.686l-85.838,85.829
			c-1.503-0.685-3.023-1.337-4.555-1.967c9.986-11.671,16.031-26.816,16.031-43.382c0-36.883-29.899-66.782-66.782-66.782
			s-66.782,29.899-66.782,66.782c0,16.565,6.045,31.709,16.031,43.382c-2.05,0.843-4.075,1.735-6.072,2.675l-86.547-86.537
			l75.686-75.686c6.567-6.567,6.567-17.152,0-23.607c-6.456-6.556-17.029-6.556-23.596,0L78.348,92.416
			c-6.567,6.556-6.567,17.018,0,23.596l93.143,93.133c-5.731,4.792-11.054,10.055-15.909,15.73l-95.71-28.726
			c-7.791-2.349-16.139,1.336-19.701,8.559L1.762,271.49c-4.118,8.248-0.768,18.254,7.468,22.372
			c2.326,1.235,4.897,1.792,7.446,1.792c6.122,0,12.032-3.339,14.926-9.238l32.167-54.205l72.81,21.835
			c-8.35,17.441-13.029,36.974-13.029,57.602c0,1.178,0.017,2.352,0.047,3.522l-63.72-7.723c-7.791-2.337-16.139,1.336-19.701,8.57
			L1.767,382.799c-4.118,8.238-0.778,18.254,7.457,22.372c2.337,1.224,4.897,1.781,7.457,1.781c6.122,0,12.021-3.339,14.915-9.238
			l32.176-54.205l65.913,8.259c4.019,12.779,9.912,24.726,17.349,35.528l-59.88,29.979c-5.676,2.783-9.238,8.57-9.238,14.915v63.109
			c0,9.238,7.457,16.695,16.695,16.695s16.695-7.457,16.695-16.695V442.43l58.865-29.393c23.365,20.055,53.736,32.177,86.942,32.177
			c32.978,0,63.158-11.958,86.458-31.767l58.236,28.984V495.3c0,9.238,7.457,16.695,16.695,16.695
			c9.238,0,16.695-7.457,16.695-16.695v-63.109c0-6.344-3.768-12.132-9.444-14.915l-58.937-29.435
			c7.672-11.026,13.73-23.258,17.82-36.363l63.592-7.967l32.175,54.205c2.894,5.899,8.793,9.238,14.915,9.238
			c2.56,0,5.12-0.557,7.457-1.781c8.236-4.118,11.575-14.135,7.457-22.372L471.825,316.02z M257.113,111.305
			c18.412,0,33.391,14.979,33.391,33.391c0,18.412-14.979,33.391-33.391,33.391s-33.391-14.979-33.391-33.391
			S238.702,111.305,257.113,111.305z M357.017,318.978l-0.391,0.048c0.08,1.035,0.097,2.118,0.104,3.186
			c-5.292,50.29-47.947,89.613-99.616,89.613c-55.235,0-100.173-44.938-100.173-100.173c0-55.235,44.938-100.173,100.173-100.173
			c55.235,0,100.173,44.937,100.173,100.173C357.286,314.115,357.193,316.558,357.017,318.978z"/>
	</g>
</g>
<g>
	<g>
		<path d="M304.534,347.086c-6.521-6.522-17.108-6.522-23.609,0c-12.587,12.587-34.63,12.587-47.217,0
			c-6.521-6.521-17.087-6.521-23.609,0c-6.521,6.511-6.521,17.087,0,23.609c12.587,12.597,29.358,19.544,47.217,19.544
			s34.63-6.945,47.217-19.544C311.055,364.174,311.055,353.598,304.534,347.086z"/>
	</g>
</g>
</svg>