<?xml version="1.0" standalone="no"?><!DOCTYPE svg PUBLIC "-//W3C//DTD SVG 1.1//EN" "http://www.w3.org/Graphics/SVG/1.1/DTD/svg11.dtd"><svg t="1723820327215" class="icon" viewBox="0 0 1024 1024" version="1.1" xmlns="http://www.w3.org/2000/svg" p-id="70955" xmlns:xlink="http://www.w3.org/1999/xlink" width="256" height="256"><path d="M961.766896 150.753779l-37.160775-0.51168c-0.89544 0-95.172517-1.854841-203.584759-43.364897C612.225359 65.111305 541.485572 16.949407 539.310931 15.478326l0.06396 0.06396-22.577889-15.414366-22.449969 15.350406 0.06396-0.06396c-2.430481 1.662961-72.274828 49.377139-181.710431 91.398876a698.763273 698.763273 0 0 1-213.178763 43.428857l-37.416615 0.51168v433.329169c0 97.091318 61.273704 206.590881 168.214866 300.548158a674.522423 674.522423 0 0 0 149.794378 100.353279c51.29594 24.68857 98.626359 37.736415 136.810494 37.736415 78.159151 0 188.682074-54.174141 281.67995-138.025734 103.807121-93.637477 163.353904-203.200999 163.353904-300.612118l-0.19188-433.329169z m-56.220862 433.329169c0 175.250468-275.859588 375.829107-388.685072 375.829107-56.476702 0-155.678701-50.01674-241.129294-121.588008-100.289319-83.979513-157.789382-176.657589-157.789382-254.241099V219.830606l7.803123-0.76752c86.282074-8.826483 160.859463-24.62461 215.673204-45.603498a1087.896065 1087.896065 0 0 0 170.709307-82.700313l4.669082-2.878201 4.797002 2.814241c28.845971 17.461087 89.416115 51.42386 170.837226 82.700313 72.402748 27.758651 151.649219 40.102936 205.375641 45.603498l7.803123 0.76752v364.316302z" fill="#7030AB" p-id="70956"></path><path d="M256.1599 288.459713h63.960025v63.960025H256.1599zM384.07995 288.459713h383.76015v63.960025H384.07995zM256.1599 480.339788h63.960025v63.960025H256.1599zM384.07995 480.339788h383.76015v63.960025H384.07995zM256.1599 672.219863h63.960025v63.960025H256.1599zM384.07995 672.219863h383.76015v63.960025H384.07995z" fill="#7030AB" p-id="70957"></path></svg>