<svg t="1726854515228" class="icon" viewBox="0 0 1033 1024" version="1.1" xmlns="http://www.w3.org/2000/svg" p-id="31619" data-spm-anchor-id="a313x.search_index.0.i67.58fc3a81DsQIAj" width="256" height="256"><path d="M505.087428 696.646442v-0.750292a131.770093 131.770093 0 0 1-73.622437-32.637717l-30.949559 27.948389A23.446636 23.446636 0 0 1 369.050047 656.505801l33.341116-30.24616a131.629413 131.629413 0 0 1-15.287207-60.117174h-60.023387a23.446636 23.446636 0 0 1 0-46.893271h60.023387v-48.30007L334.677279 416.646718a23.446636 23.446636 0 0 1-2.203984-29.917908l2.766703-3.235635a23.446636 23.446636 0 0 1 33.153543 0.562719l47.033952 48.581429h205.533209l47.080844-48.581429a23.446636 23.446636 0 0 1 33.716262 32.590824l-50.1758 51.723278v50.73852h57.77251a23.446636 23.446636 0 1 1 0 46.893271h-57.77251l-0.14068 6.377485a131.488733 131.488733 0 0 1-15.849926 55.193381l31.793638 28.839362a23.446636 23.446636 0 0 1-31.418491 34.747914l-29.871014-26.916738a131.770093 131.770093 0 0 1-69.355149 31.230919v1.125439h-31.652958z m14.724487-380.773365c44.876861 0 81.26604 36.342285 81.266039 81.219146v3.282529H438.545875v-3.282529c0-44.876861 36.389179-81.26604 81.26604-81.266039z" fill="#e3c4fc" p-id="31620" data-spm-anchor-id="a313x.search_index.0.i62.58fc3a81DsQIAj" class=""></path><path d="M536.740386 465.650186v230.996256h-31.652958V465.69708z" fill="#f2e3fe" p-id="31621" data-spm-anchor-id="a313x.search_index.0.i66.58fc3a81DsQIAj" class=""></path><path d="M744.899618 711.886755l49.331722 29.636548a23.446636 23.446636 0 0 1 11.395065 20.07032v45.908513l37.98355 22.837023a23.446636 23.446636 0 0 1 11.395065 20.164107v59.179308a23.446636 23.446636 0 0 1-11.395065 20.117214l-49.378615 29.636548a23.446636 23.446636 0 0 1-24.103142 0l-37.327044-22.414984-37.280151 22.414984a23.446636 23.446636 0 0 1-24.103141 0l-49.378615-29.636548a23.446636 23.446636 0 0 1-11.395065-20.117214v-59.226201a23.446636 23.446636 0 0 1 11.395065-20.117214l37.98355-22.79013v-45.955406a23.446636 23.446636 0 0 1 11.395065-20.07032l49.331721-29.636548a23.446636 23.446636 0 0 1 24.150035 0z m-61.523972 136.271847l-25.791299 15.521673v32.68461l25.838192 15.568566 25.931979-15.568566v-32.637717l-25.978872-15.568566z m98.851016 0l-25.978872 15.568566v32.637717l25.931979 15.568566 25.931979-15.568566v-32.68461l-25.885086-15.521673z m-49.425508-88.862749l-25.885086 15.568566v32.68461l15.61546 9.378654 10.269626 6.189912 25.931979-15.568566v-32.68461l-25.931979-15.568566z" fill="#e3c4fc" p-id="31622" data-spm-anchor-id="a313x.search_index.0.i63.58fc3a81DsQIAj" class=""></path><path d="M314.653852 212.192054a379.507247 379.507247 0 0 1 537.865824 509.542288l-60.35164-36.107819a309.167339 309.167339 0 1 0-231.418295 148.510991l7.59671 69.964761A379.507247 379.507247 0 0 1 314.653852 212.192054z" fill="#7030AB" p-id="31623" data-spm-anchor-id="a313x.search_index.0.i61.58fc3a81DsQIAj" class=""></path></svg>