<?xml version="1.0" standalone="no"?><!DOCTYPE svg PUBLIC "-//W3C//DTD SVG 1.1//EN" "http://www.w3.org/Graphics/SVG/1.1/DTD/svg11.dtd"><svg t="1723820575111" class="icon" viewBox="0 0 1024 1024" version="1.1" xmlns="http://www.w3.org/2000/svg" p-id="76890" xmlns:xlink="http://www.w3.org/1999/xlink" width="256" height="256"><path d="M957 788.7l-76-121.3c4-3 8-6.1 11.7-9.5 29.4-26.5 46.7-62.9 48.8-102.4 2.1-39.5-11.4-77.5-37.9-106.9-25.9-28.7-61.2-45.9-99.7-48.6V265.5c0-11.6-9.4-21-21-21H86.2c-11.6 0-21 9.4-21 21v455c0 11.6 9.4 21 21 21h696.7c11.6 0 21-9.4 21-21v-25c20.8-1.4 40.8-7.2 59-16.8l76 121.3c2 3.2 5.5 5 9.1 5 1.9 0 3.9-0.5 5.7-1.6 4.9-3.1 6.4-9.7 3.3-14.7z m-36.8-234.4c-3.5 67.6-59.7 120.3-126.6 120.3-2.2 0-4.4-0.1-6.6-0.2-69.9-3.6-123.8-63.4-120.1-133.3 3.5-67.6 59.7-120.3 126.6-120.3 2.2 0 4.4 0.1 6.6 0.2 69.9 3.7 123.8 63.5 120.1 133.3zM89.6 717.2V268.9h689.9v131.2c-31.6 2.9-61.3 15.9-85.3 37.5s-39.9 49.8-46.1 80.9h-109c-2.5 0-4.7 1.4-5.9 3.5l-44.7 83.8-77.7-179.5c-0.9-2.2-3-3.7-5.3-4-2.3-0.2-4.7 0.7-6.1 2.6L333.1 514H208.4a6.7 6.7 0 0 0 0 13.4h128.1c2.1 0 4.1-1 5.3-2.7l61.4-82.4 78.6 181.6c1 2.3 3.3 3.9 5.8 4h0.3c2.5 0 4.7-1.3 5.9-3.5l49.3-92.5h103c-0.3 2.7-0.5 5.5-0.7 8.3-2.1 39.5 11.4 77.5 37.9 106.9 25.1 27.8 59 44.8 96.1 48.3v21.8H89.6z" p-id="76891" fill="#7030AB"></path><path d="M303.2 354.1c11.8 0 21.4-9.6 21.4-21.4 0-11.8-9.6-21.4-21.4-21.4-11.8 0-21.4 9.6-21.4 21.4 0.1 11.9 9.6 21.4 21.4 21.4z" p-id="76892" fill="#7030AB"></path><path d="M233.8 332.8m-21.4 0a21.4 21.4 0 1 0 42.8 0 21.4 21.4 0 1 0-42.8 0Z" p-id="76893" fill="#7030AB"></path><path d="M164.4 332.8m-21.4 0a21.4 21.4 0 1 0 42.8 0 21.4 21.4 0 1 0-42.8 0Z" p-id="76894" fill="#7030AB"></path><path d="M709.5 783.7H159.6c-5.9 0-10.7 4.8-10.7 10.7s4.8 10.7 10.7 10.7h549.9c5.9 0 10.7-4.8 10.7-10.7s-4.8-10.7-10.7-10.7z" p-id="76895" fill="#7030AB"></path></svg>