<?xml version="1.0" standalone="no"?><!DOCTYPE svg PUBLIC "-//W3C//DTD SVG 1.1//EN" "http://www.w3.org/Graphics/SVG/1.1/DTD/svg11.dtd"><svg t="1726505454254" class="icon" viewBox="0 0 1024 1024" version="1.1" xmlns="http://www.w3.org/2000/svg" p-id="12534" xmlns:xlink="http://www.w3.org/1999/xlink" width="256" height="256"><path d="M491.26912 749.84448a20.72576 20.72576 0 1 0 41.45152 0 20.72576 20.72576 0 0 0-41.45152 0z" p-id="12535" fill="#7030AB"></path><path d="M932.1984 57.6H91.79648c-38.6816 0-70.03648 31.35488-70.03648 70.03648v631.6288c0 38.67648 31.35488 70.03648 70.03648 70.03648h307.13344c-21.29408 63.72352-60.32896 122.56256-132.04992 122.56256a17.5104 17.5104 0 1 0-0.02048 35.02592h490.26048a17.50528 17.50528 0 0 0 17.52064-17.50528 17.50016 17.50016 0 0 0-17.50016-17.52064h-0.02048c-71.72096 0-110.75584-58.8288-132.04992-122.56256h307.12832c38.6816 0 70.0416-31.36 70.0416-70.03648V127.63648c0-38.6816-31.36-70.03648-70.0416-70.03648zM56.33536 127.63648a35.49184 35.49184 0 0 1 35.45088-35.45088h840.40704a35.49184 35.49184 0 0 1 35.45088 35.45088v538.07104H56.33536V127.63648z m576.40448 797.312l20.59776 22.23104H375.77216l15.488-17.11104c22.65088-32.82944 34.33472-55.53152 48.15872-93.6448l2.2784-7.12704h140.59008l2.27328 7.12192c13.42976 41.83552 26.10688 64.1536 48.1792 88.52992z m334.91968-165.67296a35.4816 35.4816 0 0 1-35.44576 35.44576H91.79648a35.4816 35.4816 0 0 1-35.45088-35.44576v-59.40736h911.31392v59.40736z" p-id="12536" fill="#7030AB"></path><path d="M848.54272 601.69728c0 3.48672-5.38624 6.33344-12.01664 6.33344H218.68032c-6.6304 0-12.01664-2.85184-12.01664-6.33344v-16.8704c0-3.51744 5.38624-6.33344 12.01664-6.33344h617.84576c6.6304 0 12.01664 2.82112 12.01664 6.33344v16.8704zM291.91168 560.6912c0 2.816-1.87392 5.10464-4.18816 5.10464h-31.29344c-2.31424 0-4.18816-2.28864-4.18816-5.10464V472.4736c0-2.82112 1.87392-5.10464 4.18816-5.10464h31.29344c2.31424 0 4.18816 2.28352 4.18816 5.10464v88.2176z m163.00544-2.54976c0 4.20352-1.87392 7.61856-4.18816 7.61856h-31.29344c-2.31936 0-4.18816-3.41504-4.18816-7.61856V425.79456c0-4.20352 1.87392-7.61856 4.18816-7.61856h31.29344c2.31424 0 4.18816 3.41504 4.18816 7.61856v132.34688z m172.53376 0.55296c0 5.64736-1.86368 7.0656-4.17792 7.0656h-31.25248c-2.31424 0-4.1728-1.41824-4.1728-7.0656V376.0384c0-5.64224 1.85856-7.0656 4.1728-7.0656h31.29344c2.30912 0 4.17792 1.42336 4.17792 7.0656v182.66112l-0.04096-0.00512z m177.024-1.32096c0 8.4224-1.86368 8.38656-4.1728 8.38656h-31.29856c-2.30912 0-4.17792 0.03584-4.17792-8.38656V278.93248c0-8.41728 1.8688-8.38656 4.17792-8.38656h31.29856c2.30912 0 4.1728-0.03584 4.1728 8.38656v278.44096zM218.65472 416.8704c-1.84832 0.04096-3.61472 0.1024-5.26848 0.17408 0 0 1.86368-0.04096 5.26848-0.17408zM791.0912 225.30048c-6.59456-4.11648-12.42112-8.91904-18.55488-13.35808-7.57248-5.49888-15.2832-10.94656-22.80448-16.47616-0.45056-0.3328-0.88576-0.6656-1.37728-0.99328-5.03808-3.71712-10.01984-7.42912-15.05792-11.14112-4.21888-3.2512-7.34208-6.36928-11.47904-6.5024-2.08896-0.06656-4.44928 0.6656-7.38304 2.55488-5.34528 3.45088-10.63936 6.93248-15.98464 10.40896-12.76928 8.35584-25.4976 16.7424-38.31808 25.0624-3.3024 2.16064-6.64064 4.28032-9.92768 6.4-2.79552 1.792-6.08768 3.28192-8.50432 5.40672-1.86368 1.61792 0.61952 2.5856 2.64192 2.65216 10.76224 0.39936 21.53472-0.06656 32.26624-0.39936 7.79264-0.26624 15.58528-0.3328 23.3728-0.35328C569.20576 397.056 262.3488 415.13984 218.65472 416.8704c53.56032-1.2288 187.50464 10.17856 335.39072-53.45792a891.91424 891.91424 0 0 0 38.50752-17.73568c34.13504-16.87552 66.64192-36.14208 93.96736-58.9824 18.0736-15.11424 40.63232-38.9376 51.44064-57.99936 1.03424 0 2.06336 0.01536 3.0976 0.01536h28.44672c7.1168 0 14.27968-0.1024 21.4016-0.16384 3.4304-0.03072 1.87392-2.19136 0.18432-3.24608z" p-id="12537" fill="#7030AB"></path></svg>