<?xml version="1.0" standalone="no"?><!DOCTYPE svg PUBLIC "-//W3C//DTD SVG 1.1//EN" "http://www.w3.org/Graphics/SVG/1.1/DTD/svg11.dtd"><svg t="1723889442619" class="icon" viewBox="0 0 1024 1024" version="1.1" xmlns="http://www.w3.org/2000/svg" p-id="211836" xmlns:xlink="http://www.w3.org/1999/xlink" width="256" height="256"><path d="M950.044444 295.822222c-11.377778-17.066667-28.444444-34.133333-45.511111-39.822222l-341.333333-170.666667c-34.133333-17.066667-68.266667-17.066667-102.4 0l-341.333333 170.666667c-17.066667 5.688889-34.133333 22.755556-45.511111 39.822222-11.377778 17.066667-17.066667 39.822222-17.066667 56.888889V853.333333c0 28.444444 11.377778 56.888889 34.133333 79.644445s51.2 34.133333 79.644445 34.133333h682.666666c28.444444 0 56.888889-11.377778 79.644445-34.133333s34.133333-51.2 34.133333-79.644445V352.711111c0-17.066667-5.688889-39.822222-17.066667-56.888889zM256 910.222222V483.555556h512V910.222222h-512zM910.222222 853.333333c0 17.066667-5.688889 28.444444-17.066666 39.822223-11.377778 11.377778-22.755556 17.066667-39.822223 17.066666h-28.444444V426.666667h-625.777778V910.222222H170.666667c-17.066667 0-28.444444-5.688889-39.822223-17.066666-11.377778-11.377778-17.066667-22.755556-17.066666-39.822223V352.711111c0-11.377778 5.688889-17.066667 5.688889-28.444444 5.688889-11.377778 11.377778-17.066667 22.755555-22.755556l341.333334-170.666667c11.377778 0 17.066667-5.688889 28.444444-5.688888s17.066667 0 22.755556 5.688888l341.333333 170.666667c11.377778 5.688889 17.066667 11.377778 22.755555 22.755556 5.688889 11.377778 11.377778 17.066667 11.377778 28.444444V853.333333z" p-id="211837" fill="#7030AB"></path><path d="M597.333333 796.444444h-170.666666c-17.066667 0-28.444444 11.377778-28.444445 28.444445s11.377778 28.444444 28.444445 28.444444h170.666666c17.066667 0 28.444444-11.377778 28.444445-28.444444s-11.377778-28.444444-28.444445-28.444445z" p-id="211838" fill="#7030AB"></path></svg>